<svg id="Calque_1" data-name="Calque 1" xmlns="http://www.w3.org/2000/svg" viewBox="0 0 778 720"><defs><style>.cls-1{fill:#db291c;}.cls-2{fill:#75787b;}</style></defs><title>Logo ENP INCUBATEUR BY DJEZZY</title><path class="cls-1" d="M247.37,218.65v43.06H163.69v17.41c0,22.3,15.57,31.46,47.33,31.46a240.69,240.69,0,0,0,47.34-4.28v42.45A323.7,323.7,0,0,1,200,354c-66,0-90.71-26.88-90.71-77V133.14h149v43.37H163.69v42.14Z"/><path class="cls-1" d="M294.09,133.14H350l75.13,131L423,233.31V133.14H475.2V350H419.92L344.18,219l2.44,26.26V350H294.09Z"/><path class="cls-1" d="M569.87,284.31V350H515.81V137.11c4.28-1.53,14.05-3.05,29-4.89a350.73,350.73,0,0,1,48.56-3.05c63.22,0,91.92,26.26,91.92,77.57,0,47.64-30.84,78.19-84.9,78.19C590.94,284.93,580.87,284.62,569.87,284.31Zm0-110.55V241c4.58.3,12.52.61,23.82.61,25.35,0,37.57-14.05,37.57-35.12s-12.52-34.21-36-34.21A243.94,243.94,0,0,0,569.87,173.76Z"/><path class="cls-1" d="M190.19,583V488a159.43,159.43,0,0,1,34-3.62c18.95,0,31.76,4.88,38.87,14.35s9.75,20.62,9.75,36.63c0,15.75-3.07,27.59-10.45,37.06S242.29,586.93,224,586.93a141.24,141.24,0,0,1-17.27-1,112.43,112.43,0,0,1-12.4-2Zm24.66-78.42v62.27c4.46.14,7.94.27,10.31.27,16.3,0,22.84-10.86,22.84-31.62,0-20.47-5.71-31.34-23-31.34C221.54,504.19,218.05,504.33,214.85,504.61Z"/><path class="cls-1" d="M283,564.51a22.61,22.61,0,0,0,11.28,2.78c6.69,0,10.73-3.76,10.73-11.42V486.22h24.66v68c0,20.2-10.17,32.73-30.65,32.73-8.5,0-16.3-1.81-19.08-3.48l-2.09-1.11Z"/><path class="cls-1" d="M408.76,525.23v19.64H370.59v7.94c0,10.17,7.11,14.34,21.59,14.34a109.35,109.35,0,0,0,21.59-1.95v19.37a147.81,147.81,0,0,1-26.6,2.36c-30.09,0-41.37-12.25-41.37-35.1V486.22h68V506H370.59v19.23Z"/><path class="cls-1" d="M427.57,486.22h72.29v20.2l-43.6,58.78H500.7v19.92H426.17v-20l43.88-58.93H427.57Z"/><path class="cls-1" d="M513.52,486.22h72.29v20.2l-43.6,58.78h44.44v19.92H512.12v-20L556,506.14H513.52Z"/><path class="cls-1" d="M594.17,486.22h26.19L638.05,529l18.39-42.77h26.19l-31.9,61.85v37H626.07v-37Z"/><path class="cls-2" d="M117.05,532a31.76,31.76,0,0,1-4.7-1.24l-1.55-.68V484.91h4.4v13.56a26.77,26.77,0,0,1,8.29-1.43c10,0,15.17,5.39,15.17,17.77s-5.14,17.84-15.35,17.84A31.47,31.47,0,0,1,117.05,532Zm-1.85-29.73v25.33a24.82,24.82,0,0,0,7.92,1.24c8.17,0,11.15-4.34,11.15-14s-3-13.93-11.15-13.93A21.21,21.21,0,0,0,115.2,502.24Z"/><path class="cls-2" d="M145.72,497.72h4.46v21.37c0,3.4.93,5.88,2.1,7.18,2.17,2,4.89,2.48,7.93,2.41a29.31,29.31,0,0,0,8-1l.92-.31V497.72h4.4V529.8c0,5-1.11,8.85-3.34,11.58s-6,4.15-11.46,4.15a28.88,28.88,0,0,1-8.54-1.3l-1.12-.44.87-3.71a19.46,19.46,0,0,0,8.42,1.61c4.4,0,7.31-1.06,8.79-3.22a11.54,11.54,0,0,0,2.11-7.12,31.41,31.41,0,0,1-9,1.17c-9.85,0-14.55-3.77-14.55-13.62Z"/><path class="cls-2" d="M109,382.4h14.94v75.21H109Z"/><path class="cls-2" d="M139.93,382.4h16.2l30.41,52-.64-9v-43h14.51v75.21h-16L153.7,405.39l.74,7.95v44.27H139.93Z"/><path class="cls-2" d="M266.82,455.49c-4.55,2.23-10.69,3.4-18.53,3.4-26.17,0-35-17.48-35-38.88s8.58-38.88,34.85-38.88c7.1,0,14,1.38,16.63,2.55l2,.84-3.49,11.55c-3.29-1.59-7.73-2.44-13.35-2.44-18.22,0-21.61,13.35-21.61,26.38s3.39,26.38,21.61,26.38a36,36,0,0,0,12-1.91l1.38-.53Z"/><path class="cls-2" d="M278.15,382.4h14.94V429c0,6.89,1.38,11.65,4.13,14.09s6.57,3.71,11.34,3.71,8.36-1.27,11.12-3.71,4.23-7.2,4.23-14.09V382.4h14.94v44.39c0,23.3-10,32.1-30.29,32.1-10.28,0-17.91-2.44-22.89-7.21s-7.52-13.13-7.52-24.89Z"/><path class="cls-2" d="M378.67,458.89a124.73,124.73,0,0,1-12.5-.64c-4.13-.42-7.31-.85-9.42-1.27l-3.08-.64V383.68a114.21,114.21,0,0,1,24.9-2.55c20.44,0,29.76,5.83,29.76,19.81,0,8.37-3.6,14-10.8,16.63,9,2.86,13.56,9.32,13.56,19.39C411.09,453.06,400.81,458.89,378.67,458.89Zm-10.06-65.26v19.92h10.17c10.27,0,14.51-2.76,14.51-10.38,0-8.05-4.66-10.17-14.83-10.17A68.42,68.42,0,0,0,368.61,393.63Zm0,30.09v22.67a91.74,91.74,0,0,0,10.49.53c11.76,0,16.84-2.65,16.84-11.45,0-8.36-4.66-11.75-16.21-11.75Z"/><path class="cls-2" d="M433.12,457.61H417.55l23.94-75.21h20.33l23.94,75.21H470.3l-5.62-19.38H438.62Zm18.53-64.51L442,426.37h19.28Z"/><path class="cls-2" d="M543.7,382.4v12.5H521.25v62.71H506.31V394.9H484V382.4Z"/><path class="cls-2" d="M613.4,420q0,38.92-32.1,38.88c-12,0-20.65-4.14-25.42-11.34s-6.57-16.1-6.57-27.54,1.91-20.23,6.57-27.44,13.45-11.44,25.42-11.44Q613.4,381.13,613.4,420Zm-39.94-25a14.05,14.05,0,0,0-5,4.24c-2.22,3.39-3.49,9.21-3.92,13.45a115,115,0,0,0,0,14.62,53.77,53.77,0,0,0,1.28,7.09c1.27,5.09,3.39,8.27,7.62,10.7a19.21,19.21,0,0,0,15.68,0,13.43,13.43,0,0,0,5-4.34c2.44-3.39,3.6-9.32,3.92-13.45a83.7,83.7,0,0,0,0-14.51,39.44,39.44,0,0,0-1.17-7.1c-1.27-5.19-3.39-8.48-7.73-10.7A17.71,17.71,0,0,0,573.46,395Z"/><path class="cls-2" d="M626.32,457.61v-74a135.75,135.75,0,0,1,25-2.44c21.6,0,31.56,7.1,31.56,23.73q0,17.16-15.25,21.61l6.67,12.61c2.65,5.4,4.56,7.41,8.37,7.41l2.33-.32v10.91c-1.48,1-3.71,1.38-6.78,1.38-8.47,0-12.71-4.45-17.27-13.35l-8.47-16.63h-2c-2.23,0-5.3-.1-9.22-.21v29.34Zm25.52-64.4c-2.64,0-6.24.21-10.59.64V417c2.12.11,5.19.21,9.32.21,12.4,0,17.38-3,17.38-11.86C668,396.17,662.76,393.21,651.84,393.21Z"/></svg>