<svg xmlns="http://www.w3.org/2000/svg" viewBox="0 0 596.659 339.485"><defs><style>.a{fill:#f2f2f2;}.b,.h{fill:#594a42;}.c{fill:#b6d152;}.d{fill:none;stroke:#3f3d56;stroke-miterlimit:10;}.e{fill:#2f2e41;}.f{fill:#fff;}.g{fill:#6c63ff;opacity:0.3;}.h{font-size:29px;font-family:SegoeUI, Segoe UI;}</style></defs><g transform="translate(-388 -166.515)"><g transform="translate(388 166.515)"><ellipse class="a" cx="298.329" cy="19.738" rx="298.329" ry="19.738" transform="translate(0 203.194)"/><path class="b" d="M443.132,11.5c-48.581,0-83.532,31.162-83.532,103.949,0,82.458,34.895,104.288,83.532,104.288S528.7,195.814,528.7,115.449C528.7,29.541,491.713,11.5,443.132,11.5Zm.283,180.864c-33.65,0-51.239-19.738-51.239-76.859,0-50.391,18.324-76.972,51.974-76.972s51.974,17.476,51.974,76.972C496.125,171.212,477.122,192.364,443.415,192.364Z" transform="translate(-156.227 -4.779)"/><path class="c" d="M192.377,168.508H172.3V109.351a11.875,11.875,0,0,0-11.877-11.877h-4.694a11.875,11.875,0,0,0-11.877,11.877h0v59.157H87.184a6.807,6.807,0,0,1-6.787-6.787,6.913,6.913,0,0,1,.792-3.167L141.194,45.048a11.855,11.855,0,0,0-4.92-16.005,3.358,3.358,0,0,1-.452-.226l-3.563-1.7a11.785,11.785,0,0,0-15.5,5.147L43.523,169.13a16.044,16.044,0,0,0-1.923,7.578h0A16.051,16.051,0,0,0,57.662,192.77H143.8v37.44a14.168,14.168,0,0,0,14.2,14.2h0a14.168,14.168,0,0,0,14.2-14.2h0V192.77h20.077a12.117,12.117,0,0,0,12.1-12.1h0a11.962,11.962,0,0,0-11.99-12.159Z" transform="translate(-18.073 -11.067)"/><path class="c" d="M850.377,168.508H830.3V109.351a11.875,11.875,0,0,0-11.877-11.877h-4.694a11.875,11.875,0,0,0-11.877,11.877h0v59.157H745.184a6.807,6.807,0,0,1-6.787-6.787,6.913,6.913,0,0,1,.792-3.167L799.194,45.048a11.855,11.855,0,0,0-4.92-16.005,3.359,3.359,0,0,1-.452-.226l-3.563-1.7a11.784,11.784,0,0,0-15.5,5.147L701.523,169.13a16.044,16.044,0,0,0-1.923,7.578h0a16.051,16.051,0,0,0,16.062,16.062H801.8v37.44a14.168,14.168,0,0,0,14.2,14.2h0a14.168,14.168,0,0,0,14.2-14.2h0V192.77h20.077a12.117,12.117,0,0,0,12.1-12.1h0a11.962,11.962,0,0,0-11.99-12.159Z" transform="translate(-303.939 -11.067)"/><path class="d" d="M202.22,156.264H182.143V97.051a11.875,11.875,0,0,0-11.877-11.877h-4.694A11.875,11.875,0,0,0,153.7,97.051h0v59.157H97.027a6.807,6.807,0,0,1-6.787-6.787,6.913,6.913,0,0,1,.792-3.167L151.037,32.748a11.855,11.855,0,0,0-4.92-16.005,3.36,3.36,0,0,1-.452-.226l-3.563-1.7a11.785,11.785,0,0,0-15.5,5.147L53.423,156.83a16.044,16.044,0,0,0-1.923,7.578h0A16.051,16.051,0,0,0,67.562,180.47H153.7v37.44a14.168,14.168,0,0,0,14.2,14.2h0a14.168,14.168,0,0,0,14.2-14.2h0V180.47H202.22a12.117,12.117,0,0,0,12.1-12.1h0A12.117,12.117,0,0,0,202.22,156.264Z" transform="translate(-22.374 -5.723)"/><path class="d" d="M868.72,156.291H848.643V97.077A11.875,11.875,0,0,0,836.766,85.2h-4.694A11.875,11.875,0,0,0,820.2,97.077h0v59.157H763.527a6.807,6.807,0,0,1-6.787-6.787,6.913,6.913,0,0,1,.792-3.167L817.537,32.774a11.855,11.855,0,0,0-4.92-16.005,3.36,3.36,0,0,1-.452-.226l-3.563-1.7a11.89,11.89,0,0,0-15.5,5.147L719.923,156.856A16.043,16.043,0,0,0,718,164.435h0A16.051,16.051,0,0,0,734.062,180.5H820.2v37.44a14.168,14.168,0,0,0,14.2,14.2h0a14.168,14.168,0,0,0,14.2-14.2h0V180.5h20.077a12.117,12.117,0,0,0,12.1-12.1h0a11.961,11.961,0,0,0-12.046-12.1Z" transform="translate(-311.933 -5.75)"/><path class="d" d="M462.732.5C414.151.5,379.2,31.662,379.2,104.449c0,82.458,34.895,104.288,83.532,104.288S548.3,184.814,548.3,104.449C548.3,18.541,511.313.5,462.732.5Zm.339,180.864c-33.65,0-51.239-19.738-51.239-76.859,0-50.391,18.324-76.972,51.974-76.972s51.974,17.476,51.974,76.972c-.057,55.65-19.059,76.859-52.71,76.859Z" transform="translate(-164.742 0)"/><ellipse class="e" cx="9.614" cy="12.442" rx="9.614" ry="12.442" transform="translate(254.952 80.3)"/><ellipse class="e" cx="9.614" cy="12.442" rx="9.614" ry="12.442" transform="translate(307.265 80.582)"/><path class="e" d="M520.364,221.28c0,5.6-7.861,10.18-17.532,10.18S485.3,226.879,485.3,221.28c0-4.864,5.882-8.936,13.743-9.954a27.835,27.835,0,0,1,3.789-.226,29.238,29.238,0,0,1,6.278.679C515.727,213.249,520.364,216.982,520.364,221.28Z" transform="translate(-210.837 -91.494)"/><ellipse class="d" cx="9.614" cy="12.442" rx="9.614" ry="12.442" transform="translate(257.214 77.472)"/><ellipse class="d" cx="9.614" cy="12.442" rx="9.614" ry="12.442" transform="translate(309.527 77.755)"/><ellipse class="d" cx="17.532" cy="10.18" rx="17.532" ry="10.18" transform="translate(276.725 116.778)"/><path class="f" d="M519.544,212.41a2.9,2.9,0,0,1-.735,1.923,2.44,2.44,0,0,1-1.81.792h-5.656a2.608,2.608,0,0,1-2.545-2.715,2.844,2.844,0,0,1,.452-1.527,27.783,27.783,0,0,1,3.789-.283,26.1,26.1,0,0,1,6.278.735A2.45,2.45,0,0,1,519.544,212.41Z" transform="translate(-221.045 -91.277)"/><circle class="f" cx="2.828" cy="2.828" r="2.828" transform="translate(264 83.693)"/><circle class="f" cx="2.828" cy="2.828" r="2.828" transform="translate(316.597 83.693)"/><circle class="g" cx="2.828" cy="2.828" r="2.828" transform="translate(319.425 110.274)"/><circle class="g" cx="2.828" cy="2.828" r="2.828" transform="translate(250.427 110.274)"/></g><text class="h" transform="translate(686 461)"><tspan x="-155.917" y="0">This is not the web page</tspan><tspan x="-121.678" y="38">you are looking for</tspan></text></g></svg>