<svg xmlns="http://www.w3.org/2000/svg" viewBox="0 0 59.988 60.1">
  <g id="AI_home" transform="translate(-157 -417)">
    <g id="Group_64" data-name="Group 64" transform="translate(137 397)">
      <rect id="Rectangle_1" data-name="Rectangle 1" width="7.5" height="7.5" transform="translate(53.8 61.3)"/>
    </g>
    <g id="Group_65" data-name="Group 65" transform="translate(137 397)">
      <path id="Path_307" data-name="Path 307" d="M79.8,50.5,72.4,28.7a1.831,1.831,0,0,0-1.8-1.2H63.9l-.6-5.6A2.077,2.077,0,0,0,61.2,20h0a2.077,2.077,0,0,0-2.1,1.9l-.6,5.6H29.4a2.219,2.219,0,0,0-1.8,1.2c0,.1,0,.1-.1.2,0,.1,0,.1-.1.2L20,50.9v.6a2.2,2.2,0,0,0,1.9,2.3h5.6V76.3a3.8,3.8,0,0,0,3.8,3.8H68.8a3.8,3.8,0,0,0,3.8-3.8V53.8H78C79.5,53.8,80.4,52,79.8,50.5Zm-11,25.8H31.3V53.8H68.8Zm0-26.3H38.4L32,31.3H58.1l-.6,5.6,7-4.3-.1-1.3h5L75.7,50Z"/>
    </g>
  </g>
</svg>
