<svg xmlns="http://www.w3.org/2000/svg" viewBox="0 0 60 60">
  <g id="AI_user" transform="translate(-267 -308)">
    <path id="Path_326" data-name="Path 326" d="M50,57.5h0a14.98,14.98,0,0,0,15-15V35A14.98,14.98,0,0,0,50,20h0A14.98,14.98,0,0,0,35,35v7.5A14.98,14.98,0,0,0,50,57.5ZM38.8,35a11.534,11.534,0,0,1,3.3-8,11.182,11.182,0,0,1,8-3.3,11.355,11.355,0,0,1,8,3.3,11.182,11.182,0,0,1,3.3,8v7.5a11.534,11.534,0,0,1-3.3,8,11.182,11.182,0,0,1-8,3.3,11.355,11.355,0,0,1-8-3.3,11.182,11.182,0,0,1-3.3-8Z" transform="translate(247 288)"/>
    <path id="Path_327" data-name="Path 327" d="M57.5,61V72.5L42,61C25.7,63.2,20,71.7,20,71.7v4.5A3.8,3.8,0,0,0,23.8,80H77.4A2.647,2.647,0,0,0,80,77.4V71.8S74.2,63.1,57.5,61Z" transform="translate(247 288)"/>
  </g>
</svg>
