<svg xmlns="http://www.w3.org/2000/svg" viewBox="0 0 396.996 206.589"><defs><style>.a{fill:#b6d152;}.b{fill:#f1f2f2;}.c{fill:#9fb543;}.d{fill:#594a42;}</style></defs><g transform="translate(0.001 0.019)"><g transform="translate(-0.001 -0.019)"><path class="a" d="M297.529,53.316l28.954-40.1a6.743,6.743,0,0,0-10.925-7.879L286.6,45.51a6.724,6.724,0,0,0-.865,1.677,208.538,208.538,0,0,0-176.681-.667,6.436,6.436,0,0,0-.595-1.01L79.419,5.342A6.725,6.725,0,1,0,68.6,13.221L96.942,52.613C41.991,83.118,4.618,137.781,2.31,200.755H390.972C388.682,138.231,351.832,83.839,297.529,53.316Z" transform="translate(1.857 1.652)"/><path class="b" d="M59.245,46.309a2.776,2.776,0,0,1-1.388-5.192c3.8-2.181,7.752-4.273,11.755-6.184a2.782,2.782,0,0,1,2.416,5.012c-3.876,1.8-7.716,3.876-11.412,5.986A2.7,2.7,0,0,1,59.245,46.309Z" transform="translate(45.323 27.86)"/><path class="b" d="M23.733,105.079a2.993,2.993,0,0,1-1.334-.343,2.794,2.794,0,0,1-1.1-3.768A168.694,168.694,0,0,1,75.115,42.3a2.785,2.785,0,1,1,3.119,4.615,163.249,163.249,0,0,0-52.049,56.7A2.812,2.812,0,0,1,23.733,105.079Z" transform="translate(16.834 33.615)"/><path class="c" d="M166.271,113.307a102.313,102.313,0,0,1-48.551,87.1H298.313c-2.29-62.523-39.14-116.916-93.443-147.438l28.954-40.1A6.743,6.743,0,0,0,222.9,4.991L193.945,45.159a6.724,6.724,0,0,0-.865,1.677,205.346,205.346,0,0,0-73.341-19.381,102.349,102.349,0,0,1,46.532,85.852Z" transform="translate(94.516 2.003)"/><path class="d" d="M392.828,206.57H4.166A4.188,4.188,0,0,1,0,202.243C2.255,140.946,36.8,85.526,92.687,52.93L66.978,17.305A10.935,10.935,0,1,1,84.736,4.541l27.6,38.347a213.009,213.009,0,0,1,173.6.559L314.024,4.541a10.913,10.913,0,1,1,17.7,12.764l-26.25,36.328c55.186,32.7,89.35,87.926,91.513,148.61a4.183,4.183,0,0,1-4.165,4.327ZM8.565,198.223H388.447c-3.606-57.511-37.446-109.47-91.1-139.65a4.092,4.092,0,0,1-1.334-6l28.936-40.15a2.56,2.56,0,0,0,.451-1.911,2.506,2.506,0,0,0-1.028-1.659,2.452,2.452,0,0,0-1.5-.487,2.6,2.6,0,0,0-2.091,1.046L291.8,49.576a2.76,2.76,0,0,0-.306.649,4.147,4.147,0,0,1-2.344,2.452,4.219,4.219,0,0,1-3.371-.108A204.445,204.445,0,0,0,112.7,51.92a4.183,4.183,0,0,1-5.607-1.965,2.235,2.235,0,0,0-.18-.361L77.9,9.408a2.562,2.562,0,0,0-4.147,3.011l28.431,39.393a4.111,4.111,0,0,1,.685,3.353,4.2,4.2,0,0,1-2.037,2.74C46.443,87.977,12.207,140.206,8.565,198.223Z" transform="translate(0.001 0.019)"/><path class="d" d="M157.918,87.8a22.716,22.716,0,0,1-22.7-22.7,24.032,24.032,0,0,1,.27-3.606,4.17,4.17,0,1,1,8.239,1.3,16.338,16.338,0,0,0-.18,2.29,14.423,14.423,0,0,0,25.1,9.537,4.169,4.169,0,1,1,6.22,5.553A22.7,22.7,0,0,1,157.918,87.8Z" transform="translate(108.566 46.582)"/><path class="d" d="M79.127,87.794a22.752,22.752,0,0,1-16.965-7.608A4.183,4.183,0,0,1,68.4,74.633,14.423,14.423,0,0,0,93.478,65.1a14.007,14.007,0,0,0-.18-2.29,4.17,4.17,0,1,1,8.239-1.3,21.888,21.888,0,0,1,.288,3.606,22.734,22.734,0,0,1-22.7,22.68Z" transform="translate(49.185 46.59)"/><path class="d" d="M137.013,101.647a4.183,4.183,0,0,1-4-3.047,14.423,14.423,0,0,0-26.737-2.254,15.287,15.287,0,0,0-.829,2.127,4.167,4.167,0,0,1-7.987-2.38,23.439,23.439,0,0,1,1.3-3.389,22.7,22.7,0,0,1,42.277,3.606,4.183,4.183,0,0,1-4.02,5.409Z" transform="translate(78.108 64.143)"/></g></g></svg>