<svg xmlns="http://www.w3.org/2000/svg" xmlns:xlink="http://www.w3.org/1999/xlink" viewBox="0 0 514.923 636.509"><defs><style>.a,.b{fill:#448aff;}.b{opacity:0.78;}.c{opacity:0.17;fill:url(#a);}</style><linearGradient id="a" x1="0.5" x2="0.5" y2="1" gradientUnits="objectBoundingBox"><stop offset="0" stop-color="#2f4c6f"/><stop offset="0.382" stop-color="#1e6f9b"/><stop offset="1" stop-color="#00acec"/></linearGradient></defs><g transform="translate(-1376.606 -1425.789)"><path class="a" d="M-135.187-60.174C-75.008-109.617-14.945-52.64,105.53-52.64s180.886-56.977,241.182-7.534,59.766,155.546,0,197.773S228.12,108.734,107.645,108.734-74.479,179.826-135.187,137.6-195.367-10.73-135.187-60.174Z" transform="translate(1764.036 1624.542) rotate(83)"/><path class="b" d="M-135.187-60.174C-75.008-109.617-14.945-52.64,105.53-52.64s180.886-56.977,241.182-7.534,59.766,155.546,0,197.773S228.12,108.734,107.645,108.734-74.479,179.826-135.187,137.6-195.367-10.73-135.187-60.174Z" transform="matrix(0.438, 0.899, -0.899, 0.438, 1637.299, 1623.264)"/><path class="c" d="M-135.187-60.174C-75.008-109.617-14.945-52.64,105.53-52.64s180.886-56.977,241.182-7.534,59.766,155.546,0,197.773S228.12,108.734,107.645,108.734-74.479,179.826-135.187,137.6-195.367-10.73-135.187-60.174Z" transform="translate(1597.633 1647.547) rotate(60)"/></g></svg>