<svg xmlns="http://www.w3.org/2000/svg" viewBox="0 0 182.399 66.16"><defs><style>.a{fill:#f2f2f2;}.b{fill:none;stroke:#3f3d56;stroke-miterlimit:10;}</style></defs><g transform="translate(0 0.06)"><path class="a" d="M0,66A38.96,38.96,0,0,1,38.9,29.1c1.2,0,2.4.1,3.5.2a51.671,51.671,0,0,1,70.7-18.7,50.828,50.828,0,0,1,18.7,18.7c1-.1,2-.1,3-.1a38.96,38.96,0,0,1,38.9,36.9"/><path class="b" d="M8.1,63A38.96,38.96,0,0,1,47,26.1c1.2,0,2.4.1,3.5.2A51.671,51.671,0,0,1,121.2,7.6,50.83,50.83,0,0,1,140,26.2c1-.1,2-.1,3-.1A38.96,38.96,0,0,1,181.9,63"/></g></svg>