<svg version="1.1" xmlns="http://www.w3.org/2000/svg" xmlns:xlink="http://www.w3.org/1999/xlink" width="612" height="612" style="" xml:space="preserve"><rect id="backgroundrect" width="100%" height="100%" x="0" y="0" fill="none" stroke="none"/>
















<g class="currentLayer" style=""><title>Layer 1</title><g id="svg_1" class="selected" opacity="0.37">
	<path d="M558.3,520.6H53.7C24.1,520.6,0,496.5,0,466.9v-321.8c0-16,4.5-26.2,13.5-30.3c19.1-8.9,49.5,15.7,53.9,19.3l238.3,165.3   l211.6-147.1c2.4-1.7,5.8-1.1,7.5,1.4c1.7,2.4,1.101,5.8-1.399,7.5L308.8,310.4c-1.8,1.301-4.3,1.301-6.2,0L61,142.9   c-0.1-0.1-0.3-0.2-0.4-0.3c-11.1-9.5-32.6-22.6-42.5-18c-6,2.8-7.3,12.7-7.3,20.5v321.7c0,23.699,19.3,42.9,42.9,42.9h504.6   c23.7,0,42.9-19.301,42.9-42.9v-321.7c0-23.7-19.3-42.9-42.9-42.9H124.7c-3,0-5.4-2.4-5.4-5.4s2.4-5.4,5.4-5.4h433.6   c29.601,0,53.7,24.1,53.7,53.7v321.7C612,496.5,587.9,520.6,558.3,520.6z" id="svg_2" opacity="0.37"/>
</g><g id="svg_3" class="selected" opacity="0.37">
</g><g id="svg_4" class="selected" opacity="0.37">
</g><g id="svg_5" class="selected" opacity="0.37">
</g><g id="svg_6" class="selected" opacity="0.37">
</g><g id="svg_7" class="selected" opacity="0.37">
</g><g id="svg_8" class="selected" opacity="0.37">
</g><g id="svg_9" class="selected" opacity="0.37">
</g><g id="svg_10" class="selected" opacity="0.37">
</g><g id="svg_11" class="selected" opacity="0.37">
</g><g id="svg_12" class="selected" opacity="0.37">
</g><g id="svg_13" class="selected" opacity="0.37">
</g><g id="svg_14" class="selected" opacity="0.37">
</g><g id="svg_15" class="selected" opacity="0.37">
</g><g id="svg_16" class="selected" opacity="0.37">
</g><g id="svg_17" class="selected" opacity="0.37">
</g></g></svg>