<svg xmlns="http://www.w3.org/2000/svg" viewBox="0 0 834 113"><defs><style>.cls-1{fill:#fff;}</style></defs><title>Cool</title><g id="Layer_2" data-name="Layer 2"><g id="Layer_14" data-name="Layer 14"><path class="cls-1" d="M99,50.51a8.53,8.53,0,0,0-5.9-2,7.79,7.79,0,0,0-5.25,1.88,8.93,8.93,0,0,0-2.9,5h16.49A7.2,7.2,0,0,0,99,50.51Z"/><path class="cls-1" d="M679.68,60.23a6.67,6.67,0,0,0-4.26,1.2,3.65,3.65,0,0,0-1.49,3,3.31,3.31,0,0,0,1.43,2.82,5.5,5.5,0,0,0,3.32,1.06,7.06,7.06,0,0,0,2.82-.56,7,7,0,0,0,2.2-1.47,6.62,6.62,0,0,0,1.41-2.11,6.48,6.48,0,0,0,.49-2.5,16.25,16.25,0,0,0-2.78-1A12,12,0,0,0,679.68,60.23Z"/><path class="cls-1" d="M288.71,52.89a7.22,7.22,0,0,0-2.43-1.61,7.58,7.58,0,0,0-2.85-.56,7.45,7.45,0,0,0-2.87.56,7.34,7.34,0,0,0-2.41,1.61,7.72,7.72,0,0,0-1.67,2.58,10,10,0,0,0,0,6.93A7.62,7.62,0,0,0,278.15,65a7.52,7.52,0,0,0,8.13,1.61A7.22,7.22,0,0,0,288.71,65a7.49,7.49,0,0,0,1.68-2.58,10.15,10.15,0,0,0,0-6.93A7.59,7.59,0,0,0,288.71,52.89Z"/><path class="cls-1" d="M559.63,60.58a4.72,4.72,0,0,0-2.2,3.93A4.32,4.32,0,0,0,559.22,68a6.61,6.61,0,0,0,4.2,1.41,8.6,8.6,0,0,0,6.07-2.52A7.91,7.91,0,0,0,572.17,61a11.14,11.14,0,0,0-7-2A9.14,9.14,0,0,0,559.63,60.58Z"/><path class="cls-1" d="M254.91,52.89a7.32,7.32,0,0,0-2.43-1.61,7.61,7.61,0,0,0-5.73,0,7.29,7.29,0,0,0-2.4,1.61,7.74,7.74,0,0,0-1.68,2.58,10.15,10.15,0,0,0,0,6.93A7.64,7.64,0,0,0,244.35,65a7.35,7.35,0,0,0,5.28,2.17A7.49,7.49,0,0,0,254.91,65a7.47,7.47,0,0,0,1.67-2.58,10,10,0,0,0,0-6.93A7.57,7.57,0,0,0,254.91,52.89Z"/><path class="cls-1" d="M138,48.55a8.43,8.43,0,0,0-6.51,2.93,10.69,10.69,0,0,0-2.65,7.46,10.55,10.55,0,0,0,2.65,7.45A8.4,8.4,0,0,0,138,69.32a8.24,8.24,0,0,0,6.51-2.87,10.67,10.67,0,0,0,2.64-7.51,10.73,10.73,0,0,0-2.64-7.46A8.31,8.31,0,0,0,138,48.55Z"/><path class="cls-1" d="M171.69,48.55A8.86,8.86,0,0,0,165,51.48a10.46,10.46,0,0,0-2.7,7.46,10.53,10.53,0,0,0,2.7,7.51,9.23,9.23,0,0,0,13.38,0,10.53,10.53,0,0,0,2.7-7.51,10.46,10.46,0,0,0-2.7-7.46A8.86,8.86,0,0,0,171.69,48.55Z"/><path class="cls-1" d="M440.71,48.55a8.43,8.43,0,0,0-6.51,2.93,10.69,10.69,0,0,0-2.65,7.46,10.55,10.55,0,0,0,2.65,7.45,8.4,8.4,0,0,0,6.51,2.93,8.24,8.24,0,0,0,6.51-2.87,10.67,10.67,0,0,0,2.64-7.51,10.73,10.73,0,0,0-2.64-7.46A8.31,8.31,0,0,0,440.71,48.55Z"/><path class="cls-1" d="M759.11,51.78A6.71,6.71,0,0,0,757,50.43a7.68,7.68,0,0,0-3-.53,7,7,0,0,0-4.34,1.41A7.46,7.46,0,0,0,747,55.24H760.9a5,5,0,0,0-.5-1.7A5.73,5.73,0,0,0,759.11,51.78Z"/><path class="cls-1" d="M822,0H12A12,12,0,0,0,0,12v89a12,12,0,0,0,12,12H822a12,12,0,0,0,12-12V12A12,12,0,0,0,822,0ZM798,31.29h5.4V44.56l-.59,15.73h-4.22L798,44.56Zm-735,42-9-27.7h-.23l-9,27.7H39.12l-11.68-42h5.64l8.86,33h.23l9.1-27.4h5l9.09,27.4h.24l8.39-33h5.63l-11.21,42Zm44.19-13.38H84.55a9.33,9.33,0,0,0,2.81,6.81,9,9,0,0,0,6.46,2.58q5.16,0,8.1-5.16l4.81,2.35a14.36,14.36,0,0,1-5.37,5.69,14.85,14.85,0,0,1-7.78,2,13.73,13.73,0,0,1-10.44-4.34,15.33,15.33,0,0,1-4.11-11A15.63,15.63,0,0,1,83,48a13.21,13.21,0,0,1,10.21-4.37,13.1,13.1,0,0,1,10.18,4.14q3.8,4.13,3.79,11.59Zm45.13,13.38H147.1v-4h-.23a10.11,10.11,0,0,1-4,3.58,12.4,12.4,0,0,1-5.78,1.35,12.61,12.61,0,0,1-9.68-4.46,15.78,15.78,0,0,1-4-10.85,15.79,15.79,0,0,1,4-10.86,12.64,12.64,0,0,1,9.68-4.46A12.4,12.4,0,0,1,142.85,45a10.11,10.11,0,0,1,4,3.58h.23l-.23-4V31.29h5.4Zm30-3.4a14,14,0,0,1-10.57,4.34,14.19,14.19,0,0,1-10.62-4.34,15.2,15.2,0,0,1-4.16-11,15.21,15.21,0,0,1,4.16-11,14.23,14.23,0,0,1,10.62-4.34A14,14,0,0,1,182.26,48a15.13,15.13,0,0,1,4.22,11A15,15,0,0,1,182.26,69.91Zm44.1,2a14.5,14.5,0,0,1-8.42,2.32,16.1,16.1,0,0,1-6.14-1.14,14.32,14.32,0,0,1-4.81-3.2,14.94,14.94,0,0,1-3.17-4.84,16,16,0,0,1-1.14-6.13,16.32,16.32,0,0,1,1.14-6.17,14.24,14.24,0,0,1,8-8,16.1,16.1,0,0,1,6.14-1.14,14.68,14.68,0,0,1,8.39,2.29,13.56,13.56,0,0,1,5,5.92l-7,2.94a7.55,7.55,0,0,0-2.56-3,6.88,6.88,0,0,0-3.9-1,7.09,7.09,0,0,0-2.87.59A7.29,7.29,0,0,0,212.57,53,7.37,7.37,0,0,0,211,55.53a10.28,10.28,0,0,0,0,6.81,7.37,7.37,0,0,0,1.62,2.58A7.14,7.14,0,0,0,215,66.56a6.92,6.92,0,0,0,2.87.59,7.39,7.39,0,0,0,4.08-1.08,7.68,7.68,0,0,0,2.67-3.14l7,3.05A16,16,0,0,1,226.36,71.93Zm37.38-6.83a14.24,14.24,0,0,1-8,8,17.05,17.05,0,0,1-12.26,0,14.16,14.16,0,0,1-8-8,17.1,17.1,0,0,1,0-12.33,14.45,14.45,0,0,1,3.16-4.84,14.65,14.65,0,0,1,4.82-3.17,17.05,17.05,0,0,1,12.26,0,14.24,14.24,0,0,1,8,8,17.1,17.1,0,0,1,0,12.33Zm33.81,0a14.22,14.22,0,0,1-8,8,17.05,17.05,0,0,1-12.26,0,14.24,14.24,0,0,1-8-8,17.1,17.1,0,0,1,0-12.33,14.24,14.24,0,0,1,8-8,17.05,17.05,0,0,1,12.26,0,14.22,14.22,0,0,1,8,8,17.24,17.24,0,0,1,0,12.33ZM311,73.31h-7.69v-42H311Zm30.86.47A8.22,8.22,0,0,1,336,71.61a8.06,8.06,0,0,1-2.37-6V49.49h-5.05V44.56h5.05V35.75h5.4v8.81h7v4.93h-7V63.81c0,1.91.37,3.22,1.11,3.9a3.66,3.66,0,0,0,2.53,1,5.3,5.3,0,0,0,1.26-.15,6.35,6.35,0,0,0,1.14-.38l1.7,4.81A14.43,14.43,0,0,1,341.88,73.78ZM377,73.31h-5.4v-17q0-7.74-6.87-7.74a7,7,0,0,0-5.55,2.73A9.71,9.71,0,0,0,357,57.64V73.31h-5.4v-42H357V44.56l-.23,4H357A9.68,9.68,0,0,1,360.75,45a10.83,10.83,0,0,1,5.31-1.41q5.28,0,8.13,3c1.9,2,2.85,4.88,2.85,8.6Zm12.2,0h-5.4V44.56h5.4Zm0-36a3.82,3.82,0,0,1-5.4-5.4,3.82,3.82,0,1,1,5.4,5.4Zm32.51,36h-5.4V55.59q-.17-7-7.1-7a6.76,6.76,0,0,0-5.4,2.61,9.49,9.49,0,0,0-2.17,6.25v15.9h-5.4V44.56h5.17v4h.23A9.61,9.61,0,0,1,405.47,45a10.83,10.83,0,0,1,5.31-1.41q5.28,0,8.13,3c1.89,2,2.84,4.88,2.84,8.6ZM455,72.08q0,6.93-3.93,10.86a14.3,14.3,0,0,1-10.57,4,16.13,16.13,0,0,1-4.52-.62,14.72,14.72,0,0,1-3.84-1.73,12.31,12.31,0,0,1-3-2.64,11,11,0,0,1-1.88-3.4l5.1-2.12a8,8,0,0,0,3.06,4,8.52,8.52,0,0,0,5,1.53,8.93,8.93,0,0,0,6.87-2.64,10.27,10.27,0,0,0,2.46-7.28V69.32h-.23a10.62,10.62,0,0,1-4.14,3.61,12.37,12.37,0,0,1-5.66,1.32,12.68,12.68,0,0,1-9.68-4.4,15.86,15.86,0,0,1-4-10.91,15.65,15.65,0,0,1,4-10.86,12.64,12.64,0,0,1,9.68-4.46,12.37,12.37,0,0,1,5.66,1.32,10.62,10.62,0,0,1,4.14,3.61h.23v-4H455Zm25-.41a14.28,14.28,0,0,1-15.9.32,12.4,12.4,0,0,1-4.7-5.95L464.24,64a8.93,8.93,0,0,0,3.08,4,7.49,7.49,0,0,0,4.43,1.44,7.86,7.86,0,0,0,4.32-1.11,3.19,3.19,0,0,0,1.73-2.65q0-2.75-4.23-4.05l-4.93-1.23q-8.38-2.11-8.39-8.1a7.47,7.47,0,0,1,3.2-6.3,14.65,14.65,0,0,1,15.08-.56,9.87,9.87,0,0,1,4.32,4.87l-4.82,2a6,6,0,0,0-2.67-2.84,8.3,8.3,0,0,0-4.13-1,6.92,6.92,0,0,0-3.79,1.06,3,3,0,0,0-1.67,2.58c0,1.64,1.54,2.82,4.63,3.52l4.35,1.12q8.56,2.1,8.57,8.62A7.8,7.8,0,0,1,480,71.67Zm32.28,2.11a8.18,8.18,0,0,1-5.84-2.17,8,8,0,0,1-2.38-6V49.49h-5V44.56h5V35.75h5.4v8.81h7v4.93h-7V63.81c0,1.91.37,3.22,1.11,3.9a3.68,3.68,0,0,0,2.53,1,5.3,5.3,0,0,0,1.26-.15,6.35,6.35,0,0,0,1.14-.38L517.24,73A14.51,14.51,0,0,1,512.31,73.78Zm35.15-.47h-5.4v-17q0-7.74-6.87-7.74a6.92,6.92,0,0,0-5.54,2.73,9.66,9.66,0,0,0-2.26,6.36V73.31H522v-42h5.4V44.56l-.24,4h.24A9.58,9.58,0,0,1,531.17,45a10.83,10.83,0,0,1,5.31-1.41q5.28,0,8.13,3c1.9,2,2.85,4.88,2.85,8.6Zm29.87,0h-5.16v-4h-.24A10.29,10.29,0,0,1,563,74.25a11.62,11.62,0,0,1-8-2.81,9,9,0,0,1-3.2-7,8.55,8.55,0,0,1,3.37-7.1c2.25-1.76,5.26-2.64,9-2.64a16,16,0,0,1,7.93,1.76V55.18a6.13,6.13,0,0,0-2.24-4.78,7.63,7.63,0,0,0-5.22-2,8.27,8.27,0,0,0-7.16,3.82l-4.75-3q3.93-5.62,11.62-5.63,6,0,9.45,3.2a11.37,11.37,0,0,1,3.46,8.77Zm16.9.47a8.2,8.2,0,0,1-5.84-2.17,8.06,8.06,0,0,1-2.38-6V49.49h-5V44.56h5V35.75h5.4v8.81h7.05v4.93h-7.05V63.81c0,1.91.38,3.22,1.12,3.9a3.63,3.63,0,0,0,2.52,1,5.3,5.3,0,0,0,1.26-.15,6.2,6.2,0,0,0,1.15-.38l1.7,4.81A14.47,14.47,0,0,1,594.23,73.78Zm67.61-.47h-7.69V56.59c0-3.91-1.61-5.87-4.81-5.87a5.41,5.41,0,0,0-2.7.67,6,6,0,0,0-2,1.82,9,9,0,0,0-1.23,2.73,12.84,12.84,0,0,0-.44,3.41v14h-7.69V56.59q0-5.87-5-5.87a5,5,0,0,0-2.58.67,6,6,0,0,0-1.88,1.82,8.93,8.93,0,0,0-1.17,2.73,13.74,13.74,0,0,0-.41,3.41v14h-7.69V44.56h7.22v3.75h.47a10,10,0,0,1,3.67-3.4A10.34,10.34,0,0,1,633,43.62a9.61,9.61,0,0,1,5.52,1.52,8.63,8.63,0,0,1,3.17,3.76,11.83,11.83,0,0,1,3.81-3.73,11.08,11.08,0,0,1,6-1.55,11.31,11.31,0,0,1,4.58.85,8.5,8.5,0,0,1,3.19,2.38,10.2,10.2,0,0,1,1.91,3.66,16.17,16.17,0,0,1,.65,4.67Zm31.33,0H685.6v-3h-.47a12.84,12.84,0,0,1-3.25,2.82,9.26,9.26,0,0,1-4.9,1.17,11.89,11.89,0,0,1-4.2-.73,10.79,10.79,0,0,1-3.43-2,9,9,0,0,1-2.29-3.11,9.53,9.53,0,0,1-.82-4,9,9,0,0,1,.88-4,9.27,9.27,0,0,1,2.46-3.08,11.15,11.15,0,0,1,3.73-2,15.45,15.45,0,0,1,4.67-.68,20.39,20.39,0,0,1,4.63.44,22.37,22.37,0,0,1,3,.91v-.88a4.67,4.67,0,0,0-1.81-3.78,6.88,6.88,0,0,0-4.52-1.5,8.44,8.44,0,0,0-6.75,3.34l-5.58-3.81a15.12,15.12,0,0,1,12.5-5.75q6.69,0,10.21,3.14t3.52,9.3Zm40.41.15a17.32,17.32,0,0,1-3.43.32,10.63,10.63,0,0,1-3.9-.67,8.3,8.3,0,0,1-2.91-1.85q-2.76-2.64-2.76-7.51V51.13h-11V62.28a8.26,8.26,0,0,0,.2,1.85,3,3,0,0,0,.8,1.44,3,3,0,0,0,2.34.94,4.83,4.83,0,0,0,1.41-.18,13.12,13.12,0,0,0,1.29-.47l.53,7.22a12.06,12.06,0,0,1-2.2.56,19.41,19.41,0,0,1-2.49.14,10.73,10.73,0,0,1-3.91-.67,8.35,8.35,0,0,1-2.9-1.85q-2.76-2.64-2.76-7.51V51.13h-5.05V44.56h5.05V35.75h7.69v8.81h11V35.75h7.69v8.81h7v6.57h-7V62.28a7.7,7.7,0,0,0,.21,1.85,2.92,2.92,0,0,0,.79,1.44,3,3,0,0,0,2.35.94,4.25,4.25,0,0,0,2.69-.77l2.18,6.75A12.44,12.44,0,0,1,733.58,73.46Zm34.77-14a3.81,3.81,0,0,0-.06.64,3.3,3.3,0,0,0,0,.65H746.58a8.14,8.14,0,0,0,1,3,7.29,7.29,0,0,0,1.82,2.11,6.88,6.88,0,0,0,2.37,1.23,9.14,9.14,0,0,0,2.65.39,7.51,7.51,0,0,0,4.37-1.21,8.87,8.87,0,0,0,2.73-3l6.39,3.17a16.1,16.1,0,0,1-5.37,5.69,14.9,14.9,0,0,1-8.24,2.17,15.93,15.93,0,0,1-6.08-1.14,14.55,14.55,0,0,1-4.84-3.2,14.7,14.7,0,0,1-3.2-4.84A16,16,0,0,1,739,58.94a15.79,15.79,0,0,1,1.11-5.9A15,15,0,0,1,748,44.85a14.45,14.45,0,0,1,6-1.23,15.75,15.75,0,0,1,6.17,1.14,12.72,12.72,0,0,1,4.52,3.17,13.64,13.64,0,0,1,2.75,4.78,18.39,18.39,0,0,1,.94,6Zm23.24-7.75A7.28,7.28,0,0,0,790,51.1a8.91,8.91,0,0,0-2.09-.2,6.46,6.46,0,0,0-2.87.62,6.21,6.21,0,0,0-2.2,1.74,8,8,0,0,0-1.41,2.62,10.42,10.42,0,0,0-.5,3.27V73.31h-7.69V44.56h7.22v4H781a7.29,7.29,0,0,1,1.41-1.94,10,10,0,0,1,2-1.53A11.1,11.1,0,0,1,786.69,44a8.16,8.16,0,0,1,2.5-.4,9.5,9.5,0,0,1,2.61.32,6.74,6.74,0,0,1,1.85.85Zm11.95,20.83a4,4,0,0,1-5.67-5.66,4.07,4.07,0,0,1,5.67,0,4.08,4.08,0,0,1,0,5.66Z"/></g></g></svg>