<svg xmlns="http://www.w3.org/2000/svg" width="1645.814" height="213.049" viewBox="0 0 1645.814 213.049">
  <defs>
    <style>
      .cls-1 {
        fill: #fad2cf;
      }

      .cls-2 {
        fill: #aecbfa;
      }

      .cls-3 {
        fill: #a8dab5;
      }

      .cls-4 {
        fill: #fbbc04;
      }

      .cls-5 {
        fill: #fde293;
      }

      .cls-6 {
        fill: #4285f4;
      }

      .cls-7 {
        fill: #34a853;
      }

      .cls-10, .cls-11, .cls-12, .cls-13, .cls-16, .cls-17, .cls-18, .cls-19, .cls-20, .cls-21, .cls-22, .cls-24, .cls-25, .cls-27, .cls-8 {
        fill: none;
      }

      .cls-8 {
        stroke: #0d652d;
      }

      .cls-10, .cls-11, .cls-12, .cls-13, .cls-16, .cls-17, .cls-18, .cls-19, .cls-20, .cls-21, .cls-22, .cls-24, .cls-25, .cls-8 {
        stroke-miterlimit: 10;
      }

      .cls-10, .cls-11, .cls-12, .cls-8 {
        stroke-width: 0.938px;
      }

      .cls-9 {
        fill: #ea4335;
      }

      .cls-10 {
        stroke: #e37400;
      }

      .cls-11 {
        stroke: #174ea6;
      }

      .cls-12, .cls-13 {
        stroke: #a50e0e;
      }

      .cls-13 {
        stroke-width: 0.934px;
      }

      .cls-14 {
        fill: #434449;
      }

      .cls-15 {
        fill: #f8c7c4;
      }

      .cls-16 {
        stroke: #ffd97d;
      }

      .cls-16, .cls-17, .cls-19, .cls-20, .cls-21, .cls-22, .cls-25 {
        stroke-width: 3px;
      }

      .cls-17 {
        stroke: #fdab00;
      }

      .cls-19 {
        stroke: #9dbee4;
      }

      .cls-20 {
        stroke: #a0d0a5;
      }

      .cls-20, .cls-21, .cls-22, .cls-25 {
        stroke-linecap: round;
      }

      .cls-21 {
        stroke: #4fa13a;
      }

      .cls-22 {
        stroke: #d23933;
      }

      .cls-23 {
        fill: #9dbee4;
      }

      .cls-24, .cls-25 {
        stroke: #287fc3;
      }

      .cls-24 {
        stroke-width: 0.971px;
      }

      .cls-26, .cls-28 {
        stroke: none;
      }

      .cls-28 {
        fill: #d23933;
      }
    </style>
  </defs>
  <g id="DevFest_Header" data-name="DevFest Header" transform="translate(-138.939 -182.525)">
    <g id="new_dvfst_l0g0" transform="translate(601.396 182.525)">
      <g id="Group_81" data-name="Group 81">
        <g id="Group_74" data-name="Group 74" transform="translate(346.398)">
          <rect id="Rectangle_22" data-name="Rectangle 22" class="cls-1" width="39.08" height="96.229"/>
        </g>
        <g id="Group_75" data-name="Group 75" transform="translate(653.575)">
          <rect id="Rectangle_23" data-name="Rectangle 23" class="cls-2" width="39.08" height="96.229"/>
        </g>
        <g id="Group_76" data-name="Group 76">
          <rect id="Rectangle_24" data-name="Rectangle 24" class="cls-3" width="39.08" height="96.229"/>
        </g>
        <path id="Path_118" data-name="Path 118" class="cls-4" d="M113.558,96.229h0V0h0A34.433,34.433,0,0,0,79.1,34.458V61.912A34.4,34.4,0,0,0,113.558,96.229Z" transform="translate(31.697)"/>
        <g id="Group_77" data-name="Group 77" transform="translate(145.254)">
          <rect id="Rectangle_25" data-name="Rectangle 25" class="cls-5" width="43.702" height="96.229"/>
        </g>
        <g id="Group_78" data-name="Group 78" transform="translate(212.489)">
          <path id="Path_119" data-name="Path 119" class="cls-2" d="M151.7,0l55.608,96.229V0Z" transform="translate(-151.7)"/>
        </g>
        <path id="Path_120" data-name="Path 120" class="cls-6" d="M247.008,0H191.4V96.229h0Z" transform="translate(76.697)"/>
        <path id="Path_121" data-name="Path 121" class="cls-7" d="M27.9,0a48.115,48.115,0,1,1,0,96.229Z" transform="translate(11.18)"/>
        <path id="Path_122" data-name="Path 122" class="cls-8" d="M33.51,72.59a29.7,29.7,0,1,0,0-59.39H13.9V36.032" transform="translate(5.57 5.289)"/>
        <path id="Path_123" data-name="Path 123" class="cls-4" d="M424.939,72.277a36.139,36.139,0,0,1,0-72.277Z" transform="translate(155.799)"/>
        <rect id="Rectangle_26" data-name="Rectangle 26" class="cls-9" width="32.076" height="24.092" transform="translate(385.338)"/>
        <rect id="Rectangle_27" data-name="Rectangle 27" class="cls-6" width="24.513" height="24.092" transform="translate(629.063)"/>
        <rect id="Rectangle_28" data-name="Rectangle 28" class="cls-6" width="24.513" height="24.092" transform="translate(692.655)"/>
        <rect id="Rectangle_29" data-name="Rectangle 29" class="cls-9" width="24.092" height="24.092" transform="translate(385.338 48.185)"/>
        <rect id="Rectangle_30" data-name="Rectangle 30" class="cls-4" width="32.076" height="24.092" transform="translate(580.738)"/>
        <g id="Group_79" data-name="Group 79" transform="translate(548.661 24.092)">
          <path id="Path_124" data-name="Path 124" class="cls-5" d="M423.776,17.2V65.385H391.7V89.477h32.076a36.139,36.139,0,1,0,0-72.277Z" transform="translate(-391.7 -17.2)"/>
        </g>
        <path id="Path_125" data-name="Path 125" class="cls-10" d="M404.684,49.921A24.07,24.07,0,0,1,421.492,8.6h18.069" transform="translate(159.245 3.446)"/>
        <line id="Line_19" data-name="Line 19" class="cls-11" x2="63.453" transform="translate(641.389 12.326)"/>
        <path id="Path_126" data-name="Path 126" class="cls-7" d="M348.858,96.229h0V0h0A34.433,34.433,0,0,0,314.4,34.458V61.912A34.493,34.493,0,0,0,348.858,96.229Z" transform="translate(125.986)"/>
        <g id="Group_80" data-name="Group 80" transform="translate(474.843)">
          <rect id="Rectangle_31" data-name="Rectangle 31" class="cls-3" width="43.702" height="96.229"/>
        </g>
        <line id="Line_20" data-name="Line 20" class="cls-8" x1="6.303" transform="translate(457.895 33.617)"/>
        <line id="Line_21" data-name="Line 21" class="cls-8" x1="42.722" transform="translate(475.824 33.617)"/>
        <line id="Line_22" data-name="Line 22" class="cls-8" x1="12.747" transform="translate(505.799 62.612)"/>
        <line id="Line_23" data-name="Line 23" class="cls-8" x1="9.805" transform="translate(484.368 62.612)"/>
        <circle id="Ellipse_3" data-name="Ellipse 3" class="cls-11" cx="6.163" cy="6.163" r="6.163" transform="translate(261.934 50.706)"/>
        <circle id="Ellipse_4" data-name="Ellipse 4" class="cls-11" cx="6.163" cy="6.163" r="6.163" transform="translate(283.365 13.587)"/>
        <line id="Line_24" data-name="Line 24" class="cls-11" x1="15.408" y2="26.474" transform="translate(271.039 25.073)"/>
        <circle id="Ellipse_5" data-name="Ellipse 5" class="cls-11" cx="6.163" cy="6.163" r="6.163" transform="translate(240.503 13.587)"/>
        <line id="Line_25" data-name="Line 25" class="cls-11" x2="15.268" y2="26.474" transform="translate(249.748 25.073)"/>
        <rect id="Rectangle_32" data-name="Rectangle 32" class="cls-8" width="9.805" height="9.805" transform="translate(19.553 41.109) rotate(45)"/>
        <rect id="Rectangle_33" data-name="Rectangle 33" class="cls-8" width="8.264" height="8.264" transform="translate(499.927 56.857) rotate(45)"/>
        <rect id="Rectangle_34" data-name="Rectangle 34" class="cls-8" width="8.264" height="8.264" transform="translate(470.108 27.885) rotate(45)"/>
        <circle id="Ellipse_6" data-name="Ellipse 6" class="cls-11" cx="5.883" cy="5.883" r="5.883" transform="translate(667.302 26.754)"/>
        <circle id="Ellipse_7" data-name="Ellipse 7" class="cls-11" cx="5.883" cy="5.883" r="5.883" transform="translate(667.302 49.025)"/>
        <circle id="Ellipse_8" data-name="Ellipse 8" class="cls-11" cx="5.883" cy="5.883" r="5.883" transform="translate(667.302 71.437)"/>
        <path id="Path_127" data-name="Path 127" class="cls-10" d="M406.5,73.885h11.346a24.092,24.092,0,1,0,0-48.185" transform="translate(162.892 10.298)"/>
        <path id="Path_128" data-name="Path 128" class="cls-12" d="M285.993,42.9H261.2V67.693" transform="translate(104.668 17.191)"/>
        <path id="Path_129" data-name="Path 129" class="cls-13" d="M296.778,8.6H261.2V44.038" transform="translate(104.668 3.446)"/>
        <line id="Line_26" data-name="Line 26" class="cls-10" x1="43.702" transform="translate(145.114 33.617)"/>
        <line id="Line_27" data-name="Line 27" class="cls-10" x1="43.702" transform="translate(145.114 48.185)"/>
        <line id="Line_28" data-name="Line 28" class="cls-10" x1="43.702" transform="translate(145.114 62.612)"/>
      </g>
      <g id="Group_82" data-name="Group 82" transform="translate(0 126.765)">
        <path id="Path_130" data-name="Path 130" class="cls-14" d="M27.734,91.8l23.952,63.733H47.764L39.22,133.121H12.606L3.922,155.533H0L24.513,91.8Zm10.225,37.959L26.053,97.4,14.007,129.759Z" transform="translate(0 -89.979)"/>
        <path id="Path_131" data-name="Path 131" class="cls-14" d="M60.9,90.5h3.362v65.554H60.9Z" transform="translate(24.404 -90.5)"/>
        <path id="Path_132" data-name="Path 132" class="cls-14" d="M129.461,152.685v7a9.037,9.037,0,0,1-1.681,5.463,13.71,13.71,0,0,1-4.342,3.642,20.288,20.288,0,0,1-6.023,1.961,35.043,35.043,0,0,1-6.583.7h-3.362a36.521,36.521,0,0,1-6.723-.7,18.7,18.7,0,0,1-5.743-2.1,13.115,13.115,0,0,1-4.062-3.782,10.626,10.626,0,0,1-1.541-5.743c0-3.5.84-6.163,2.521-7.844s4.2-2.8,7.564-3.362a11.924,11.924,0,0,1-4.342-2.942,6.944,6.944,0,0,1-1.681-4.9,6.108,6.108,0,0,1,4.762-6.023,10.275,10.275,0,0,1-5.183-4.482,14.009,14.009,0,0,1-1.681-7v-4.2a11.967,11.967,0,0,1,1.4-6.023A14.13,14.13,0,0,1,96.544,108a14.845,14.845,0,0,1,5.6-2.661,25.8,25.8,0,0,1,6.583-.98,23.931,23.931,0,0,1,10.786,2.521l10.225-3.082.98,3.362-8.264,2.521a24.487,24.487,0,0,1,2.521,4.062,9.961,9.961,0,0,1,.98,4.482v4.482a12.328,12.328,0,0,1-1.4,6.023,13.42,13.42,0,0,1-3.642,4.342,15.83,15.83,0,0,1-5.323,2.661,23.593,23.593,0,0,1-6.3.84,34.14,34.14,0,0,1-3.782-.14,26.147,26.147,0,0,1-3.5-.56,8.9,8.9,0,0,0-3.5,1.541,3.543,3.543,0,0,0-1.541,3.082,3.911,3.911,0,0,0,.84,2.521,6.594,6.594,0,0,0,2.1,1.821,21.163,21.163,0,0,0,2.521,1.261c.84.28,1.541.56,2.1.7Zm-13.027,14.988a20.958,20.958,0,0,0,4.482-1.261,9.662,9.662,0,0,0,3.362-2.521,6.346,6.346,0,0,0,1.681-4.062v-4.622l-20.591-5.183c-1.4,0-2.8.28-4.342.42a12.681,12.681,0,0,0-4.062,1.4,8.037,8.037,0,0,0-2.942,2.8,8.66,8.66,0,0,0-1.121,4.622,6.807,6.807,0,0,0,1.261,4.2,9.167,9.167,0,0,0,3.362,2.661,16.326,16.326,0,0,0,4.622,1.541,32.328,32.328,0,0,0,5.183.42h4.062ZM94.863,122.71a9.165,9.165,0,0,0,3.782,7.564c2.521,1.821,6.023,2.8,10.505,2.8a20.285,20.285,0,0,0,5.183-.56,13.522,13.522,0,0,0,4.342-1.821,9.23,9.23,0,0,0,2.941-3.222,9.968,9.968,0,0,0,1.121-4.762v-4.622a9.54,9.54,0,0,0-1.541-4.622,11.262,11.262,0,0,0-3.082-3.222,17.718,17.718,0,0,0-4.342-1.961,19.917,19.917,0,0,0-5.043-.7,20.833,20.833,0,0,0-5.043.7,16.136,16.136,0,0,0-4.482,1.961,9.656,9.656,0,0,0-3.082,3.222,8,8,0,0,0-1.261,4.482v4.762Z" transform="translate(35.824 -85.17)"/>
        <path id="Path_133" data-name="Path 133" class="cls-14" d="M142.2,92.5h4.342v5.323H142.2Zm.56,17.509h3.362v45.243H142.76Z" transform="translate(56.982 -89.699)"/>
        <path id="Path_134" data-name="Path 134" class="cls-14" d="M190.71,148.042a28.236,28.236,0,0,0,5.043-.42,22.119,22.119,0,0,0,3.922-1.121,14.35,14.35,0,0,0,2.942-1.4,10.222,10.222,0,0,0,1.821-1.261l1.961,2.521a18.934,18.934,0,0,1-7.284,3.782,29.65,29.65,0,0,1-8.264,1.261,26.36,26.36,0,0,1-7.424-.981,18.432,18.432,0,0,1-6.3-2.8,14.645,14.645,0,0,1-4.342-4.9,13.473,13.473,0,0,1-1.681-6.864V118.908a12.157,12.157,0,0,1,1.4-5.883,15.227,15.227,0,0,1,3.782-4.622,18.794,18.794,0,0,1,5.743-3.082,23.834,23.834,0,0,1,7.144-1.121,21.362,21.362,0,0,1,6.864,1.121,16.322,16.322,0,0,1,5.323,2.941,12.67,12.67,0,0,1,3.5,4.622,14.049,14.049,0,0,1,1.261,6.023v5.6L174.6,128.993v6.723a9.925,9.925,0,0,0,1.4,5.463,10.455,10.455,0,0,0,3.642,3.782,15.515,15.515,0,0,0,5.183,2.1A13.356,13.356,0,0,0,190.71,148.042Zm-1.541-40.2a18.974,18.974,0,0,0-5.743.84,14.393,14.393,0,0,0-4.622,2.381,12.64,12.64,0,0,0-3.222,3.5,8.22,8.22,0,0,0-1.121,4.482v6.723l28.154-3.922v-2.661a9.533,9.533,0,0,0-1.121-4.342,14.059,14.059,0,0,0-2.8-3.642,15.532,15.532,0,0,0-4.2-2.381A13.807,13.807,0,0,0,189.169,107.842Z" transform="translate(68.563 -85.01)"/>
        <path id="Path_135" data-name="Path 135" class="cls-14" d="M236.588,104.4a17.75,17.75,0,0,1,4.762.56l-.56,3.782a10.886,10.886,0,0,0-2.241-.28,12.819,12.819,0,0,0-2.241-.14,9.393,9.393,0,0,0-5.183,1.541,12.638,12.638,0,0,0-3.782,3.922,16.011,16.011,0,0,0-2.241,5.463,21.326,21.326,0,0,0-.84,5.883v25.493H220.9V105.24h3.362v10.365a18.193,18.193,0,0,1,1.821-4.2,14.383,14.383,0,0,1,2.661-3.642,10.689,10.689,0,0,1,3.5-2.521A11.415,11.415,0,0,1,236.588,104.4Z" transform="translate(88.519 -84.93)"/>
        <path id="Path_136" data-name="Path 136" class="cls-14" d="M271.949,125.271c1.961.7,3.782,1.4,5.6,2.1a21.851,21.851,0,0,1,4.762,2.521,11.427,11.427,0,0,1,3.362,3.5,9.8,9.8,0,0,1,1.261,5.183,13,13,0,0,1-1.261,5.883,10.457,10.457,0,0,1-3.5,3.922,15.726,15.726,0,0,1-5.183,2.241,22.9,22.9,0,0,1-6.3.7,24.265,24.265,0,0,1-8.965-1.681,22.136,22.136,0,0,1-7.424-4.9l1.541-2.8a18.886,18.886,0,0,0,6.723,4.482,23.834,23.834,0,0,0,8.124,1.541,25.587,25.587,0,0,0,4.9-.42A9.466,9.466,0,0,0,279.653,146a7.283,7.283,0,0,0,2.661-2.8,8.844,8.844,0,0,0,.981-4.482,6.983,6.983,0,0,0-1.121-4.062,9.648,9.648,0,0,0-3.082-2.661,19.035,19.035,0,0,0-4.2-1.821c-1.541-.56-3.082-.98-4.622-1.541-1.821-.7-3.642-1.4-5.323-1.961a19.377,19.377,0,0,1-4.482-2.381,11.614,11.614,0,0,1-3.082-3.362,10.147,10.147,0,0,1-1.121-4.9,11.979,11.979,0,0,1,1.121-5.323,8.965,8.965,0,0,1,3.222-3.642,13.159,13.159,0,0,1,4.762-1.961,26.041,26.041,0,0,1,5.883-.7,32.493,32.493,0,0,1,3.362.28,27.646,27.646,0,0,1,3.642.98,26.068,26.068,0,0,1,3.5,1.4,27.472,27.472,0,0,1,2.941,1.681l-1.541,3.642a37.394,37.394,0,0,0-5.743-3.082,15.935,15.935,0,0,0-6.3-1.4,23.61,23.61,0,0,0-4.622.42,12.342,12.342,0,0,0-3.642,1.261,6.473,6.473,0,0,0-2.381,2.381,8.349,8.349,0,0,0-.84,4.062,6.375,6.375,0,0,0,1.121,3.782,9.762,9.762,0,0,0,2.8,2.521,16.557,16.557,0,0,0,3.922,1.681A41.847,41.847,0,0,1,271.949,125.271Z" transform="translate(101.903 -84.93)"/>
        <path id="Path_137" data-name="Path 137" class="cls-14" d="M350.53,126.357c-5.463,3.082-9.665,6.583-12.466,10.505-2.8,4.062-4.2,8.965-4.2,14.988h34.318v3.362H330.5v-1.681a41.843,41.843,0,0,1,.98-9.665,26.682,26.682,0,0,1,2.942-7.7,26.219,26.219,0,0,1,5.463-6.443,53.078,53.078,0,0,1,7.984-5.6c1.821-.98,3.642-2.1,5.463-3.222a32.233,32.233,0,0,0,4.762-3.5,15.87,15.87,0,0,0,3.362-4.2,11.066,11.066,0,0,0,1.261-5.323,13.13,13.13,0,0,0-.98-5.463,9.38,9.38,0,0,0-2.8-3.642,11.863,11.863,0,0,0-4.2-2.1,22.413,22.413,0,0,0-5.463-.7,17.4,17.4,0,0,0-4.622.56A23.234,23.234,0,0,0,340.3,98.2a31.672,31.672,0,0,0-3.642,2.241,16.83,16.83,0,0,0-2.8,2.521l-2.241-2.521a27.363,27.363,0,0,1,7.844-5.6A21.431,21.431,0,0,1,349.27,92.6a23.879,23.879,0,0,1,6.443.84,16.555,16.555,0,0,1,5.463,2.661,12.385,12.385,0,0,1,3.642,4.762,15.244,15.244,0,0,1,1.4,7,13.067,13.067,0,0,1-1.4,6.3,20.974,20.974,0,0,1-3.642,5.043,27.1,27.1,0,0,1-5.043,3.922C354.312,124.116,352.351,125.237,350.53,126.357Z" transform="translate(132.437 -89.658)"/>
        <path id="Path_138" data-name="Path 138" class="cls-14" d="M404.512,91.8a27.5,27.5,0,0,1,8.264,1.261,21.549,21.549,0,0,1,7.144,3.642,17.108,17.108,0,0,1,5.043,5.883,16.6,16.6,0,0,1,1.961,8.124v27.174a17.229,17.229,0,0,1-7,14.007,21.256,21.256,0,0,1-7.144,3.5,27.719,27.719,0,0,1-16.528,0,24.255,24.255,0,0,1-7.144-3.5,17.229,17.229,0,0,1-7-14.007V110.71a16.994,16.994,0,0,1,1.961-8.124A20.143,20.143,0,0,1,389.1,96.7a24.556,24.556,0,0,1,7.144-3.642A27.5,27.5,0,0,1,404.512,91.8Zm18.91,18.77a13.309,13.309,0,0,0-1.681-6.723,14.178,14.178,0,0,0-4.342-4.762,17.725,17.725,0,0,0-6.163-2.8,28.99,28.99,0,0,0-6.863-.981,24.145,24.145,0,0,0-13.027,3.782A14.179,14.179,0,0,0,387,103.846a13.31,13.31,0,0,0-1.681,6.723v27.174A13.309,13.309,0,0,0,387,144.467a14.178,14.178,0,0,0,4.342,4.762,17.725,17.725,0,0,0,6.163,2.8,28.991,28.991,0,0,0,6.864.98,22.6,22.6,0,0,0,6.863-.98,18.977,18.977,0,0,0,6.163-2.8,14.179,14.179,0,0,0,4.342-4.762,13.309,13.309,0,0,0,1.681-6.723Z" transform="translate(153.114 -89.979)"/>
        <path id="Path_139" data-name="Path 139" class="cls-14" d="M455.468,95.862H440.2V92.5h18.77v62.752h-3.362V95.862Z" transform="translate(176.396 -89.699)"/>
        <path id="Path_140" data-name="Path 140" class="cls-14" d="M503.95,91.8a23.629,23.629,0,0,1,7,1.121A18.876,18.876,0,0,1,516.976,96a16.129,16.129,0,0,1,4.342,4.9A12.278,12.278,0,0,1,523,107.348v33.757a12.948,12.948,0,0,1-1.681,6.723,16.128,16.128,0,0,1-4.342,4.9,18.258,18.258,0,0,1-6.023,2.8,29.134,29.134,0,0,1-7,.98,25.789,25.789,0,0,1-4.622-.42,29.306,29.306,0,0,1-4.763-1.121,40.341,40.341,0,0,1-4.342-1.821,13.59,13.59,0,0,1-3.5-2.661l2.521-2.661c.7.56,1.541,1.121,2.381,1.821a30.562,30.562,0,0,0,3.082,1.681,17.248,17.248,0,0,0,4.062,1.261,27.959,27.959,0,0,0,5.183.56,24.546,24.546,0,0,0,5.6-.7,16.034,16.034,0,0,0,5.043-2.1,10.066,10.066,0,0,0,3.5-3.782,11.279,11.279,0,0,0,1.4-5.463V127.1a17.249,17.249,0,0,1-7,4.9,22.481,22.481,0,0,1-8.4,1.681,23.513,23.513,0,0,1-7-.98,18.976,18.976,0,0,1-6.163-2.8,14.646,14.646,0,0,1-4.342-4.9,13.473,13.473,0,0,1-1.681-6.864V107.348a12.637,12.637,0,0,1,1.681-6.443,17.952,17.952,0,0,1,4.342-4.9,19.586,19.586,0,0,1,6.163-3.082A22.024,22.024,0,0,1,503.95,91.8ZM519.5,107.208a8.533,8.533,0,0,0-1.4-5.043,12.841,12.841,0,0,0-3.5-3.782A18.62,18.62,0,0,0,509.553,96a19.412,19.412,0,0,0-5.6-.84,20.808,20.808,0,0,0-10.786,3.082,11.748,11.748,0,0,0-3.642,3.782,9.291,9.291,0,0,0-1.4,5.183v10.786a10.416,10.416,0,0,0,1.4,5.6,11.748,11.748,0,0,0,3.642,3.782,16.035,16.035,0,0,0,5.043,2.1,25.781,25.781,0,0,0,5.743.7,18.719,18.719,0,0,0,5.6-.84,20.84,20.84,0,0,0,5.043-2.381,10.066,10.066,0,0,0,3.5-3.782,10.6,10.6,0,0,0,1.4-5.183Z" transform="translate(194.308 -89.979)"/>
      </g>
    </g>
    <g id="Hand">
      <rect id="Rectangle_35" data-name="Rectangle 35" class="cls-15" width="49.426" height="98.675" transform="translate(283.817 202.753)"/>
      <g id="Group_84" data-name="Group 84">
        <g id="Ellipse_11" data-name="Ellipse 11" class="cls-16" transform="translate(481.753 204.099)">
          <ellipse class="cls-26" cx="6.271" cy="6.271" rx="6.271" ry="6.271"/>
          <ellipse class="cls-27" cx="6.271" cy="6.271" rx="4.771" ry="4.771"/>
        </g>
        <g id="Ellipse_12" data-name="Ellipse 12" class="cls-16" transform="translate(481.753 228.456)">
          <ellipse class="cls-26" cx="6.271" cy="6.271" rx="6.271" ry="6.271"/>
          <ellipse class="cls-27" cx="6.271" cy="6.271" rx="4.771" ry="4.771"/>
        </g>
        <line id="Line_31" data-name="Line 31" class="cls-17" y1="29.799" transform="translate(525.149 263.965)"/>
        <line id="Line_32" data-name="Line 32" class="cls-17" y1="24.14" transform="translate(512.728 260.192)"/>
        <line id="Line_33" data-name="Line 33" class="cls-17" y1="26.969" transform="translate(500.307 257.363)"/>
        <line id="Line_34" data-name="Line 34" class="cls-17" y1="49.606" transform="translate(487.887 234.726)"/>
        <line id="Line_35" data-name="Line 35" class="cls-17" x1="7.675" y1="28.498" transform="translate(468.958 271.598)"/>
        <path id="Path_142" data-name="Path 142" class="cls-17" d="M331.752,166.6a24.673,24.673,0,0,0,48.518-6.333" transform="translate(144.879 133.499)"/>
      </g>
      <g id="Path_144" data-name="Path 144" class="cls-18" transform="translate(91.394 114.831)">
        <path class="cls-26" d="M214.848,119.463v35.595h45.964l11.824,11.824V119.463Z"/>
        <path class="cls-28" d="M 217.8483276367188 122.4627380371094 L 217.8483276367188 152.0576477050781 L 260.8122253417969 152.0576477050781 L 262.0548706054688 152.0576477050781 L 262.9335632324219 152.9363403320313 L 269.6365051269531 159.6392822265625 L 269.6365051269531 155.0576477050781 L 269.6365051269531 122.4627380371094 L 217.8483276367188 122.4627380371094 M 214.8483276367188 119.4627380371094 L 272.6365051269531 119.4627380371094 L 272.6365051269531 155.0576477050781 L 272.6365051269531 166.8819274902344 L 260.8122253417969 155.0576477050781 L 214.8483276367188 155.0576477050781 L 214.8483276367188 119.4627380371094 Z"/>
      </g>
      <path id="Path_145" data-name="Path 145" class="cls-19" d="M157.668,232.158a30.289,30.289,0,1,0-42.835-42.835L100.79,203.366" transform="translate(39.21 142.734)"/>
      <rect id="Rectangle_37" data-name="Rectangle 37" class="cls-15" width="10.049" height="10.049" transform="translate(351.735 345.663) rotate(45)"/>
    </g>
    <g id="Smiley" transform="translate(1062.718 -205.533)">
      <path id="Path_156" data-name="Path 156" class="cls-20" d="M294.282,464.861a16.843,16.843,0,0,1,33.687,0V503.1h30.039" transform="translate(0 10.037)"/>
      <path id="Path_157" data-name="Path 157" class="cls-21" d="M335.515,464.861a16.843,16.843,0,0,1,33.687,0" transform="translate(20.465 10.037)"/>
      <path id="Path_158" data-name="Path 158" class="cls-7" d="M369.477,500.224a32.531,32.531,0,1,1-65.063,0Z" transform="translate(5.029 35.947)"/>
      <g id="Ellipse_21" data-name="Ellipse 21" class="cls-22" transform="translate(467.039 489.327)">
        <circle class="cls-26" cx="6.082" cy="6.082" r="6.082"/>
        <circle class="cls-27" cx="6.082" cy="6.082" r="4.582"/>
      </g>
      <circle id="Ellipse_22" data-name="Ellipse 22" class="cls-15" cx="6.082" cy="6.082" r="6.082" transform="translate(515.85 489.327)"/>
      <g id="Ellipse_23" data-name="Ellipse 23" class="cls-22" transform="translate(564.662 489.327)">
        <circle class="cls-26" cx="6.082" cy="6.082" r="6.082"/>
        <circle class="cls-27" cx="6.082" cy="6.082" r="4.582"/>
      </g>
      <rect id="Rectangle_48" data-name="Rectangle 48" class="cls-23" width="41.059" height="101.302" transform="translate(722.036 549.098) rotate(180)"/>
      <path id="Path_159" data-name="Path 159" class="cls-24" d="M569.325,465.9" transform="translate(136.508 18.911)"/>
      <line id="Line_45" data-name="Line 45" class="cls-25" x1="27.873" transform="translate(667.041 523.323)"/>
      <line id="Line_46" data-name="Line 46" class="cls-25" x1="27.873" transform="translate(667.041 501.622)"/>
    </g>
  </g>
</svg>
