<?xml version="1.0" encoding="utf-8"?>
<!-- Generator: Adobe Illustrator 22.1.0, SVG Export Plug-In . SVG Version: 6.00 Build 0)  -->
<svg version="1.1" id="Calque_1" xmlns="http://www.w3.org/2000/svg" xmlns:xlink="http://www.w3.org/1999/xlink" x="0px" y="0px"
	 viewBox="0 0 904.3 103.1" style="enable-background:new 0 0 904.3 103.1;" xml:space="preserve">
<style type="text/css">
	.st0{display:none;}
	.st1{display:inline;fill:#676C72;}
	.st2{fill-rule:evenodd;clip-rule:evenodd;fill:#EA4334;}
	.st3{fill-rule:evenodd;clip-rule:evenodd;fill:#4285F4;}
	.st4{fill-rule:evenodd;clip-rule:evenodd;fill:#FCBC05;}
	.st5{fill-rule:evenodd;clip-rule:evenodd;fill:#0D9D58;}
	.st6{display:none;fill:#676C72;}
	.st7{fill:#212121;}
	.st8{display:inline;fill:#212121;}
	.st9{font-family:'ProductSans-Regular';}
	.st10{font-size:79.6194px;}
</style>
<g>
	<g class="st0">
		<path class="st1" d="M255.4,53.7c0,8-2.4,14.3-7.1,19c-5.3,5.6-12.3,8.4-20.9,8.4c-8.3,0-15.3-2.9-21-8.6
			c-5.7-5.7-8.6-12.8-8.6-21.2c0-8.4,2.9-15.5,8.6-21.2c5.7-5.7,12.7-8.6,21-8.6c4.2,0,8.1,0.7,11.9,2.2c3.7,1.5,6.8,3.6,9.2,6.3
			l-5.3,5.3c-1.8-2.1-4-3.8-6.8-5c-2.8-1.2-5.8-1.8-9-1.8c-6.2,0-11.5,2.1-15.8,6.5c-4.2,4.4-6.4,9.8-6.4,16.3s2.1,12,6.4,16.3
			c4.3,4.3,9.6,6.5,15.8,6.5c5.7,0,10.4-1.6,14.2-4.8c3.8-3.2,5.9-7.6,6.5-13.1h-20.7v-6.8H255C255.3,50.9,255.4,52.3,255.4,53.7z"
			/>
		<path class="st1" d="M264.3,79.9v-57h17.4c8.7,0,15.7,2.6,21,7.9c5.3,5.3,7.9,12.1,7.9,20.6c0,8.5-2.6,15.4-7.9,20.7
			c-5.3,5.2-12.3,7.8-21,7.8H264.3z M271.6,29.9v43h10.1c6.6,0,11.9-1.9,15.7-5.7c3.8-3.8,5.7-9.1,5.7-15.8c0-6.7-1.9-11.9-5.7-15.8
			c-3.8-3.8-9.1-5.7-15.7-5.7H271.6z"/>
		<path class="st1" d="M374.2,53.7c0,8-2.4,14.3-7.1,19c-5.3,5.6-12.3,8.4-20.9,8.4c-8.3,0-15.3-2.9-21-8.6
			c-5.7-5.7-8.6-12.8-8.6-21.2c0-8.4,2.9-15.5,8.6-21.2c5.7-5.7,12.7-8.6,21-8.6c4.2,0,8.1,0.7,11.9,2.2c3.7,1.5,6.8,3.6,9.2,6.3
			l-5.3,5.3c-1.8-2.1-4-3.8-6.8-5c-2.8-1.2-5.8-1.8-9-1.8c-6.2,0-11.5,2.1-15.8,6.5c-4.2,4.4-6.4,9.8-6.4,16.3s2.1,12,6.4,16.3
			c4.3,4.3,9.6,6.5,15.8,6.5c5.7,0,10.4-1.6,14.2-4.8c3.8-3.2,5.9-7.6,6.5-13.1h-20.7v-6.8h27.6C374.1,50.9,374.2,52.3,374.2,53.7z"
			/>
		<path class="st1" d="M401.6,79.9h-8.1l21.5-57h8.3l21.5,57h-8.1l-5.5-15.5h-24L401.6,79.9z M419,31.8l-9.3,25.7h19l-9.3-25.7H419z
			"/>
		<path class="st1" d="M457.5,22.8v57h-7.3v-57H457.5z"/>
		<path class="st1" d="M483.3,98.4c-2.2,0-4.2-0.3-6.1-0.8c-1.9-0.6-3.7-1.3-5.2-2.3c-1.6-1-2.9-2.2-4-3.6c-1.1-1.4-2-2.9-2.5-4.6
			l6.9-2.9c0.8,2.3,2.2,4.1,4.1,5.5c2,1.4,4.2,2.1,6.8,2.1c4,0,7.1-1.2,9.3-3.6c2.2-2.4,3.3-5.7,3.3-9.9v-3.7h-0.3
			c-1.4,2.1-3.3,3.7-5.6,4.9c-2.4,1.2-4.9,1.8-7.7,1.8c-5.1,0-9.5-2-13.1-6c-3.6-4.1-5.4-9-5.4-14.8c0-5.8,1.8-10.7,5.4-14.7
			c3.7-4,8-6.1,13.1-6.1c2.8,0,5.3,0.6,7.7,1.8c2.4,1.2,4.2,2.8,5.6,4.9h0.3v-5.4h7v37.4c0,6.3-1.8,11.2-5.3,14.7
			C494.1,96.5,489.3,98.4,483.3,98.4z M483.6,74.5c3.6,0,6.6-1.3,8.8-3.9c2.4-2.6,3.6-6,3.6-10.2c0-4.1-1.2-7.5-3.6-10.1
			c-2.3-2.7-5.3-4-8.8-4c-3.5,0-6.5,1.3-8.8,4c-2.4,2.7-3.6,6-3.6,10.1c0,4.1,1.2,7.5,3.6,10.1C477.1,73.1,480.1,74.5,483.6,74.5z"
			/>
		<path class="st1" d="M521.4,27.4c0,1.4-0.5,2.7-1.5,3.7c-1,1-2.2,1.5-3.7,1.5c-1.4,0-2.7-0.5-3.7-1.5c-1-1-1.5-2.2-1.5-3.7
			c0-1.4,0.5-2.7,1.5-3.7c1-1,2.2-1.5,3.7-1.5c1.4,0,2.7,0.5,3.7,1.5C520.9,24.7,521.4,26,521.4,27.4z M519.9,40.8v39h-7.3v-39
			H519.9z"/>
		<path class="st1" d="M546.6,81.1c-5.7,0-10.5-2-14.2-5.9c-3.7-3.9-5.6-8.9-5.6-14.9c0-5.9,1.8-10.9,5.4-14.9
			c3.6-4,8.2-5.9,13.9-5.9c5.8,0,10.4,1.9,13.8,5.6c3.4,3.7,5.1,9,5.1,15.7l-0.1,0.8h-30.7c0.1,3.8,1.4,6.9,3.8,9.2
			c2.4,2.3,5.4,3.5,8.8,3.5c4.7,0,8.3-2.3,11-7l6.5,3.2c-1.8,3.3-4.2,5.9-7.3,7.7C554,80.2,550.5,81.1,546.6,81.1z M534.9,55.7h22.4
			c-0.2-2.7-1.3-5-3.3-6.7c-2-1.8-4.7-2.7-8-2.7c-2.8,0-5.1,0.8-7.1,2.5C536.8,50.5,535.5,52.8,534.9,55.7z"/>
		<path class="st1" d="M579.1,79.9h-7.3v-39h7v6.4h0.3c0.7-2.1,2.3-3.8,4.6-5.3c2.3-1.5,4.6-2.2,6.8-2.2c2.1,0,3.9,0.3,5.4,1
			l-2.2,7.1c-0.9-0.4-2.3-0.6-4.3-0.6c-2.8,0-5.2,1.1-7.2,3.3c-2,2.2-3.1,4.8-3.1,7.8V79.9z"/>
		<path class="st1" d="M628.9,69c0,3.4-1.5,6.3-4.5,8.6c-3,2.3-6.7,3.5-11.2,3.5c-3.9,0-7.4-1-10.4-3.1c-3-2-5.1-4.7-6.4-8.1
			l6.5-2.8c1,2.3,2.3,4.2,4.2,5.5c1.8,1.3,3.8,2,6,2c2.3,0,4.3-0.5,5.9-1.5c1.6-1,2.3-2.2,2.3-3.6c0-2.5-1.9-4.3-5.7-5.5l-6.7-1.7
			c-7.6-1.9-11.4-5.6-11.4-11c0-3.6,1.4-6.4,4.3-8.6c2.9-2.1,6.6-3.2,11.1-3.2c3.5,0,6.6,0.8,9.4,2.5c2.8,1.6,4.7,3.9,5.9,6.6
			l-6.5,2.7c-0.7-1.6-2-2.9-3.6-3.9c-1.7-0.9-3.5-1.4-5.6-1.4c-1.9,0-3.6,0.5-5.1,1.4c-1.5,1-2.3,2.1-2.3,3.5c0,2.2,2.1,3.8,6.3,4.8
			l5.9,1.5C625.1,59.2,628.9,63.1,628.9,69z"/>
	</g>
	<g class="st0">
		<path class="st1" d="M255.4,53.7c0,8-2.4,14.3-7.1,19c-5.3,5.6-12.3,8.4-20.9,8.4c-8.3,0-15.3-2.9-21-8.6
			c-5.7-5.7-8.6-12.8-8.6-21.2c0-8.4,2.9-15.5,8.6-21.2c5.7-5.7,12.7-8.6,21-8.6c4.2,0,8.1,0.7,11.9,2.2c3.7,1.5,6.8,3.6,9.2,6.3
			l-5.3,5.3c-1.8-2.1-4-3.8-6.8-5c-2.8-1.2-5.8-1.8-9-1.8c-6.2,0-11.5,2.1-15.8,6.5c-4.2,4.4-6.4,9.8-6.4,16.3s2.1,12,6.4,16.3
			c4.3,4.3,9.6,6.5,15.8,6.5c5.7,0,10.4-1.6,14.2-4.8c3.8-3.2,5.9-7.6,6.5-13.1h-20.7v-6.8H255C255.3,50.9,255.4,52.3,255.4,53.7z"
			/>
		<path class="st1" d="M264.3,79.9v-57h17.4c8.7,0,15.7,2.6,21,7.9c5.3,5.3,7.9,12.1,7.9,20.6c0,8.5-2.6,15.4-7.9,20.7
			c-5.3,5.2-12.3,7.8-21,7.8H264.3z M271.6,29.9v43h10.1c6.6,0,11.9-1.9,15.7-5.7c3.8-3.8,5.7-9.1,5.7-15.8c0-6.7-1.9-11.9-5.7-15.8
			c-3.8-3.8-9.1-5.7-15.7-5.7H271.6z"/>
		<path class="st1" d="M374.2,53.7c0,8-2.4,14.3-7.1,19c-5.3,5.6-12.3,8.4-20.9,8.4c-8.3,0-15.3-2.9-21-8.6
			c-5.7-5.7-8.6-12.8-8.6-21.2c0-8.4,2.9-15.5,8.6-21.2c5.7-5.7,12.7-8.6,21-8.6c4.2,0,8.1,0.7,11.9,2.2c3.7,1.5,6.8,3.6,9.2,6.3
			l-5.3,5.3c-1.8-2.1-4-3.8-6.8-5c-2.8-1.2-5.8-1.8-9-1.8c-6.2,0-11.5,2.1-15.8,6.5c-4.2,4.4-6.4,9.8-6.4,16.3s2.1,12,6.4,16.3
			c4.3,4.3,9.6,6.5,15.8,6.5c5.7,0,10.4-1.6,14.2-4.8c3.8-3.2,5.9-7.6,6.5-13.1h-20.7v-6.8h27.6C374.1,50.9,374.2,52.3,374.2,53.7z"
			/>
		<path class="st1" d="M401.6,79.9h-8.1l21.5-57h8.3l21.5,57h-8.1l-5.5-15.5h-24L401.6,79.9z M419,31.8l-9.3,25.7h19l-9.3-25.7H419z
			"/>
		<path class="st1" d="M457.5,22.8v57h-7.3v-57H457.5z"/>
		<path class="st1" d="M483.3,98.4c-2.2,0-4.2-0.3-6.1-0.8c-1.9-0.6-3.7-1.3-5.2-2.3c-1.6-1-2.9-2.2-4-3.6c-1.1-1.4-2-2.9-2.5-4.6
			l6.9-2.9c0.8,2.3,2.2,4.1,4.1,5.5c2,1.4,4.2,2.1,6.8,2.1c4,0,7.1-1.2,9.3-3.6c2.2-2.4,3.3-5.7,3.3-9.9v-3.7h-0.3
			c-1.4,2.1-3.3,3.7-5.6,4.9c-2.4,1.2-4.9,1.8-7.7,1.8c-5.1,0-9.5-2-13.1-6c-3.6-4.1-5.4-9-5.4-14.8c0-5.8,1.8-10.7,5.4-14.7
			c3.7-4,8-6.1,13.1-6.1c2.8,0,5.3,0.6,7.7,1.8c2.4,1.2,4.2,2.8,5.6,4.9h0.3v-5.4h7v37.4c0,6.3-1.8,11.2-5.3,14.7
			C494.1,96.5,489.3,98.4,483.3,98.4z M483.6,74.5c3.6,0,6.6-1.3,8.8-3.9c2.4-2.6,3.6-6,3.6-10.2c0-4.1-1.2-7.5-3.6-10.1
			c-2.3-2.7-5.3-4-8.8-4c-3.5,0-6.5,1.3-8.8,4c-2.4,2.7-3.6,6-3.6,10.1c0,4.1,1.2,7.5,3.6,10.1C477.1,73.1,480.1,74.5,483.6,74.5z"
			/>
		<path class="st1" d="M521.4,27.4c0,1.4-0.5,2.7-1.5,3.7c-1,1-2.2,1.5-3.7,1.5c-1.4,0-2.7-0.5-3.7-1.5c-1-1-1.5-2.2-1.5-3.7
			c0-1.4,0.5-2.7,1.5-3.7c1-1,2.2-1.5,3.7-1.5c1.4,0,2.7,0.5,3.7,1.5C520.9,24.7,521.4,26,521.4,27.4z M519.9,40.8v39h-7.3v-39
			H519.9z"/>
		<path class="st1" d="M546.6,81.1c-5.7,0-10.5-2-14.2-5.9c-3.7-3.9-5.6-8.9-5.6-14.9c0-5.9,1.8-10.9,5.4-14.9
			c3.6-4,8.2-5.9,13.9-5.9c5.8,0,10.4,1.9,13.8,5.6c3.4,3.7,5.1,9,5.1,15.7l-0.1,0.8h-30.7c0.1,3.8,1.4,6.9,3.8,9.2
			c2.4,2.3,5.4,3.5,8.8,3.5c4.7,0,8.3-2.3,11-7l6.5,3.2c-1.8,3.3-4.2,5.9-7.3,7.7C554,80.2,550.5,81.1,546.6,81.1z M534.9,55.7h22.4
			c-0.2-2.7-1.3-5-3.3-6.7c-2-1.8-4.7-2.7-8-2.7c-2.8,0-5.1,0.8-7.1,2.5C536.8,50.5,535.5,52.8,534.9,55.7z"/>
		<path class="st1" d="M579.1,79.9h-7.3v-39h7v6.4h0.3c0.7-2.1,2.3-3.8,4.6-5.3c2.3-1.5,4.6-2.2,6.8-2.2c2.1,0,3.9,0.3,5.4,1
			l-2.2,7.1c-0.9-0.4-2.3-0.6-4.3-0.6c-2.8,0-5.2,1.1-7.2,3.3c-2,2.2-3.1,4.8-3.1,7.8V79.9z"/>
		<path class="st1" d="M628.9,69c0,3.4-1.5,6.3-4.5,8.6c-3,2.3-6.7,3.5-11.2,3.5c-3.9,0-7.4-1-10.4-3.1c-3-2-5.1-4.7-6.4-8.1
			l6.5-2.8c1,2.3,2.3,4.2,4.2,5.5c1.8,1.3,3.8,2,6,2c2.3,0,4.3-0.5,5.9-1.5c1.6-1,2.3-2.2,2.3-3.6c0-2.5-1.9-4.3-5.7-5.5l-6.7-1.7
			c-7.6-1.9-11.4-5.6-11.4-11c0-3.6,1.4-6.4,4.3-8.6c2.9-2.1,6.6-3.2,11.1-3.2c3.5,0,6.6,0.8,9.4,2.5c2.8,1.6,4.7,3.9,5.9,6.6
			l-6.5,2.7c-0.7-1.6-2-2.9-3.6-3.9c-1.7-0.9-3.5-1.4-5.6-1.4c-1.9,0-3.6,0.5-5.1,1.4c-1.5,1-2.3,2.1-2.3,3.5c0,2.2,2.1,3.8,6.3,4.8
			l5.9,1.5C625.1,59.2,628.9,63.1,628.9,69z"/>
	</g>
	<g id="Group_2_" transform="translate(44.000000, 143.000000)">
		<path id="Rectangle-Copy_2_" class="st2" d="M8.8-129.7L-37-103.2c-6.3,3.6-8.4,11.6-4.8,17.9l0,0c3.6,6.3,11.6,8.4,17.9,4.8
			L21.9-107c6.3-3.6,8.4-11.6,4.8-17.9l0,0C23.1-131.2,15.1-133.3,8.8-129.7z"/>
		<path id="Rectangle-Copy-2_2_" class="st3" d="M21.5-76.6L-24.3-103c-6.3-3.6-14.3-1.5-17.9,4.8l0,0c-3.6,6.3-1.5,14.3,4.8,17.9
			L8.4-53.9c6.3,3.6,14.3,1.5,17.9-4.8l0,0C29.9-64.9,27.8-73,21.5-76.6z"/>
		<path id="Rectangle_2_" class="st4" d="M52.2-76.2L98-102.6c6.3-3.6,14.3-1.5,17.9,4.8l0,0c3.6,6.3,1.5,14.3-4.8,17.9L65.3-53.4
			C59-49.8,51-52,47.3-58.2l0,0C43.7-64.5,45.9-72.5,52.2-76.2z"/>
		<path class="st5" d="M65.7-129.3l45.8,26.5c6.3,3.6,8.4,11.6,4.8,17.9l0,0c-3.6,6.3-11.6,8.4-17.9,4.8l-45.8-26.5
			c-6.3-3.6-8.4-11.6-4.8-17.9l0,0C51.4-130.8,59.4-132.9,65.7-129.3z"/>
	</g>
	<path class="st6" d="M791.5,99.2H762c-16.6-7.4-29.6-20.1-38.7-37.9c0.1-0.3,0.1-0.6,0.1-1c-2.1-16-2.7-35.4-1.5-54.6
		c0.1-1.3-0.9-2.4-2.2-2.5c-1.2-0.1-2.4,0.9-2.5,2.2c-0.9,14.4-0.8,29,0.2,42.2c-2-5.6-3.8-11.7-5.2-18.1c0-0.1-0.1-0.2-0.1-0.4
		c0.7-8.4,2-17.2,3.9-26.4c0.3-1.3-0.5-2.5-1.8-2.8c-1.3-0.3-2.5,0.5-2.8,1.8c-1.4,6.5-2.4,12.8-3.2,18.8c-0.4,0.2-0.8,0.6-1,1
		c-2.3-0.4-4.6-0.4-6.9-0.1c-0.1-0.4-0.4-0.8-0.7-1c-0.9-6.3-2.3-12.6-4.1-18.9c-0.4-1.2-1.6-1.9-2.9-1.6c-1.2,0.4-1.9,1.6-1.6,2.9
		c2.4,8.4,4,16.9,4.7,25.4c0,0.2,0,0.3,0,0.5c0,0,0,0.1,0,0.1c0,0.1-0.1,0.2-0.1,0.4c-0.8,9.2-2.9,17.8-6.3,25.8
		c1.4-13.9,1.8-30.5,1.3-49.5c0-1.3-1.1-2.3-2.4-2.3c-1.3,0-2.3,1.1-2.3,2.4c0.7,24.4-0.2,44.7-2.7,60.5c0,0.1,0,0.3,0,0.4
		c-8.1,12.7-20.1,23.6-35.9,32.7h-25.2c-1.1,0-1.9,0.9-1.9,1.9c0,1.1,0.9,1.9,1.9,1.9h18.1h9.8h29.8h0.4h4.8h0h0.5h2.3h12.3h2.3h2.4
		h2.3h11.9h2.3h0.7h0.3h4.7h0.4h31.5h13.4h18.9c1.1,0,1.9-0.9,1.9-1.9C793.4,100.1,792.5,99.2,791.5,99.2z M707.3,54.7
		c0.3,4.1,0.8,8,1.5,11.9c-1-2.6-1.9-5.2-2.7-7.7C706.5,57.5,706.9,56.1,707.3,54.7z M700.5,28.3c0,0.4,0.1,0.8,0.1,1.2
		c0,0.4,0.1,0.8,0.1,1.2h6c-0.4,6.4-1.4,12.9-3.1,19.6c-1.4-5.6-2.3-11-2.8-16.4c-0.1-1.1-0.2-2.2-0.2-3.2c0-0.4,0-0.8-0.1-1.2
		C700.5,29.1,700.5,28.7,700.5,28.3L700.5,28.3z M700,54.7c0.4,1.4,0.8,2.7,1.2,4.1c-1.1,3.5-2.4,7-3.8,10.5
		C698.5,64.5,699.4,59.6,700,54.7z M681.8,99.2h-25.4c19.4-12.6,32.5-28.3,39.2-46.9C693.9,68,689.3,83.6,681.8,99.2z M703,99.2
		c0.3-2.2,0.5-4.4,0.7-6.8c0.2,2.3,0.4,4.6,0.7,6.8H703z M720,99.2h-1.1h-12.2c-1-8.8-1.7-18.7-1.8-30c0,0,0-0.1-0.1-0.1
		c0-0.8,0-1.7,0-2.5c0-1.3,0-2.5,0-3.8c0-1.3,0-2.5,0-3.8c0-0.6-0.5-1.1-1.1-1.2c-0.6,0-1.1,0.5-1.1,1.2c0,1.3,0,2.6,0,3.9
		c0,1.2,0,2.5,0,3.7c0,0.8,0,1.6,0,2.4c0,0,0,0.1-0.1,0.1c-0.2,11.3-0.8,21.2-1.8,30.1h-12.5h-0.7h-0.5c0.5-1.1,11.9-20.7,15.6-30.1
		c0-0.8,0-1.7,0-2.5c0-1.3,0-2.5,0-3.8c0-1.3,0-2.5,0-3.8c0-0.6,0.5-1.2,1.2-1.2c0,0,0,0,0,0c0,0,0,0,0,0c0,0,0,0,0,0c0,0,0,0,0,0
		c0.6,0,1.2,0.5,1.2,1.2c0,1.2,0,2.4,0,3.6c0,1.4,0,2.7,0,4c0,0.9,0,1.8,0,2.6C708.4,78.3,719.9,99,720,99.2L720,99.2z M725.6,99.2
		h-0.2c-0.6-1-1.1-2-1.6-3c-7.9-15-12-32.1-12.2-51.5c8.2,25.3,21.7,43.5,40.3,54.5H725.6z"/>
	<g>
		<g>
			<path class="st7" d="M203.5,79.9v-57h17.4c8.7,0,15.7,2.6,21,7.9c5.3,5.3,7.9,12.1,7.9,20.6c0,8.5-2.6,15.4-7.9,20.7
				c-5.3,5.2-12.3,7.8-21,7.8H203.5z M210.8,29.9v43h10.1c6.6,0,11.9-1.9,15.7-5.7c3.8-3.8,5.7-9.1,5.7-15.8
				c0-6.7-1.9-11.9-5.7-15.8c-3.8-3.8-9.1-5.7-15.7-5.7H210.8z"/>
			<path class="st7" d="M273.5,81.1c-5.7,0-10.5-2-14.2-5.9c-3.7-3.9-5.6-8.9-5.6-14.9c0-5.9,1.8-10.9,5.4-14.8
				c3.6-4,8.2-5.9,13.9-5.9c5.8,0,10.4,1.9,13.8,5.6c3.4,3.7,5.1,9,5.1,15.7l-0.1,0.8h-30.7c0.1,3.8,1.4,6.9,3.8,9.2
				s5.4,3.5,8.8,3.5c4.7,0,8.3-2.3,11-7l6.5,3.2c-1.8,3.3-4.2,5.9-7.3,7.7S277.5,81.1,273.5,81.1z M261.8,55.7h22.4
				c-0.2-2.7-1.3-4.9-3.3-6.7c-2-1.8-4.7-2.7-8-2.7c-2.8,0-5.1,0.9-7.1,2.5C263.8,50.5,262.5,52.8,261.8,55.7z"/>
			<path class="st7" d="M316.8,79.9h-7.3l-15.8-39h8l11.5,30.3h0.2L325,40.9h7.8L316.8,79.9z"/>
			<path class="st7" d="M346.1,55.4v24.4h-7.3v-57h33.3v7h-26v18.7h23.4v6.8H346.1z"/>
			<path class="st7" d="M394.2,81.1c-5.7,0-10.5-2-14.2-5.9c-3.7-3.9-5.6-8.9-5.6-14.9c0-5.9,1.8-10.9,5.4-14.8
				c3.6-4,8.2-5.9,13.9-5.9c5.8,0,10.4,1.9,13.8,5.6c3.4,3.7,5.1,9,5.1,15.7l-0.1,0.8H382c0.1,3.8,1.4,6.9,3.8,9.2s5.4,3.5,8.8,3.5
				c4.7,0,8.3-2.3,11-7l6.5,3.2c-1.8,3.3-4.2,5.9-7.3,7.7S398.2,81.1,394.2,81.1z M382.5,55.7h22.4c-0.2-2.7-1.3-4.9-3.3-6.7
				c-2-1.8-4.7-2.7-8-2.7c-2.8,0-5.1,0.9-7.1,2.5C384.5,50.5,383.2,52.8,382.5,55.7z"/>
			<path class="st7" d="M449.6,69c0,3.4-1.5,6.3-4.5,8.6s-6.7,3.5-11.2,3.5c-3.9,0-7.4-1-10.3-3.1c-3-2-5.1-4.7-6.4-8.1l6.5-2.8
				c1,2.3,2.3,4.2,4.2,5.5c1.8,1.3,3.8,2,6,2c2.3,0,4.3-0.5,5.9-1.5c1.6-1,2.3-2.2,2.3-3.6c0-2.5-1.9-4.3-5.7-5.5l-6.7-1.7
				c-7.6-1.9-11.4-5.6-11.4-11c0-3.6,1.4-6.4,4.3-8.6c2.9-2.1,6.6-3.2,11.1-3.2c3.4,0,6.6,0.8,9.4,2.5c2.8,1.6,4.7,3.8,5.9,6.6
				l-6.5,2.7c-0.7-1.6-2-2.9-3.6-3.9c-1.7-0.9-3.5-1.4-5.6-1.4c-1.9,0-3.6,0.5-5.1,1.4c-1.5,1-2.3,2.1-2.3,3.5
				c0,2.2,2.1,3.8,6.3,4.8l5.9,1.5C445.8,59.3,449.6,63.2,449.6,69z"/>
			<path class="st7" d="M471.1,80.5c-3.2,0-5.8-1-7.9-2.9c-2.1-2-3.2-4.7-3.2-8.2V47.5h-6.8v-6.7h6.8V28.9h7.3v11.9h9.6v6.7h-9.6V67
				c0,2.6,0.5,4.4,1.5,5.3c1,0.9,2.1,1.4,3.4,1.4c0.6,0,1.2-0.1,1.7-0.2c0.6-0.1,1.1-0.3,1.6-0.5l2.3,6.5
				C475.8,80.2,473.6,80.5,471.1,80.5z"/>
			<path class="st7" d="M503.5,79.9h-8.1l21.5-57h8.3l21.5,57h-8.1l-5.5-15.4h-24L503.5,79.9z M520.9,31.9l-9.3,25.7h18.9l-9.3-25.7
				H520.9z"/>
			<path class="st7" d="M559.4,22.9v57h-7.3v-57H559.4z"/>
			<path class="st7" d="M585.2,98.3c-2.2,0-4.2-0.3-6.1-0.8c-1.9-0.6-3.7-1.3-5.2-2.3c-1.6-1-2.9-2.2-4-3.6c-1.1-1.4-2-2.9-2.5-4.6
				l6.9-2.9c0.8,2.3,2.2,4.1,4.1,5.5c2,1.4,4.2,2.1,6.8,2.1c4,0,7.1-1.2,9.3-3.6c2.2-2.4,3.3-5.7,3.3-9.9v-3.7h-0.3
				c-1.4,2.1-3.3,3.7-5.6,4.9c-2.4,1.2-4.9,1.8-7.7,1.8c-5.1,0-9.5-2-13.1-6c-3.6-4.1-5.4-9-5.4-14.8c0-5.8,1.8-10.7,5.4-14.7
				c3.7-4,8-6.1,13.1-6.1c2.8,0,5.3,0.6,7.7,1.8c2.4,1.2,4.2,2.8,5.6,4.9h0.3v-5.4h7v37.3c0,6.3-1.8,11.2-5.3,14.7
				C596,96.5,591.2,98.3,585.2,98.3z M585.5,74.5c3.6,0,6.6-1.3,8.8-3.9c2.4-2.6,3.6-6,3.6-10.2c0-4.1-1.2-7.5-3.6-10.1
				c-2.3-2.7-5.3-4-8.8-4c-3.5,0-6.4,1.3-8.8,4c-2.4,2.7-3.6,6-3.6,10.1c0,4.1,1.2,7.5,3.6,10.1C579,73.1,582,74.5,585.5,74.5z"/>
			<path class="st7" d="M623.3,27.4c0,1.4-0.5,2.7-1.5,3.7c-1,1-2.2,1.5-3.7,1.5s-2.7-0.5-3.7-1.5c-1-1-1.5-2.2-1.5-3.7
				s0.5-2.7,1.5-3.7c1-1,2.2-1.5,3.7-1.5s2.7,0.5,3.7,1.5C622.8,24.8,623.3,26,623.3,27.4z M621.8,40.9v39h-7.3v-39H621.8z"/>
			<path class="st7" d="M648.5,81.1c-5.7,0-10.5-2-14.2-5.9c-3.7-3.9-5.6-8.9-5.6-14.9c0-5.9,1.8-10.9,5.4-14.8
				c3.6-4,8.2-5.9,13.9-5.9c5.8,0,10.4,1.9,13.8,5.6c3.4,3.7,5.1,9,5.1,15.7l-0.1,0.8h-30.7c0.1,3.8,1.4,6.9,3.8,9.2
				s5.4,3.5,8.8,3.5c4.7,0,8.3-2.3,11-7l6.5,3.2c-1.8,3.3-4.2,5.9-7.3,7.7S652.4,81.1,648.5,81.1z M636.8,55.7h22.4
				c-0.2-2.7-1.3-4.9-3.3-6.7c-2-1.8-4.7-2.7-8-2.7c-2.8,0-5.1,0.9-7.1,2.5C638.7,50.5,637.4,52.8,636.8,55.7z"/>
			<path class="st7" d="M680.9,79.9h-7.3v-39h7v6.4h0.3c0.7-2.1,2.3-3.8,4.6-5.3c2.3-1.5,4.6-2.2,6.8-2.2c2.1,0,3.9,0.3,5.4,1
				l-2.2,7.1c-0.9-0.4-2.3-0.6-4.3-0.6c-2.8,0-5.2,1.1-7.2,3.3s-3.1,4.8-3.1,7.8V79.9z"/>
			<path class="st7" d="M730.8,69c0,3.4-1.5,6.3-4.5,8.6s-6.7,3.5-11.2,3.5c-3.9,0-7.4-1-10.3-3.1c-3-2-5.1-4.7-6.4-8.1l6.5-2.8
				c1,2.3,2.3,4.2,4.2,5.5c1.8,1.3,3.8,2,6,2c2.3,0,4.3-0.5,5.9-1.5c1.6-1,2.3-2.2,2.3-3.6c0-2.5-1.9-4.3-5.7-5.5l-6.7-1.7
				c-7.6-1.9-11.4-5.6-11.4-11c0-3.6,1.4-6.4,4.3-8.6c2.9-2.1,6.6-3.2,11.1-3.2c3.4,0,6.6,0.8,9.4,2.5c2.8,1.6,4.7,3.8,5.9,6.6
				l-6.5,2.7c-0.7-1.6-2-2.9-3.6-3.9c-1.7-0.9-3.5-1.4-5.6-1.4c-1.9,0-3.6,0.5-5.1,1.4c-1.5,1-2.3,2.1-2.3,3.5
				c0,2.2,2.1,3.8,6.3,4.8l5.9,1.5C726.9,59.3,730.8,63.2,730.8,69z"/>
			<path class="st7" d="M788.1,72.9v7h-34.7v-7.3l14.1-14.3c4.7-4.8,8-8.5,9.8-10.9c1.8-2.4,2.7-4.9,2.7-7.6c0-2.4-0.9-4.4-2.8-6.1
				c-1.9-1.7-4.2-2.5-7.2-2.5c-2.5,0-4.6,0.7-6.4,2.2c-1.8,1.5-3,3.3-3.5,5.4l-6.7-2.7c1.1-3.3,3.1-6.2,6.1-8.5s6.6-3.5,10.7-3.5
				c4.9,0,9,1.5,12.3,4.5s4.9,6.7,4.9,11.1c0,5.3-2.9,10.9-8.7,17l-15.9,16H788.1z"/>
			<path class="st7" d="M830.4,79.9h-8.8l-12.2-18.4l-6,5.9v12.5h-7.3v-57h7.3V58l16.9-17.1h9.4v0.3l-15.2,15.1l15.9,23.2V79.9z"/>
			<path class="st7" d="M853.9,25.4v54.5h-7.3V34.5L836,39.1l-2.8-6.2l16-7.5H853.9z"/>
			<path class="st7" d="M880.9,60c-4.4,0-8.3-1.7-11.9-5.2c-3.5-3.6-5.2-7.7-5.2-12.4c0-4.9,1.9-9.2,5.6-12.7
				c3.7-3.7,8.1-5.5,13.1-5.5c5.3,0,9.7,1.8,13.3,5.4c3.6,3.6,5.4,7.9,5.4,12.8c0,4.4-1.8,9.4-5.3,15L880,81.1l-5.9-4.1l13.5-18.6
				l-0.2-0.2C885.7,59.4,883.5,60,880.9,60z M893.8,42.3c0-3.1-1.1-5.7-3.3-7.9c-2.2-2.2-4.8-3.3-8-3.3c-3.1,0-5.8,1.1-8,3.3
				c-2.2,2.2-3.3,4.8-3.3,7.9c0,3.1,1.1,5.7,3.3,7.9c2.3,2.2,4.9,3.3,8,3.3s5.7-1.1,8-3.3C892.6,48.1,893.8,45.4,893.8,42.3z"/>
		</g>
	</g>
	<g class="st0">
		<text transform="matrix(1 0 0 1 197.7368 79.874)" class="st8 st9 st10">DevFest Algiers 2k19</text>
	</g>
</g>
</svg>
