<?xml version="1.0" encoding="iso-8859-1"?>
<!-- Generator: Adobe Illustrator 19.0.0, SVG Export Plug-In . SVG Version: 6.00 Build 0)  -->
<svg version="1.1" id="Layer_1" xmlns="http://www.w3.org/2000/svg" xmlns:xlink="http://www.w3.org/1999/xlink" x="0px" y="0px"
	 viewBox="0 0 512 512" style="enable-background:new 0 0 512 512;" xml:space="preserve">
<g>
	<g>
		<g>
			<path d="M469.333,304.232V85.333c0-23.531-19.146-42.667-42.667-42.667h-64v-32C362.667,4.771,357.896,0,352,0
				c-5.896,0-10.667,4.771-10.667,10.667v32h-192v-32C149.333,4.771,144.563,0,138.667,0C132.771,0,128,4.771,128,10.667v32H42.667
				C19.146,42.667,0,61.802,0,85.333v341.333c0,23.531,19.146,42.667,42.667,42.667H304.23C325.772,495.376,358.316,512,394.667,512
				C459.354,512,512,459.365,512,394.667C512,358.313,495.374,325.77,469.333,304.232z M21.333,85.333
				C21.333,73.573,30.896,64,42.667,64H128v21.333c-11.771,0-21.333,9.573-21.333,21.333c0,11.76,9.563,21.333,21.333,21.333
				s21.333-9.573,21.333-21.333V64h192v21.333c-11.771,0-21.333,9.573-21.333,21.333c0,11.76,9.563,21.333,21.333,21.333
				c11.771,0,21.333-9.573,21.333-21.333V64h64C438.438,64,448,73.573,448,85.333v64H21.333V85.333z M42.667,448
				c-11.771,0-21.333-9.573-21.333-21.333v-256H448v119.621c-16.023-8.223-34.121-12.954-53.333-12.954
				c-64.688,0-117.333,52.635-117.333,117.333c0,19.212,4.733,37.31,12.954,53.333H42.667z M394.667,490.667
				c-52.938,0-96-43.063-96-96s43.063-96,96-96s96,43.063,96,96S447.604,490.667,394.667,490.667z"/>
			<path d="M405.333,390.25v-59.583c0-5.896-4.771-10.667-10.667-10.667S384,324.771,384,330.667v64
				c0,2.833,1.125,5.542,3.125,7.542l32,32c2.083,2.083,4.813,3.125,7.542,3.125s5.458-1.042,7.542-3.125
				c4.167-4.167,4.167-10.917,0-15.083L405.333,390.25z"/>
		</g>
	</g>
</g>
<g>
</g>
<g>
</g>
<g>
</g>
<g>
</g>
<g>
</g>
<g>
</g>
<g>
</g>
<g>
</g>
<g>
</g>
<g>
</g>
<g>
</g>
<g>
</g>
<g>
</g>
<g>
</g>
<g>
</g>
</svg>
