<svg xmlns="http://www.w3.org/2000/svg" xmlns:xlink="http://www.w3.org/1999/xlink" width="1920" height="327" viewBox="0 0 1920 327">
  <defs>
    <style>
      .cls-1, .cls-10, .cls-5 {
        fill: #fff;
      }

      .cls-2 {
        clip-path: url(#clip-path);
      }

      .cls-3 {
        fill: #2ecc71;
      }

      .cls-4 {
        fill: #676c72;
      }

      .cls-5, .cls-6, .cls-7, .cls-8, .cls-9 {
        fill-rule: evenodd;
      }

      .cls-6 {
        fill: #ea4334;
      }

      .cls-7 {
        fill: #4285f4;
      }

      .cls-8 {
        fill: #fcbc05;
      }

      .cls-9 {
        fill: #0d9d58;
      }

      .cls-10 {
        font-size: 35px;
        font-family: ProductSans-Regular, Product Sans;
      }
    </style>
    <clipPath id="clip-path">
      <rect id="Rectangle_49" data-name="Rectangle 49" class="cls-1" width="1920" height="327" transform="translate(0 1826.587)"/>
    </clipPath>
  </defs>
  <g id="Footer" transform="translate(0 -1826.587)">
    <g id="Mask_Group_2" data-name="Mask Group 2" class="cls-2">
      <path id="Path_68" data-name="Path 68" class="cls-3" d="M1919.67,2018.475s-642.125,126.82-1258.216,43.393C435.891,2031.324,165.087,2008.309-.1,1889.747c-10.823-7.768,0,270.286,0,270.286s1915.887,42.924,1921.929.5S1919.67,2018.475,1919.67,2018.475Z"/>
    </g>
    <g id="Group_33" data-name="Group 33" transform="translate(0.972 1843.254)">
      <g id="Group_30" data-name="Group 30" transform="translate(152.359 236.995)">
        <path id="Path_69" data-name="Path 69" class="cls-4" d="M267.167,265.03q0,7.337-4.353,11.689-4.89,5.184-12.862,5.183a18.291,18.291,0,1,1,0-36.582,19.447,19.447,0,0,1,7.287,1.369,14.564,14.564,0,0,1,5.624,3.864l-3.228,3.228a10.855,10.855,0,0,0-4.182-3.057,13.825,13.825,0,0,0-5.5-1.1,13.174,13.174,0,0,0-9.684,3.961,14.8,14.8,0,0,0,0,20.052,13.175,13.175,0,0,0,9.684,3.961,13.023,13.023,0,0,0,8.706-2.935,11.7,11.7,0,0,0,4.01-8.069H249.951v-4.206h16.97A14.991,14.991,0,0,1,267.167,265.03Z" transform="translate(-231.758 -245.321)"/>
        <path id="Path_70" data-name="Path 70" class="cls-4" d="M298.341,281.612V246.6h10.71q8.02,0,12.887,4.842T326.8,264.1q0,7.874-4.866,12.691t-12.887,4.817Zm4.5-30.713v26.409h6.211q6.112,0,9.635-3.5t3.521-9.708q0-6.163-3.521-9.684t-9.635-3.521Z" transform="translate(-257.455 -245.813)"/>
        <path id="Path_71" data-name="Path 71" class="cls-4" d="M386,265.03q0,7.337-4.353,11.689-4.891,5.184-12.862,5.183a18.291,18.291,0,1,1,0-36.582,19.447,19.447,0,0,1,7.287,1.369,14.568,14.568,0,0,1,5.624,3.864l-3.228,3.228a10.858,10.858,0,0,0-4.181-3.057,13.827,13.827,0,0,0-5.5-1.1,13.173,13.173,0,0,0-9.684,3.961,14.8,14.8,0,0,0,0,20.052,13.174,13.174,0,0,0,9.684,3.961,13.023,13.023,0,0,0,8.706-2.935,11.7,11.7,0,0,0,4.01-8.069H368.78v-4.206h16.97A15.052,15.052,0,0,1,386,265.03Z" transform="translate(-277.619 -245.321)"/>
        <path id="Path_72" data-name="Path 72" class="cls-4" d="M432.511,281.612h-4.989l13.2-35.017h5.086l13.2,35.017h-4.989l-3.374-9.487H435.933Zm10.661-29.49-5.723,15.8h11.64l-5.722-15.8Z" transform="translate(-307.311 -245.813)"/>
        <path id="Path_73" data-name="Path 73" class="cls-4" d="M488.728,246.6v35.017h-4.5V246.6Z" transform="translate(-329.196 -245.813)"/>
        <path id="Path_74" data-name="Path 74" class="cls-4" d="M509.83,299.413a13.4,13.4,0,0,1-3.765-.513,12.2,12.2,0,0,1-3.2-1.443,10.344,10.344,0,0,1-2.47-2.2,9.265,9.265,0,0,1-1.565-2.836l4.255-1.761a6.739,6.739,0,0,0,2.543,3.374,7.131,7.131,0,0,0,4.206,1.271,7.444,7.444,0,0,0,5.723-2.2,8.541,8.541,0,0,0,2.054-6.064v-2.3h-.2a8.861,8.861,0,0,1-3.448,3.008,10.32,10.32,0,0,1-4.72,1.1,10.594,10.594,0,0,1-8.069-3.668,13.265,13.265,0,0,1-3.326-9.1,13.084,13.084,0,0,1,3.326-9.047,10.535,10.535,0,0,1,8.069-3.718,10.321,10.321,0,0,1,4.72,1.1,8.858,8.858,0,0,1,3.448,3.008h.2V264.1h4.3V287.04q0,5.771-3.277,9.048A11.9,11.9,0,0,1,509.83,299.413Zm.147-14.672a6.889,6.889,0,0,0,5.428-2.4,9.934,9.934,0,0,0,0-12.471,6.925,6.925,0,0,0-5.428-2.445,7.019,7.019,0,0,0-5.429,2.445,8.935,8.935,0,0,0-2.2,6.211,8.822,8.822,0,0,0,2.2,6.211A7.015,7.015,0,0,0,509.977,284.742Z" transform="translate(-334.452 -252.268)"/>
        <path id="Path_75" data-name="Path 75" class="cls-4" d="M551.434,249.136a3.172,3.172,0,1,1-.929-2.249A3.065,3.065,0,0,1,551.434,249.136ZM550.5,257.4v23.964h-4.5V257.4Z" transform="translate(-352.679 -245.567)"/>
        <path id="Path_76" data-name="Path 76" class="cls-4" d="M572.974,288.849a11.46,11.46,0,0,1-8.706-3.619,12.778,12.778,0,0,1-3.423-9.146,13.016,13.016,0,0,1,3.325-9.121,11.957,11.957,0,0,1,17-.2q3.155,3.448,3.154,9.659l-.049.489H565.443a7.8,7.8,0,0,0,2.348,5.673,7.507,7.507,0,0,0,5.379,2.152q4.3,0,6.75-4.3l4.01,1.956a11.951,11.951,0,0,1-4.475,4.744A12.378,12.378,0,0,1,572.974,288.849ZM565.785,273.2h13.743a5.968,5.968,0,0,0-2.029-4.133,7.109,7.109,0,0,0-4.916-1.638,6.522,6.522,0,0,0-4.377,1.565A7.473,7.473,0,0,0,565.785,273.2Z" transform="translate(-358.766 -252.268)"/>
        <path id="Path_77" data-name="Path 77" class="cls-4" d="M610.264,288.128h-4.5V264.165h4.3v3.912h.2a6.5,6.5,0,0,1,2.812-3.252,7.8,7.8,0,0,1,4.181-1.345,8.434,8.434,0,0,1,3.326.586l-1.369,4.353a7.466,7.466,0,0,0-2.641-.343,5.822,5.822,0,0,0-4.426,2.054,6.866,6.866,0,0,0-1.883,4.793Z" transform="translate(-376.101 -252.329)"/>
        <path id="Path_78" data-name="Path 78" class="cls-4" d="M650.439,281.416A6.5,6.5,0,0,1,647.7,286.7a10.821,10.821,0,0,1-6.9,2.152,10.944,10.944,0,0,1-6.358-1.883A10.372,10.372,0,0,1,630.534,282l4.01-1.711a7.437,7.437,0,0,0,2.567,3.35,6.237,6.237,0,0,0,3.693,1.2,6.506,6.506,0,0,0,3.595-.93,2.636,2.636,0,0,0,1.442-2.2q0-2.3-3.521-3.375l-4.108-1.027q-6.995-1.76-6.994-6.749a6.233,6.233,0,0,1,2.665-5.258,12.221,12.221,0,0,1,12.569-.465,8.241,8.241,0,0,1,3.595,4.06l-4.01,1.663a5.047,5.047,0,0,0-2.225-2.372,6.984,6.984,0,0,0-3.447-.856,5.788,5.788,0,0,0-3.155.88,2.537,2.537,0,0,0-1.393,2.152q0,2.054,3.864,2.934l3.619.93Q650.439,275.987,650.439,281.416Z" transform="translate(-385.661 -252.268)"/>
      </g>
      <g id="Group_31" data-name="Group 31" transform="translate(152.359 236.995)">
        <path id="Path_79" data-name="Path 79" class="cls-1" d="M267.167,265.03q0,7.337-4.353,11.689-4.89,5.184-12.862,5.183a18.291,18.291,0,1,1,0-36.582,19.447,19.447,0,0,1,7.287,1.369,14.564,14.564,0,0,1,5.624,3.864l-3.228,3.228a10.855,10.855,0,0,0-4.182-3.057,13.825,13.825,0,0,0-5.5-1.1,13.174,13.174,0,0,0-9.684,3.961,14.8,14.8,0,0,0,0,20.052,13.175,13.175,0,0,0,9.684,3.961,13.023,13.023,0,0,0,8.706-2.935,11.7,11.7,0,0,0,4.01-8.069H249.951v-4.206h16.97A14.991,14.991,0,0,1,267.167,265.03Z" transform="translate(-231.758 -245.321)"/>
        <path id="Path_80" data-name="Path 80" class="cls-1" d="M298.341,281.612V246.6h10.71q8.02,0,12.887,4.842T326.8,264.1q0,7.874-4.866,12.691t-12.887,4.817Zm4.5-30.713v26.409h6.211q6.112,0,9.635-3.5t3.521-9.708q0-6.163-3.521-9.684t-9.635-3.521Z" transform="translate(-257.455 -245.813)"/>
        <path id="Path_81" data-name="Path 81" class="cls-1" d="M386,265.03q0,7.337-4.353,11.689-4.891,5.184-12.862,5.183a18.291,18.291,0,1,1,0-36.582,19.447,19.447,0,0,1,7.287,1.369,14.568,14.568,0,0,1,5.624,3.864l-3.228,3.228a10.858,10.858,0,0,0-4.181-3.057,13.827,13.827,0,0,0-5.5-1.1,13.173,13.173,0,0,0-9.684,3.961,14.8,14.8,0,0,0,0,20.052,13.174,13.174,0,0,0,9.684,3.961,13.023,13.023,0,0,0,8.706-2.935,11.7,11.7,0,0,0,4.01-8.069H368.78v-4.206h16.97A15.052,15.052,0,0,1,386,265.03Z" transform="translate(-277.619 -245.321)"/>
        <path id="Path_82" data-name="Path 82" class="cls-1" d="M432.511,281.612h-4.989l13.2-35.017h5.086l13.2,35.017h-4.989l-3.374-9.487H435.933Zm10.661-29.49-5.723,15.8h11.64l-5.722-15.8Z" transform="translate(-307.311 -245.813)"/>
        <path id="Path_83" data-name="Path 83" class="cls-1" d="M488.728,246.6v35.017h-4.5V246.6Z" transform="translate(-329.196 -245.813)"/>
        <path id="Path_84" data-name="Path 84" class="cls-1" d="M509.83,299.413a13.4,13.4,0,0,1-3.765-.513,12.2,12.2,0,0,1-3.2-1.443,10.344,10.344,0,0,1-2.47-2.2,9.265,9.265,0,0,1-1.565-2.836l4.255-1.761a6.739,6.739,0,0,0,2.543,3.374,7.131,7.131,0,0,0,4.206,1.271,7.444,7.444,0,0,0,5.723-2.2,8.541,8.541,0,0,0,2.054-6.064v-2.3h-.2a8.861,8.861,0,0,1-3.448,3.008,10.32,10.32,0,0,1-4.72,1.1,10.594,10.594,0,0,1-8.069-3.668,13.265,13.265,0,0,1-3.326-9.1,13.084,13.084,0,0,1,3.326-9.047,10.535,10.535,0,0,1,8.069-3.718,10.321,10.321,0,0,1,4.72,1.1,8.858,8.858,0,0,1,3.448,3.008h.2V264.1h4.3V287.04q0,5.771-3.277,9.048A11.9,11.9,0,0,1,509.83,299.413Zm.147-14.672a6.889,6.889,0,0,0,5.428-2.4,9.934,9.934,0,0,0,0-12.471,6.925,6.925,0,0,0-5.428-2.445,7.019,7.019,0,0,0-5.429,2.445,8.935,8.935,0,0,0-2.2,6.211,8.822,8.822,0,0,0,2.2,6.211A7.015,7.015,0,0,0,509.977,284.742Z" transform="translate(-334.452 -252.268)"/>
        <path id="Path_85" data-name="Path 85" class="cls-1" d="M551.434,249.136a3.172,3.172,0,1,1-.929-2.249A3.065,3.065,0,0,1,551.434,249.136ZM550.5,257.4v23.964h-4.5V257.4Z" transform="translate(-352.679 -245.567)"/>
        <path id="Path_86" data-name="Path 86" class="cls-1" d="M572.974,288.849a11.46,11.46,0,0,1-8.706-3.619,12.778,12.778,0,0,1-3.423-9.146,13.016,13.016,0,0,1,3.325-9.121,11.957,11.957,0,0,1,17-.2q3.155,3.448,3.154,9.659l-.049.489H565.443a7.8,7.8,0,0,0,2.348,5.673,7.507,7.507,0,0,0,5.379,2.152q4.3,0,6.75-4.3l4.01,1.956a11.951,11.951,0,0,1-4.475,4.744A12.378,12.378,0,0,1,572.974,288.849ZM565.785,273.2h13.743a5.968,5.968,0,0,0-2.029-4.133,7.109,7.109,0,0,0-4.916-1.638,6.522,6.522,0,0,0-4.377,1.565A7.473,7.473,0,0,0,565.785,273.2Z" transform="translate(-358.766 -252.268)"/>
        <path id="Path_87" data-name="Path 87" class="cls-1" d="M610.264,288.128h-4.5V264.165h4.3v3.912h.2a6.5,6.5,0,0,1,2.812-3.252,7.8,7.8,0,0,1,4.181-1.345,8.434,8.434,0,0,1,3.326.586l-1.369,4.353a7.466,7.466,0,0,0-2.641-.343,5.822,5.822,0,0,0-4.426,2.054,6.866,6.866,0,0,0-1.883,4.793Z" transform="translate(-376.101 -252.329)"/>
        <path id="Path_88" data-name="Path 88" class="cls-1" d="M650.439,281.416A6.5,6.5,0,0,1,647.7,286.7a10.821,10.821,0,0,1-6.9,2.152,10.944,10.944,0,0,1-6.358-1.883A10.372,10.372,0,0,1,630.534,282l4.01-1.711a7.437,7.437,0,0,0,2.567,3.35,6.237,6.237,0,0,0,3.693,1.2,6.506,6.506,0,0,0,3.595-.93,2.636,2.636,0,0,0,1.442-2.2q0-2.3-3.521-3.375l-4.108-1.027q-6.995-1.76-6.994-6.749a6.233,6.233,0,0,1,2.665-5.258,12.221,12.221,0,0,1,12.569-.465,8.241,8.241,0,0,1,3.595,4.06l-4.01,1.663a5.047,5.047,0,0,0-2.225-2.372,6.984,6.984,0,0,0-3.447-.856,5.788,5.788,0,0,0-3.155.88,2.537,2.537,0,0,0-1.393,2.152q0,2.054,3.864,2.934l3.619.93Q650.439,275.987,650.439,281.416Z" transform="translate(-385.661 -252.268)"/>
      </g>
      <g id="Group_32" data-name="Group 32" transform="translate(26.028 225.919)">
        <path id="Path_89" data-name="Path 89" class="cls-5" d="M67.125,285.846a12.98,12.98,0,0,1-6.478-1.74L32.511,267.862a12.968,12.968,0,0,1,.548-22.763L60.9,229.025a12.97,12.97,0,1,1,12.97,22.466l-8.919,5.149,8.663,5a12.972,12.972,0,0,1-6.492,24.205Z" transform="translate(-26.028 -227.285)"/>
        <path id="Path_90" data-name="Path 90" class="cls-5" d="M77.452,239.316a8.059,8.059,0,0,0-11.008-2.95l-27.96,16.143a8.055,8.055,0,0,0-.432,14.187L66.188,282.94a8.058,8.058,0,0,0,8.058-13.957l-16.032-9.256,16.288-9.4A8.058,8.058,0,0,0,77.452,239.316Z" transform="translate(-29.113 -230.373)"/>
        <path id="Path_91" data-name="Path 91" class="cls-5" d="M128.586,286.263a13.016,13.016,0,0,1-11.241-6.488,12.971,12.971,0,0,1,4.748-17.718l8.919-5.149-8.663-5A12.971,12.971,0,1,1,135.32,229.44l28.136,16.245a12.967,12.967,0,0,1-.549,22.763l-27.843,16.076a12.973,12.973,0,0,1-6.477,1.74Z" transform="translate(-60.598 -227.446)"/>
        <path id="Path_92" data-name="Path 92" class="cls-5" d="M164.09,253.027l-28.136-16.244A8.058,8.058,0,1,0,127.9,250.74L143.927,260l-16.287,9.4a8.058,8.058,0,0,0,8.058,13.958l27.959-16.143a8.055,8.055,0,0,0,.433-14.187Z" transform="translate(-63.688 -230.533)"/>
      </g>
      <path id="Path_93" data-name="Path 93" class="cls-1" d="M759.415,284.686H741.324c-10.2-4.531-18.146-12.322-23.765-23.285a1.426,1.426,0,0,0,.044-.584,180.717,180.717,0,0,1-.941-33.527,1.427,1.427,0,0,0-1.34-1.511,1.459,1.459,0,0,0-1.51,1.339,195.889,195.889,0,0,0,.124,25.907,92.407,92.407,0,0,1-3.215-11.118,1.413,1.413,0,0,0-.075-.224,130.646,130.646,0,0,1,2.426-16.215,1.428,1.428,0,1,0-2.794-.59q-1.257,5.963-1.957,11.57a1.426,1.426,0,0,0-.636.6,13.254,13.254,0,0,0-4.214-.045,1.419,1.419,0,0,0-.434-.644,84.041,84.041,0,0,0-2.5-11.587,1.427,1.427,0,1,0-2.741.8,79.994,79.994,0,0,1,2.909,15.579c.008.1.014.192.021.287-.005.018-.006.039-.011.057a1.372,1.372,0,0,0-.043.227,50.685,50.685,0,0,1-3.892,15.832,238.7,238.7,0,0,0,.769-30.394,1.429,1.429,0,0,0-2.856.085c.451,14.973-.111,27.471-1.666,37.148a1.443,1.443,0,0,0-.014.235q-7.495,11.674-22.062,20.056H655.488a1.177,1.177,0,0,0,0,2.354H759.415a1.177,1.177,0,0,0,0-2.354ZM707.729,257.33q.306,3.753.938,7.315-.925-2.395-1.685-4.759Q707.378,258.6,707.729,257.33Zm-4.159-16.2c.02.238.032.476.049.714s.034.476.05.714h3.707a68.337,68.337,0,0,1-1.893,12.057,67.832,67.832,0,0,1-1.713-10.071c-.061-.664-.106-1.326-.144-1.985-.014-.238-.029-.477-.041-.714s-.017-.476-.026-.714Zm-.325,16.216q.346,1.26.738,2.528-1.022,3.194-2.337,6.453A83.68,83.68,0,0,0,703.245,257.346Zm-11.19,27.34H676.429c11.925-7.745,19.983-17.385,24.1-28.822A87.924,87.924,0,0,1,692.055,284.686Zm13.021,0q.237-2.017.427-4.156.188,2.143.426,4.156Zm10.465,0h-8.177a181.847,181.847,0,0,1-1.131-18.414l-.034-.088c.008-.5.011-1.018.016-1.527-.008-.778-.014-1.564-.016-2.362,0-.769,0-1.538,0-2.327a.7.7,0,1,0-1.4,0c0,.82,0,1.619,0,2.418,0,.768-.008,1.522-.015,2.271,0,.491.008.988.015,1.471l-.032.084a182.268,182.268,0,0,1-1.132,18.475h-8.419c.3-.653,7.3-12.7,9.551-18.475.008-.51.011-1.037.016-1.555-.009-.779-.014-1.565-.016-2.364,0-.771,0-1.541,0-2.332a.714.714,0,0,1,.714-.71h0l.012,0,.011,0h0a.714.714,0,0,1,.714.71c0,.76,0,1.5,0,2.24q0,1.245-.016,2.456c.006.539.009,1.086.018,1.615,2.2,5.581,9.254,18.249,9.356,18.414Zm3.418,0h-.136q-.514-.9-1-1.813c-4.855-9.2-7.355-19.694-7.519-31.627,5.01,15.506,13.3,26.7,24.754,33.439Z" transform="translate(-242.478 0)"/>
      <g id="Group" transform="translate(30.937 230.832)">
        <path id="Rectangle-Copy" class="cls-6" d="M66.605,236.366,38.469,252.61a8.059,8.059,0,0,0-2.95,11.008h0a8.059,8.059,0,0,0,11.008,2.949l28.136-16.244a8.058,8.058,0,0,0,2.949-11.008h0A8.059,8.059,0,0,0,66.605,236.366Z" transform="translate(-34.182 -235.285)"/>
        <path id="Rectangle-Copy-2" class="cls-7" d="M74.247,279.273,46.11,263.029A8.058,8.058,0,0,0,35.1,265.978h0a8.058,8.058,0,0,0,2.949,11.008L66.188,293.23A8.058,8.058,0,0,0,77.2,290.281h0A8.058,8.058,0,0,0,74.247,279.273Z" transform="translate(-34.022 -245.575)"/>
        <path id="Rectangle" class="cls-8" d="M127.64,279.689l28.136-16.244a8.059,8.059,0,0,1,11.008,2.95h0a8.058,8.058,0,0,1-2.949,11.008L135.7,293.647a8.058,8.058,0,0,1-11.008-2.949h0A8.058,8.058,0,0,1,127.64,279.689Z" transform="translate(-68.597 -245.736)"/>
        <path id="Path_94" data-name="Path 94" class="cls-9" d="M136.114,236.783l28.136,16.244a8.059,8.059,0,0,1,2.95,11.008h0a8.059,8.059,0,0,1-11.008,2.95L128.057,250.74a8.058,8.058,0,0,1-2.95-11.008h0A8.058,8.058,0,0,1,136.114,236.783Z" transform="translate(-68.758 -235.446)"/>
      </g>
    </g>
    <text id="GDG_Algiers_2019_" data-name="GDG Algiers 2019©" class="cls-10" transform="translate(1754 2121)"><tspan x="-145.39" y="0">GDG Algiers 2019©</tspan></text>
  </g>
</svg>
