<svg xmlns="http://www.w3.org/2000/svg" xmlns:xlink="http://www.w3.org/1999/xlink" viewBox="0 0 255.619 97.098"><defs><style>.a,.b,.e,.f{fill:#ededed;}.a{font-size:53px;font-family:ProductSans-Bold, Product Sans;font-weight:700;}.c,.d{fill:none;}.c,.d,.e{stroke:#ededed;stroke-miterlimit:10;}.c{stroke-width:2px;}.d{stroke-linecap:round;}.e{stroke-linejoin:round;}.f{font-size:19px;font-family:ProductSans-Regular, Product Sans;}.g{fill:#ffc107;}.h{fill:#0f9d58;}.i{fill:url(#a);}.j{fill:url(#b);}.k{fill:#4285f4;}.l{fill:#db4437;}.m{fill:#3e2723;opacity:0.2;}</style><radialGradient id="a" cx="70.562" cy="34.586" r="24.752" gradientTransform="matrix(1.376, 0, 0, -1.358, -9.625, -67.277)" gradientUnits="userSpaceOnUse"><stop offset="0" stop-color="#bf360c" stop-opacity="0.2"/><stop offset="1" stop-color="#bf360c" stop-opacity="0.02"/></radialGradient><radialGradient id="b" cx="68.262" cy="44.945" r="23.93" gradientTransform="matrix(1.435, 0, 0, -1.416, -15.08, -16.61)" gradientUnits="userSpaceOnUse"><stop offset="0" stop-color="#263238" stop-opacity="0.2"/><stop offset="1" stop-color="#263238" stop-opacity="0.02"/></radialGradient></defs><g transform="translate(69.718 15.638)"><g transform="translate(0 1.591)"><text class="a" transform="translate(0 51)"><tspan x="0" y="0">GDG</tspan></text></g><g transform="translate(125.806)"><g transform="translate(30.973 0.135)"><path class="b" d="M247.8,76.112a.914.914,0,0,1-.7-.3C235.7,63.481,232.4,47,237,25.589a1.037,1.037,0,0,1,1.2-.789,1.024,1.024,0,0,1,.8,1.184c-4.4,20.722-1.3,36.609,9.6,48.45a.951.951,0,0,1-.1,1.381A1.339,1.339,0,0,1,247.8,76.112Z" transform="translate(-234.996 -24.785)"/></g><g transform="translate(31.258 11.973)"><path class="b" d="M263.1,70.646h-.3c-14.2-4.046-23.4-15-27.5-32.662a1,1,0,0,1,.8-1.184,1.012,1.012,0,0,1,1.2.789c3.9,16.972,12.6,27.432,26.1,31.182a1.07,1.07,0,0,1,.7,1.184A1.2,1.2,0,0,1,263.1,70.646Z" transform="translate(-235.281 -36.781)"/></g><g transform="translate(0 11.681)"><path class="b" d="M205,71.431a.961.961,0,0,1-.9-.592.974.974,0,0,1,.5-1.283c15.8-7.4,24.4-18.157,25.6-32.169a1,1,0,0,1,2,.2c-1.3,14.7-10.3,26.149-26.8,33.747C205.3,71.333,205.1,71.431,205,71.431Z" transform="translate(-204.023 -36.485)"/></g><g transform="translate(20.861 1.631)"><path class="b" d="M225.9,54.028h-.2a.979.979,0,0,1-.8-1.085,138.908,138.908,0,0,0,1.2-25.656.939.939,0,0,1,1-.987,1,1,0,0,1,1,.987,143.475,143.475,0,0,1-1.2,26.051A1.264,1.264,0,0,1,225.9,54.028Z" transform="translate(-224.885 -26.3)"/></g><g transform="translate(35.136 1.418)"><path class="b" d="M241.1,51.46a1.058,1.058,0,0,1-1-.888,128.867,128.867,0,0,1-.7-23.584,1,1,0,0,1,2,.2,116.751,116.751,0,0,0,.7,23.189.936.936,0,0,1-.9,1.085Z" transform="translate(-239.159 -26.085)"/></g><g transform="translate(29.777 9.624)"><path class="c" d="M233.8,34.4" transform="translate(-233.8 -34.4)"/></g><g transform="translate(27.677 11.992)"><path class="c" d="M231.7,36.8" transform="translate(-231.7 -36.8)"/></g><g transform="translate(31.277 12.288)"><path class="d" d="M235.3,37.1" transform="translate(-235.3 -37.1)"/></g><g transform="translate(29.777 9.525)"><path class="d" d="M233.8,34.3" transform="translate(-233.8 -34.3)"/></g><g transform="translate(15.008)"><path class="b" d="M220,77.1a.769.769,0,0,1-.5-.2.963.963,0,0,1-.3-1.381c10.8-16.479,13.8-33.155,9-49.634a.936.936,0,0,1,.7-1.184.95.95,0,0,1,1.2.691c5,16.972,1.9,34.241-9.2,51.213A.877.877,0,0,1,220,77.1Z" transform="translate(-219.031 -24.647)"/></g><g transform="translate(26.261 8.538)"><path class="b" d="M242.8,69.416a1.022,1.022,0,0,1-.8-.493c-8.1-12.236-12-23.88-11.7-34.636a1,1,0,0,1,2,0c-.3,10.361,3.5,21.61,11.4,33.451a.963.963,0,0,1-.3,1.381A1.555,1.555,0,0,1,242.8,69.416Z" transform="translate(-230.284 -33.3)"/></g><g transform="translate(19.508 8.735)"><path class="b" d="M224.5,69.418a.769.769,0,0,1-.5-.2.963.963,0,0,1-.3-1.381c7.7-11.94,11.5-23.09,11.3-33.353a.939.939,0,0,1,1-.987,1,1,0,0,1,1,.987c.2,10.657-3.7,22.2-11.6,34.438A1.053,1.053,0,0,1,224.5,69.418Z" transform="translate(-223.531 -33.5)"/></g><g transform="translate(29.07 24.622)"><path class="b" d="M236.5,78.118a.509.509,0,0,1-.5-.395c-2-6.809-3-15.591-2.9-27.63a.469.469,0,0,1,.5-.493h0a.469.469,0,0,1,.5.493c-.1,11.94.8,20.623,2.8,27.333a.478.478,0,0,1-.3.592A.1.1,0,0,1,236.5,78.118Z" transform="translate(-233.093 -49.6)"/></g><g transform="translate(26.239 24.721)"><path class="b" d="M230.7,78.119h-.1a.438.438,0,0,1-.3-.592c2-6.71,2.9-15.394,2.8-27.333a.5.5,0,0,1,1,0c.1,12.039-.9,20.821-2.9,27.629C231.2,77.922,231,78.119,230.7,78.119Z" transform="translate(-230.262 -49.7)"/></g><g transform="translate(21.677 40.188)"><path class="b" d="M226.5,76.353a.456.456,0,0,1-.5-.395,43.193,43.193,0,0,1,0-10.164c0-.3.3-.493.5-.395.3,0,.5.3.4.493a41.535,41.535,0,0,0,0,9.966c.2.2,0,.493-.4.493Z" transform="translate(-225.7 -65.374)"/></g><g transform="translate(35.977 39.621)"><path class="b" d="M240.5,75.852h0a.555.555,0,0,1-.5-.592,41.537,41.537,0,0,0,0-9.966.453.453,0,0,1,.9-.1,43.193,43.193,0,0,1,0,10.164C241,75.654,240.7,75.852,240.5,75.852Z" transform="translate(-240 -64.8)"/></g><path class="e" d="M235.9,37.361h-4.6l-.4-2.566a9.674,9.674,0,0,1,5.3,0Z" transform="translate(-204.023 -24.777)"/></g><g transform="translate(126.294 50.724)"><text class="f" transform="translate(0 18)"><tspan x="0" y="0">Algiers</tspan></text></g></g><g transform="translate(0 0)"><path class="g" d="M54,87.213,45.8,73.3,26.2,106.751H43L54.2,87.608Z" transform="translate(-8.5 -9.653)"/><path class="h" d="M37,58l8.8,15.1L26.2,106.549H8.5Z" transform="translate(-8.5 -9.451)"/><path class="i" d="M54.2,87.608h0L45.8,73.3l-2,3.552Z" transform="translate(-8.5 -9.653)"/><path class="j" d="M43.8,76.65l2-3.552L37,58l-4.2,7.2Z" transform="translate(-8.5 -9.451)"/><path class="k" d="M26.2,8.8H8.5L54.2,86.755l8.9-15.1h0Z" transform="translate(-8.5 -8.8)"/><path class="l" d="M68.8,61.888a8.717,8.717,0,0,0,0-9.078L43,8.8H26.2L63.1,71.756Z" transform="translate(-8.5 -8.8)"/><path class="m" d="M63.1,72.3l5.7-9.769A8.63,8.63,0,0,0,70,57.6a9.949,9.949,0,0,1-1.2,4.144l-6,10.164Z" transform="translate(-8.5 -9.446)"/></g></svg>