<svg xmlns="http://www.w3.org/2000/svg" viewBox="0 0 476.16 61.86"><defs><style>.cls-1{fill:#676c72;}.cls-2{fill:#ea4334;}.cls-2,.cls-3,.cls-4,.cls-5{fill-rule:evenodd;}.cls-3{fill:#4285f4;}.cls-4{fill:#fcbc05;}.cls-5{fill:#0d9d58;}.cls-6{fill:none;}</style></defs><title>GDG_Algiers_Logo_Dark</title><g id="Layer_2" data-name="Layer 2"><g id="Layer_14" data-name="Layer 14"><path class="cls-1" d="M153.28,32.21q0,7.17-4.25,11.43a16.51,16.51,0,0,1-12.57,5.06,17.62,17.62,0,0,1-17.78-17.87,17.28,17.28,0,0,1,5.16-12.72A17.17,17.17,0,0,1,136.46,13a18.82,18.82,0,0,1,7.12,1.34,14.32,14.32,0,0,1,5.5,3.77l-3.16,3.16a10.57,10.57,0,0,0-4.08-3,13.5,13.5,0,0,0-5.38-1.08A12.91,12.91,0,0,0,127,21a13.46,13.46,0,0,0-3.82,9.8A13.44,13.44,0,0,0,127,40.62a13.75,13.75,0,0,0,18,1,11.43,11.43,0,0,0,3.92-7.89H136.46V29.63h16.59A15.54,15.54,0,0,1,153.28,32.21Z"/><path class="cls-1" d="M158.64,47.94V13.71h10.47q7.83,0,12.59,4.74t4.76,12.38q0,7.7-4.76,12.4t-12.59,4.71Zm4.4-30V43.73h6.07q6,0,9.41-3.42c2.3-2.27,3.44-5.44,3.44-9.48s-1.14-7.17-3.44-9.47-5.43-3.44-9.41-3.44Z"/><path class="cls-1" d="M224.6,32.21q0,7.17-4.25,11.43a16.51,16.51,0,0,1-12.57,5.06A17.62,17.62,0,0,1,190,30.83a17.28,17.28,0,0,1,5.16-12.72A17.17,17.17,0,0,1,207.78,13a18.86,18.86,0,0,1,7.12,1.34,14.32,14.32,0,0,1,5.5,3.77l-3.16,3.16a10.53,10.53,0,0,0-4.09-3,13.42,13.42,0,0,0-5.37-1.08A12.89,12.89,0,0,0,198.31,21a13.46,13.46,0,0,0-3.82,9.8,13.44,13.44,0,0,0,3.82,9.79,13.75,13.75,0,0,0,18,1,11.47,11.47,0,0,0,3.92-7.89H207.78V29.63h16.58A14.58,14.58,0,0,1,224.6,32.21Z"/><path class="cls-1" d="M241.05,47.94h-4.88l12.91-34.23h5L267,47.94h-4.87l-3.3-9.27H244.39Zm10.42-28.83-5.6,15.44h11.38l-5.59-15.44Z"/><path class="cls-1" d="M274.6,13.71V47.94h-4.4V13.71Z"/><path class="cls-1" d="M290.09,59a13.25,13.25,0,0,1-3.68-.5,12.21,12.21,0,0,1-3.13-1.41A10.26,10.26,0,0,1,280.86,55a8.93,8.93,0,0,1-1.53-2.77l4.16-1.72a6.61,6.61,0,0,0,2.49,3.3A7,7,0,0,0,290.09,55a7.25,7.25,0,0,0,5.59-2.15,8.34,8.34,0,0,0,2-5.93V44.69h-.19a8.69,8.69,0,0,1-3.37,2.94,10.18,10.18,0,0,1-4.61,1.07,10.36,10.36,0,0,1-7.89-3.58,13,13,0,0,1-3.25-8.89,12.8,12.8,0,0,1,3.25-8.85,10.31,10.31,0,0,1,7.89-3.63,10.06,10.06,0,0,1,4.61,1.08,8.54,8.54,0,0,1,3.37,2.94h.19V24.52h4.21V46.93q0,5.64-3.21,8.85A11.64,11.64,0,0,1,290.09,59Zm.14-14.34a6.74,6.74,0,0,0,5.31-2.34,8.74,8.74,0,0,0,2.15-6.12,8.73,8.73,0,0,0-2.15-6.07,6.74,6.74,0,0,0-5.31-2.39,6.82,6.82,0,0,0-5.3,2.39,8.69,8.69,0,0,0-2.15,6.07,8.6,8.6,0,0,0,2.15,6.07A6.86,6.86,0,0,0,290.23,44.69Z"/><path class="cls-1" d="M312.94,16.44a3.11,3.11,0,1,1-5.31-2.2,3.11,3.11,0,0,1,5.31,2.2ZM312,24.52V47.94h-4.4V24.52Z"/><path class="cls-1" d="M328,48.7a11.23,11.23,0,0,1-8.51-3.53,12.5,12.5,0,0,1-3.34-8.94,12.73,12.73,0,0,1,3.25-8.92,11.69,11.69,0,0,1,16.61-.19q3.07,3.38,3.08,9.44l-.05.48h-18.4a7.6,7.6,0,0,0,2.3,5.54,7.29,7.29,0,0,0,5.25,2.11q4.22,0,6.6-4.21l3.92,1.91A11.7,11.7,0,0,1,334.38,47,12.08,12.08,0,0,1,328,48.7Zm-7-15.29h13.44a5.83,5.83,0,0,0-2-4,6.91,6.91,0,0,0-4.8-1.6,6.38,6.38,0,0,0-4.28,1.53A7.38,7.38,0,0,0,321,33.41Z"/><path class="cls-1" d="M347.54,47.94h-4.39V24.52h4.2v3.82h.19a6.43,6.43,0,0,1,2.75-3.18,7.69,7.69,0,0,1,4.09-1.31,8.29,8.29,0,0,1,3.25.57l-1.34,4.25a7.36,7.36,0,0,0-2.58-.33,5.7,5.7,0,0,0-4.33,2A6.75,6.75,0,0,0,347.54,35Z"/><path class="cls-1" d="M377.47,41.44a6.36,6.36,0,0,1-2.68,5.16,11.64,11.64,0,0,1-13,.26A10.11,10.11,0,0,1,358,42l3.92-1.67a7.31,7.31,0,0,0,2.51,3.27,6.1,6.1,0,0,0,3.61,1.17,6.4,6.4,0,0,0,3.51-.9A2.59,2.59,0,0,0,373,41.72c0-1.49-1.14-2.59-3.44-3.29l-4-1q-6.84-1.71-6.84-6.59a6.08,6.08,0,0,1,2.61-5.14,11.93,11.93,0,0,1,12.28-.46,8,8,0,0,1,3.51,4l-3.91,1.63A5,5,0,0,0,371,28.51a6.8,6.8,0,0,0-3.37-.84,5.67,5.67,0,0,0-3.08.86,2.49,2.49,0,0,0-1.36,2.1c0,1.34,1.25,2.3,3.77,2.87l3.54.91Q377.47,36.14,377.47,41.44Z"/><g id="Group"><path id="Rectangle-Copy" class="cls-2" d="M31.69,8,4.19,23.86A7.87,7.87,0,0,0,1.31,34.62h0A7.88,7.88,0,0,0,12.07,37.5l27.5-15.88a7.89,7.89,0,0,0,2.88-10.76h0A7.89,7.89,0,0,0,31.69,8Z"/><path id="Rectangle-Copy-2" class="cls-3" d="M39.32,39.86,11.82,24A7.88,7.88,0,0,0,1.06,26.87h0A7.87,7.87,0,0,0,3.94,37.63L31.44,53.5A7.87,7.87,0,0,0,42.2,50.62h0A7.89,7.89,0,0,0,39.32,39.86Z"/><path id="Rectangle" class="cls-4" d="M57.71,40.11l27.5-15.88A7.88,7.88,0,0,1,96,27.12h0a7.88,7.88,0,0,1-2.89,10.76L65.58,53.75a7.87,7.87,0,0,1-10.76-2.88h0A7.88,7.88,0,0,1,57.71,40.11Z"/><path class="cls-5" d="M65.83,8.23l27.5,15.88a7.88,7.88,0,0,1,2.89,10.76h0a7.88,7.88,0,0,1-10.76,2.88L58,21.87a7.88,7.88,0,0,1-2.89-10.76h0A7.89,7.89,0,0,1,65.83,8.23Z"/></g><path class="cls-6" d="M413,58.81l-.06.75h7.53a178.65,178.65,0,0,0,1.1-18.06A116.58,116.58,0,0,1,413,58.81Z"/><path class="cls-6" d="M425.41,40q-.62-3.48-.92-7.15c-.23.83-.47,1.67-.73,2.5Q424.51,37.63,425.41,40Z"/><path class="cls-6" d="M420.52,18.39c.05.64.08,1.29.1,1.94a67.54,67.54,0,0,0,1.68,9.84,67.52,67.52,0,0,0,1.85-11.78Z"/><path class="cls-6" d="M420.11,32.84a84.19,84.19,0,0,1-1.56,8.78q1.29-3.19,2.28-6.31C420.58,34.48,420.34,33.66,420.11,32.84Z"/><path class="cls-6" d="M393.9,59.56h15.27a86,86,0,0,0,8.28-28.17C413.43,42.57,405.56,52,393.9,59.56Z"/><path class="cls-6" d="M427,26.88c.16,11.66,2.61,21.92,7.35,30.91q.54.89,1.11,1.77h15.74C440,53,431.91,42,427,26.88Z"/><path class="cls-6" d="M423,41.56a177.35,177.35,0,0,0,1.11,18h7.33l-.09-1.31A112,112,0,0,1,423,41.56Z"/><path class="cls-6" d="M421.9,59.56h.83c-.15-1.31-.29-2.66-.41-4.06C422.19,56.9,422.05,58.25,421.9,59.56Z"/><path class="cls-1" d="M425.41,40a110,110,0,0,0,8.95,17.82c-4.74-9-7.19-19.25-7.35-30.91q-.37-1.17-.72-2.37a75.45,75.45,0,0,1-1.8,8.31Q424.79,36.5,425.41,40Z"/><path class="cls-1" d="M427.06,13.65c0,1.13,0,2.26,0,3.4a1.31,1.31,0,0,1,.32.48,129.86,129.86,0,0,1,2.37-15.85A1.39,1.39,0,1,0,427,1.11q-1.23,5.82-1.91,11.31a1.27,1.27,0,0,1,.58-.14A1.41,1.41,0,0,1,427.06,13.65Z"/><path class="cls-1" d="M427,26.88C431.91,42,440,53,451.21,59.56h6.12c-10-4.43-17.74-12-23.23-22.76a1.39,1.39,0,0,1-1.15,1h-.19a1.39,1.39,0,0,1-1.38-1.21c-.34-2.53-.61-5.21-.82-8a91.47,91.47,0,0,1-3.14-10.87,1.43,1.43,0,0,0-.08-.22Q427,22.35,427,26.88Z"/><path class="cls-1" d="M426.29,24.51q.34,1.2.72,2.37-.06-4.53.33-9.35a1.31,1.31,0,0,0-.32-.48A66.28,66.28,0,0,1,426.29,24.51Z"/><path class="cls-1" d="M417.45,31.39a75.33,75.33,0,0,0,.38-11c-.09-1-.16-2-.19-3a1.42,1.42,0,0,0-.05.22A49.4,49.4,0,0,1,413.79,33q-.37,3.78-.91,7.13a1.4,1.4,0,0,1-1.38,1.18l-.22,0A1.38,1.38,0,0,1,410.11,40q-7.33,11.42-21.57,19.6h5.36C405.56,52,413.43,42.57,417.45,31.39Z"/><path class="cls-1" d="M414.54,3.34a1.4,1.4,0,0,0-2.79.08c.44,14.64-.11,26.85-1.63,36.31a1.77,1.77,0,0,0,0,.23A47.83,47.83,0,0,0,413.79,33,233.24,233.24,0,0,0,414.54,3.34Z"/><path class="cls-1" d="M411.28,41.33l.22,0a1.4,1.4,0,0,0,1.38-1.18q.54-3.35.91-7.13A47.83,47.83,0,0,1,410.11,40,1.38,1.38,0,0,0,411.28,41.33Z"/><path class="cls-1" d="M434.14,36.23a177.22,177.22,0,0,1-.92-32.77A1.38,1.38,0,0,0,431.91,2a1.42,1.42,0,0,0-1.47,1.31,192.06,192.06,0,0,0,.12,25.32,70.17,70.17,0,0,0,3.54,8.18A1.36,1.36,0,0,0,434.14,36.23Z"/><path class="cls-1" d="M432.76,37.81H433a1.39,1.39,0,0,0,1.15-1,70.17,70.17,0,0,1-3.54-8.18c.21,2.77.48,5.45.82,8A1.39,1.39,0,0,0,432.76,37.81Z"/><path class="cls-1" d="M420.48,18.39c0,.64.08,1.29.14,1.94,0-.65-.05-1.3-.1-1.94Z"/><path class="cls-1" d="M418.55,41.62a84.19,84.19,0,0,0,1.56-8.78q-.8-2.88-1.33-5.7c-.38,1.44-.83,2.86-1.33,4.25a86,86,0,0,1-8.28,28.17h.12A117.2,117.2,0,0,0,418.55,41.62Z"/><path class="cls-1" d="M417.61,13.35A1.43,1.43,0,0,1,419.05,12a1.39,1.39,0,0,1,.86.33A83,83,0,0,0,417.46,1a1.4,1.4,0,1,0-2.68.78A78,78,0,0,1,417.63,17C417.58,15.78,417.58,14.56,417.61,13.35Z"/><path class="cls-1" d="M417.83,20.36a75.33,75.33,0,0,1-.38,11c.5-1.39.95-2.81,1.33-4.25A64.59,64.59,0,0,1,417.83,20.36Z"/><path class="cls-1" d="M422.3,30.17a67.54,67.54,0,0,1-1.68-9.84,77.08,77.08,0,0,1-.51,12.51c.23.82.47,1.64.72,2.47C421.38,33.58,421.88,31.87,422.3,30.17Z"/><path class="cls-1" d="M435.34,59.56h.13q-.57-.89-1.11-1.77C434.68,58.39,435,59,435.34,59.56Z"/><path class="cls-1" d="M425.41,40q-.9-2.34-1.65-4.65c-.23.75-.47,1.51-.73,2.27,0,.81,0,1.61,0,2.39,0,.53,0,1.07,0,1.58a112,112,0,0,0,8.35,16.69s0-.1,0-.15A64.9,64.9,0,0,1,425.41,40Z"/><path class="cls-1" d="M417.63,17c0,.11,0,.23,0,.34a.13.13,0,0,1,0-.06A2.46,2.46,0,0,1,417.63,17Z"/><path class="cls-1" d="M420.33,13a1.43,1.43,0,0,0-.42-.63L420,13C420.11,13,420.22,13,420.33,13Z"/><path class="cls-1" d="M431.36,58.1c0-.46-.08-.93-.13-1.4a.7.7,0,1,1,1.39-.15c.11,1,.19,2,.25,3h2.47c-.34-.58-.66-1.17-1-1.77A110,110,0,0,1,425.41,40,64.9,64.9,0,0,0,431.36,58.1Z"/><path class="cls-1" d="M417.65,17.29a.13.13,0,0,0,0,.06c0,1,.1,2,.19,3C417.79,19.34,417.73,18.32,417.65,17.29Z"/><path class="cls-1" d="M418.24,16.52l-.41-2.95.57-.17A14.87,14.87,0,0,1,420,13l-.09-.69a1.39,1.39,0,0,0-.86-.33,1.43,1.43,0,0,0-1.44,1.35c0,1.21,0,2.43,0,3.66a2.46,2.46,0,0,0,0,.28A1.37,1.37,0,0,1,418.24,16.52Z"/><path class="cls-1" d="M420.62,20.33c-.06-.65-.1-1.3-.14-1.94h-.16a55.35,55.35,0,0,1-1.54,8.75q.54,2.82,1.33,5.7A77.08,77.08,0,0,0,420.62,20.33Z"/><path class="cls-1" d="M420.32,18.39h-1.83l-.25-1.87a1.37,1.37,0,0,0-.59.77c.08,1,.14,2.05.18,3.07a64.59,64.59,0,0,0,.95,6.78A55.35,55.35,0,0,0,420.32,18.39Z"/><path class="cls-1" d="M421.6,37.68c-.27-.8-.53-1.58-.77-2.37q-1,3.12-2.28,6.31a92.27,92.27,0,0,1-5.41,16c0,.39-.08.77-.11,1.16A116.58,116.58,0,0,0,421.6,41.5c0-.49,0-1,0-1.52C421.61,39.22,421.61,38.46,421.6,37.68Z"/><path class="cls-1" d="M425.07,12.42a1.36,1.36,0,0,0-.62.59l.54.1C425,12.88,425,12.65,425.07,12.42Z"/><path class="cls-1" d="M422.3,30.17q.63,2.55,1.46,5.15c.26-.83.5-1.67.73-2.5a95.13,95.13,0,0,1,0-14.43h-.33A67.52,67.52,0,0,1,422.3,30.17Z"/><path class="cls-1" d="M424.48,18.39a95.13,95.13,0,0,0,0,14.43,75.45,75.45,0,0,0,1.8-8.31q-.87-3-1.59-6.12Z"/><path class="cls-1" d="M426.15,13.4l.56.17-.39,3.12a1.43,1.43,0,0,1,.7.36c.05-1.14.06-2.27,0-3.4a1.41,1.41,0,0,0-1.41-1.37,1.27,1.27,0,0,0-.58.14c0,.23-.05.46-.08.69C425.38,13.19,425.76,13.28,426.15,13.4Z"/><path class="cls-1" d="M424.7,18.39q.72,3.16,1.59,6.12a66.28,66.28,0,0,0,.73-7.46,1.43,1.43,0,0,0-.7-.36l-.21,1.7Z"/><path class="cls-1" d="M409.29,59.56h2.28c.06-.77.12-1.54.21-2.34a.7.7,0,0,1,.76-.63.7.7,0,0,1,.63.77l0,.29a92.27,92.27,0,0,0,5.41-16A117.2,117.2,0,0,1,409.29,59.56Z"/><path class="cls-1" d="M420.83,35.31c.24.79.5,1.57.77,2.37V35.4a.7.7,0,0,1,.7-.7h0a.7.7,0,0,1,.7.7v2.19c.26-.76.5-1.52.73-2.27q-.83-2.59-1.46-5.15C421.88,31.87,421.38,33.58,420.83,35.31Z"/><path class="cls-1" d="M423,41.48c-.08,5.1-.31,9.76-.68,14,.12,1.4.26,2.75.41,4.06h1.41a177.35,177.35,0,0,1-1.11-18Z"/><path class="cls-1" d="M423,41.48l0,.08c0-.51,0-1.05,0-1.58C423,40.48,423,41,423,41.48Z"/><path class="cls-1" d="M421.62,40c0-.73,0-1.46,0-2.21l0-.09C421.61,38.46,421.61,39.22,421.62,40Z"/><path class="cls-1" d="M422.32,34.7h0a.7.7,0,0,0-.7.7v2.28l0,.09q0-1.17,0-2.37A.71.71,0,0,1,422.32,34.7Z"/><path class="cls-1" d="M421.63,41.42l0,.08a178.65,178.65,0,0,1-1.1,18.06h1.4c.15-1.31.29-2.66.42-4.06C421.94,51.22,421.72,46.55,421.63,41.42Z"/><path class="cls-1" d="M423,40c0-.78,0-1.58,0-2.39l0,.09C423,38.46,423,39.22,423,40Z"/><path class="cls-1" d="M421.6,41.5l0-.08c0-.47,0-1,0-1.44C421.61,40.49,421.61,41,421.6,41.5Z"/><path class="cls-1" d="M422.33,34.7h0a.7.7,0,0,1,.68.7c0,.77,0,1.52,0,2.28l0-.09V35.4A.7.7,0,0,0,422.33,34.7Z"/><path class="cls-1" d="M421.63,41.42c.09,5.13.31,9.8.69,14.08.37-4.26.6-8.92.68-14-.24-.61-.47-1.22-.7-1.83C422.09,40.24,421.86,40.83,421.63,41.42Z"/><path class="cls-1" d="M423,37.68c-.22.65-.46,1.31-.7,2,.23.61.46,1.22.7,1.83,0-.49,0-1,0-1.5C423,39.22,423,38.46,423,37.68Z"/><path class="cls-1" d="M421.63,37.77c0,.75,0,1.48,0,2.21,0,.48,0,1,0,1.44.23-.59.46-1.18.67-1.77C422.07,39,421.85,38.39,421.63,37.77Z"/><path class="cls-1" d="M422.32,34.7a.71.71,0,0,0-.69.7q0,1.2,0,2.37c.22.62.44,1.25.67,1.88.24-.66.48-1.32.7-2,0-.76,0-1.51,0-2.28A.7.7,0,0,0,422.32,34.7Z"/><path class="cls-1" d="M412.58,59.56H413l.06-.75Z"/><path class="cls-1" d="M413.14,57.65c-.28.64-.58,1.27-.87,1.91h.31l.45-.75C413.06,58.42,413.1,58,413.14,57.65Z"/><path class="cls-1" d="M412.54,56.59a.7.7,0,0,0-.76.63c-.09.8-.15,1.57-.21,2.34h.7c.29-.64.59-1.27.87-1.91l0-.29A.7.7,0,0,0,412.54,56.59Z"/><path class="cls-1" d="M431.38,58.25l.09,1.31h.66l-.26-.48Z"/><path class="cls-1" d="M431.87,59.08l.26.48h.05Z"/><path class="cls-1" d="M431.38,58.25l.49.83-.51-1S431.37,58.2,431.38,58.25Z"/><path class="cls-1" d="M431.85,55.93a.7.7,0,0,0-.62.77c0,.47.09.94.13,1.4l.51,1,.31.48h.69c-.06-1-.14-2-.25-3A.71.71,0,0,0,431.85,55.93Z"/><path class="cls-1" d="M420.41,16.77c0,.07,0,.15,0,.22h3.79c0-.87,0-1.74,0-2.6a11.49,11.49,0,0,0-3.88,0C420.38,15.17,420.39,16,420.41,16.77Z"/><path class="cls-1" d="M420.41,16.77c0,.07,0,.15,0,.22h0C420.42,16.92,420.42,16.84,420.41,16.77Z"/><path class="cls-1" d="M420.39,14.37l-.22,0q.13,1.18.24,2.37C420.39,16,420.38,15.17,420.39,14.37Z"/><path class="cls-1" d="M420.19,17h.23c0-.07,0-.15,0-.22q-.11-1.18-.24-2.37c-.26,0-.53.11-.79.18l.25,1.87A1.39,1.39,0,0,1,420.19,17Z"/><path class="cls-1" d="M420.19,17a1.39,1.39,0,0,0-.56-.54l.08.54Z"/><path class="cls-1" d="M424.59,17q.11-1.23.24-2.49l-.56-.11c0,.86,0,1.73,0,2.6Z"/><path class="cls-1" d="M424.88,17l.3-2.41-.35-.08q-.13,1.26-.24,2.49Z"/><path class="cls-1" d="M420.4,13.66a12.25,12.25,0,0,1,3.87,0,1.4,1.4,0,0,1,.18-.67,12.66,12.66,0,0,0-4.12,0,1.25,1.25,0,0,1,.07.47Z"/><path class="cls-1" d="M420.52,18.39h3.63c0-.24,0-.47,0-.7h-3.71C420.49,17.92,420.51,18.15,420.52,18.39Z"/><path class="cls-1" d="M420.48,17.69h0c0,.23,0,.46,0,.7h0C420.51,18.15,420.49,17.92,420.48,17.69Z"/><path class="cls-1" d="M420.08,13.72c.11,0,.21-.05.32-.06v-.23a1.25,1.25,0,0,0-.07-.47c-.11,0-.22,0-.33.06C420,13.26,420.06,13.49,420.08,13.72Z"/><path class="cls-1" d="M420.44,17.69h-.07a.48.48,0,0,1,0,.12c0,.19,0,.38-.05.58h.16C420.47,18.15,420.45,17.92,420.44,17.69Z"/><path class="cls-1" d="M418.6,14.07a13.75,13.75,0,0,1,1.48-.35c0-.23-.05-.46-.08-.7a14.87,14.87,0,0,0-1.6.38l-.57.17.41,2.95a1.33,1.33,0,0,1,.67-.22Z"/><path class="cls-1" d="M420.32,18.39c0-.2,0-.39.05-.58a.48.48,0,0,0,0-.12H419.1l-.19-1.39a1.33,1.33,0,0,0-.67.22l.25,1.87Z"/><path class="cls-1" d="M424.15,18.39h.33c0-.24,0-.47,0-.7h-.34C424.17,17.92,424.16,18.15,424.15,18.39Z"/><path class="cls-1" d="M424.91,13.8c0-.23,0-.46.08-.69l-.54-.1a1.4,1.4,0,0,0-.18.67Z"/><path class="cls-1" d="M424.7,18.39v0a1.37,1.37,0,0,1,0-.67h-.19c0,.23,0,.46,0,.7Z"/><path class="cls-1" d="M425.61,16.74l.14,0a1.22,1.22,0,0,1,.57,0l.39-3.12-.56-.17c-.39-.12-.77-.21-1.16-.29,0,.23-.05.46-.08.69.35.08.69.16,1,.27Z"/><path class="cls-1" d="M425.75,16.7l-.14,0-.12,1h-.77a1.37,1.37,0,0,0,0,.67v0h1.41l.21-1.7A1.22,1.22,0,0,0,425.75,16.7Z"/><path class="cls-1" d="M424.27,14.39c0-.23,0-.46,0-.69v0a12.25,12.25,0,0,0-3.87,0c0,.23,0,.47,0,.71A11.49,11.49,0,0,1,424.27,14.39Z"/><path class="cls-1" d="M424.19,17.69l0-.7h-3.79c0,.23,0,.47.05.7Z"/><path class="cls-1" d="M420.43,17h0c0,.23,0,.47,0,.7h0C420.46,17.46,420.45,17.22,420.43,17Z"/><path class="cls-1" d="M420.39,14.37c0-.24,0-.48,0-.71-.11,0-.21,0-.32.06,0,.23.07.46.09.68Z"/><path class="cls-1" d="M418.91,16.3a1.21,1.21,0,0,1,.19,0,1.35,1.35,0,0,1,.53.15l-.25-1.87c.26-.07.53-.13.79-.18,0-.22-.06-.45-.09-.68a13.75,13.75,0,0,0-1.48.35Z"/><path class="cls-1" d="M420.42,17h-.23a1.4,1.4,0,0,1,.18.7h.07C420.43,17.46,420.43,17.22,420.42,17Z"/><path class="cls-1" d="M419.71,17l-.08-.54a1.35,1.35,0,0,0-.53-.15,1.21,1.21,0,0,0-.19,0l.19,1.39h1.27a1.4,1.4,0,0,0-.18-.7Z"/><path class="cls-1" d="M424.27,14.39l.56.11c0-.23.05-.47.08-.7l-.64-.12v0C424.28,13.93,424.27,14.16,424.27,14.39Z"/><path class="cls-1" d="M424.19,17.69h.34l.06-.7h-.37Z"/><path class="cls-1" d="M425.18,14.58l-.3,2.41h-.29l-.06.7h.19a1.37,1.37,0,0,1,.89-1l.34-2.67c-.35-.11-.69-.19-1-.27,0,.23-.06.47-.08.7Z"/><path class="cls-1" d="M425.61,16.74a1.37,1.37,0,0,0-.89,1h.77Z"/><path class="cls-1" d="M433,61.86h.44L433,61C433,61.31,433,61.59,433,61.86Z"/><path class="cls-1" d="M435.47,59.56l.79,1.24a1.4,1.4,0,0,1,.22.67c.08.13.15.26.24.39h18.91a45,45,0,0,1-4.42-2.3Z"/><path class="cls-1" d="M475,59.56H457.33a48,48,0,0,0,6.33,2.3H475a1.15,1.15,0,1,0,0-2.3Z"/><path class="cls-1" d="M373.43,59.56a1.15,1.15,0,1,0,0,2.3h10.85q2.21-1.11,4.26-2.3Z"/><path class="cls-1" d="M411.19,61.8l0,.06h.28c0-.16,0-.32,0-.49Z"/><path class="cls-1" d="M413,59.56c-.06.78-.1,1.54-.13,2.3h7.36c.11-.75.2-1.52.3-2.3Z"/><path class="cls-1" d="M421.9,59.56c-.09.78-.19,1.55-.29,2.3H423c-.11-.75-.2-1.52-.3-2.3Z"/><path class="cls-1" d="M408.49,60.86l.26-.43.42-.87H393.9q-1.81,1.19-3.76,2.3H408c.09-.17.18-.34.26-.51A1.49,1.49,0,0,1,408.49,60.86Z"/><path class="cls-1" d="M424.14,59.56c.09.78.19,1.55.29,2.3h7.16c0-.76-.07-1.52-.12-2.3Z"/><path class="cls-1" d="M432.94,60.79c0,.08,0,.16,0,.24l.48.83h.2Z"/><path class="cls-1" d="M436.45,61.86h.27c-.09-.13-.16-.26-.24-.39A1.71,1.71,0,0,1,436.45,61.86Z"/><path class="cls-1" d="M451.21,59.56a45,45,0,0,0,4.42,2.3h8a48,48,0,0,1-6.33-2.3Z"/><path class="cls-1" d="M388.54,59.56q-2.06,1.19-4.26,2.3h5.86q2-1.11,3.76-2.3Z"/><path class="cls-1" d="M408.29,61.35c-.08.17-.17.34-.26.51h.27A1.25,1.25,0,0,1,408.29,61.35Z"/><path class="cls-1" d="M409.17,59.56l-.42.87c.19-.29.36-.58.54-.87Z"/><path class="cls-1" d="M411.15,61.86h0l0-.06Z"/><path class="cls-1" d="M436.48,61.47a1.4,1.4,0,0,0-.22-.67l-.79-1.24h-.13C435.7,60.2,436.08,60.84,436.48,61.47Z"/><path class="cls-1" d="M432.87,59.56c0,.41.05.82.07,1.23l.69,1.07h2.82a1.71,1.71,0,0,0,0-.39c-.4-.63-.78-1.27-1.14-1.91Z"/><path class="cls-1" d="M411.19,61.8l.27-.43a.71.71,0,0,1,0-.14C411.38,61.42,411.29,61.61,411.19,61.8Z"/><path class="cls-1" d="M408.49,60.86a1.49,1.49,0,0,0-.2.49c.16-.31.31-.61.46-.92Z"/><path class="cls-1" d="M411.57,59.56h-2.28c-.18.29-.35.58-.54.87s-.3.61-.46.92a1.25,1.25,0,0,0,0,.51h2.85l0-.06c.1-.19.19-.38.28-.57C411.49,60.68,411.53,60.12,411.57,59.56Z"/><path class="cls-1" d="M422.73,59.56c.1.78.19,1.55.3,2.3h1.4c-.1-.75-.2-1.52-.29-2.3Z"/><path class="cls-1" d="M420.5,59.56c-.1.78-.19,1.55-.3,2.3h1.41c.1-.75.2-1.52.29-2.3Z"/><path class="cls-1" d="M412.58,59.56c-.37.6-.74,1.21-1.12,1.81,0,.17,0,.33,0,.49h1.4c0-.76.07-1.52.13-2.3Z"/><path class="cls-1" d="M411.47,61.23a.71.71,0,0,0,0,.14c.38-.6.75-1.21,1.12-1.81h-.31C412,60.12,411.74,60.68,411.47,61.23Z"/><path class="cls-1" d="M411.47,61.23c.27-.55.54-1.11.8-1.67h-.7C411.53,60.12,411.49,60.68,411.47,61.23Z"/><path class="cls-1" d="M432.13,59.56h-.66c0,.78.09,1.54.12,2.3H433c0-.27,0-.55,0-.83C432.67,60.54,432.39,60.05,432.13,59.56Z"/><path class="cls-1" d="M432.13,59.56c.26.49.54,1,.82,1.47,0-.08,0-.16,0-.24-.26-.41-.51-.82-.76-1.23Z"/><path class="cls-1" d="M432.18,59.56c.25.41.5.82.76,1.23,0-.41,0-.82-.07-1.23Z"/></g></g></svg>