<?xml version="1.0" encoding="utf-8"?>
<!-- Generator: Adobe Illustrator 22.1.0, SVG Export Plug-In . SVG Version: 6.00 Build 0)  -->
<svg version="1.1" id="Calque_1" xmlns="http://www.w3.org/2000/svg" xmlns:xlink="http://www.w3.org/1999/xlink" x="0px" y="0px"
	 viewBox="0 0 512 252" style="enable-background:new 0 0 512 252;" xml:space="preserve">
<style type="text/css">
	.st0{fill-rule:evenodd;clip-rule:evenodd;fill:#EA4334;}
	.st1{fill-rule:evenodd;clip-rule:evenodd;fill:#4285F4;}
	.st2{fill-rule:evenodd;clip-rule:evenodd;fill:#FCBC05;}
	.st3{fill-rule:evenodd;clip-rule:evenodd;fill:#0D9D58;}
</style>
<g id="Group_13_" transform="translate(44.000000, 143.000000)">
	<path id="Rectangle-Copy_13_" class="st0" d="M122.8-137.4L-21.9-53.9C-41.8-42.4-48.6-17.1-37.1,2.8l0,0
		c11.4,19.8,36.8,26.6,56.6,15.2l144.7-83.6c19.8-11.4,26.6-36.8,15.2-56.6l0,0C168-142.1,142.6-148.9,122.8-137.4z"/>
	<path id="Rectangle-Copy-2_19_" class="st1" d="M162.9,30.4L18.2-53.2C-1.6-64.7-27-57.9-38.4-38l0,0
		c-11.4,19.8-4.7,45.2,15.2,56.6l144.7,83.6c19.8,11.4,45.2,4.7,56.6-15.2l0,0C189.6,67.2,182.8,41.8,162.9,30.4z"/>
	<path id="Rectangle_13_" class="st2" d="M259.7,31.7l144.7-83.6c19.8-11.4,45.2-4.7,56.6,15.2l0,0c11.4,19.8,4.7,45.2-15.2,56.6
		l-144.7,83.6c-19.8,11.4-45.2,4.7-56.6-15.2l0,0C233.1,68.5,239.9,43.1,259.7,31.7z"/>
	<path class="st3" d="M302.5-136.1l144.7,83.6c19.8,11.4,26.6,36.8,15.2,56.6l0,0c-11.4,19.8-36.8,26.6-56.6,15.2L261.1-64.3
		c-19.8-11.4-26.6-36.8-15.2-56.6l0,0C257.3-140.8,282.7-147.6,302.5-136.1z"/>
</g>
</svg>
