<svg xmlns="http://www.w3.org/2000/svg" xmlns:xlink="http://www.w3.org/1999/xlink" viewBox="0 0 255.819 98.5"><defs><style>.a,.b,.c{fill:#434344;}.a{font-size:54.51px;font-family:ProductSans-Bold, Product Sans;font-weight:700;}.b{font-size:19.62px;font-family:ProductSans-Regular, Product Sans;}.d,.e,.f{fill:none;}.d,.e{stroke:#ededed;stroke-miterlimit:10;}.d{stroke-width:2px;}.e{stroke-linecap:round;}.g{fill:#ffc107;}.h{fill:#0f9d58;}.i{fill:url(#a);}.j{fill:url(#b);}.k{fill:#4285f4;}.l{fill:#db4437;}.m{fill:#3e2723;opacity:0.2;}</style><radialGradient id="a" cx="59.859" cy="30.296" r="24.257" gradientTransform="matrix(1.404, 0, 0, -1.404, -9.524, -60.982)" gradientUnits="userSpaceOnUse"><stop offset="0" stop-color="#bf360c" stop-opacity="0.2"/><stop offset="1" stop-color="#bf360c" stop-opacity="0.02"/></radialGradient><radialGradient id="b" cx="56.535" cy="41.729" r="23.613" gradientTransform="matrix(1.454, 0, 0, -1.454, -14.365, -5.557)" gradientUnits="userSpaceOnUse"><stop offset="0" stop-color="#263238" stop-opacity="0.2"/><stop offset="1" stop-color="#263238" stop-opacity="0.02"/></radialGradient></defs><text class="a" transform="translate(69.998 66.803)"><tspan x="0" y="0">GDG</tspan></text><text class="b" transform="translate(196.292 83.888)"><tspan x="0" y="0">Algiers</tspan></text><path class="c" d="M239.5,65.6a.908.908,0,0,1-.7-.3c-11.4-12.5-14.7-29.2-10.1-50.9a1.02,1.02,0,0,1,2,.4c-4.4,21-1.3,37.1,9.6,49.1a.972.972,0,0,1-.1,1.4A.908.908,0,0,1,239.5,65.6Z"/><path class="c" d="M254.8,59.9h-.3c-14.2-4.1-23.4-15.2-27.5-33.1a1.02,1.02,0,0,1,2-.4c3.9,17.2,12.6,27.8,26.1,31.6a1.086,1.086,0,0,1,.7,1.2A.993.993,0,0,1,254.8,59.9Z"/><path class="c" d="M196.8,60.7a.961.961,0,0,1-.9-.6.992.992,0,0,1,.5-1.3c15.8-7.4,24.4-18.4,25.6-32.6a.955.955,0,0,1,1.1-.9.9.9,0,0,1,.9,1.1c-1.3,14.9-10.3,26.5-26.8,34.2A.6.6,0,0,1,196.8,60.7Z"/><path class="c" d="M217.6,43.2h-.2a.991.991,0,0,1-.8-1.1,142.637,142.637,0,0,0,1.2-26,1,1,0,0,1,2,0,147.327,147.327,0,0,1-1.2,26.4A.993.993,0,0,1,217.6,43.2Z"/><path class="c" d="M232.9,40.7a1.063,1.063,0,0,1-1-.9,132.334,132.334,0,0,1-.7-23.9,1,1,0,1,1,2,.2,119.89,119.89,0,0,0,.7,23.5.945.945,0,0,1-.9,1.1Z"/><path class="d" d="M225.6,23.3"/><path class="d" d="M223.5,25.6"/><path class="e" d="M227.1,25.9"/><path class="e" d="M225.6,23.1"/><path class="c" d="M211.8,66.7a.764.764,0,0,1-.5-.2.984.984,0,0,1-.3-1.4c10.8-16.7,13.8-33.6,9-50.2a.982.982,0,1,1,1.9-.5c5,17.2,1.9,34.7-9.2,51.9A1.489,1.489,0,0,1,211.8,66.7Z"/><path class="c" d="M234.5,58.7a1.02,1.02,0,0,1-.8-.5c-8.1-12.4-12-24.2-11.7-35.1a1,1,0,0,1,2,0c-.3,10.5,3.5,21.9,11.4,33.9a.984.984,0,0,1-.3,1.4A.864.864,0,0,1,234.5,58.7Z"/><path class="c" d="M216.3,58.7a.764.764,0,0,1-.5-.2.984.984,0,0,1-.3-1.4C223.2,45,227,33.7,226.8,23.3a.945.945,0,0,1,1-1,1,1,0,0,1,1,1c.2,10.8-3.7,22.5-11.6,34.9A.957.957,0,0,1,216.3,58.7Z"/><path class="c" d="M228.2,67.3a.51.51,0,0,1-.5-.4c-2-6.9-3-15.8-2.9-28a.472.472,0,0,1,.5-.5h0a.472.472,0,0,1,.5.5c-.1,12.1.8,20.9,2.8,27.7a.486.486,0,0,1-.3.6C228.3,67.3,228.3,67.3,228.2,67.3Z"/><path class="c" d="M222.5,67.3h-.1a.446.446,0,0,1-.3-.6c2-6.8,2.9-15.6,2.8-27.7a.472.472,0,0,1,.5-.5h0a.472.472,0,0,1,.5.5c.1,12.2-.9,21.1-2.9,28A.55.55,0,0,1,222.5,67.3Z"/><path class="c" d="M218.3,65.3a.458.458,0,0,1-.5-.4,44.355,44.355,0,0,1,0-10.3c0-.3.3-.5.5-.4.3,0,.5.3.4.5a42.653,42.653,0,0,0,0,10.1c.2.2,0,.5-.4.5Z"/><path class="c" d="M232.3,64.8h0a.56.56,0,0,1-.5-.6,42.652,42.652,0,0,0,0-10.1.453.453,0,1,1,.9-.1,44.355,44.355,0,0,1,0,10.3C232.7,64.7,232.5,64.8,232.3,64.8Z"/><path class="c" d="M227.7,26.3h-4.6l-.4-2.6a9.551,9.551,0,0,1,5.3,0Z"/><path class="c" d="M228.1,26.8h-5.5l-.5-3.4.4-.1a8.935,8.935,0,0,1,5.6,0l.4.1Zm-4.6-1h3.7l.2-1.7a8.531,8.531,0,0,0-4.2,0Z"/><path class="f" d="M60.3,44.6,34.5,0H0L28.5,49.2,0,98.5H34.5L60.3,53.9A9.117,9.117,0,0,0,60.3,44.6Z"/><path class="g" d="M45.5,78.7,37.3,64.5l-19.6,34H34.5L45.7,79.1Z"/><path class="f" d="M60.3,44.6,34.5,0H0L28.5,49.2,0,98.5H34.5L60.3,53.9A9.117,9.117,0,0,0,60.3,44.6Z"/><path class="h" d="M28.5,49.2l8.8,15.3-19.6,34H0Z"/><path class="f" d="M60.3,44.6,34.5,0H0L28.5,49.2,0,98.5H34.5L60.3,53.9A9.117,9.117,0,0,0,60.3,44.6Z"/><path class="f" d="M60.3,44.6,34.5,0H0L28.5,49.2,0,98.5H34.5L60.3,53.9A9.117,9.117,0,0,0,60.3,44.6Z"/><path class="f" d="M60.3,44.6,34.5,0H0L28.5,49.2,0,98.5H34.5L60.3,53.9A9.117,9.117,0,0,0,60.3,44.6Z"/><path class="f" d="M60.3,44.6,34.5,0H0L28.5,49.2,0,98.5H34.5L60.3,53.9A9.117,9.117,0,0,0,60.3,44.6Z"/><path class="i" d="M45.7,79.1h0L37.3,64.5l-2,3.6Z"/><path class="f" d="M60.3,44.6,34.5,0H0L28.5,49.2,0,98.5H34.5L60.3,53.9A9.117,9.117,0,0,0,60.3,44.6Z"/><path class="j" d="M35.3,68.1l2-3.6L28.5,49.2l-4.2,7.3Z"/><path class="f" d="M60.3,44.6,34.5,0H0L28.5,49.2,0,98.5H34.5L60.3,53.9A9.117,9.117,0,0,0,60.3,44.6Z"/><path class="k" d="M17.7,0H0L45.7,79.1l8.9-15.3h0Z"/><path class="f" d="M60.3,44.6,34.5,0H0L28.5,49.2,0,98.5H34.5L60.3,53.9A9.117,9.117,0,0,0,60.3,44.6Z"/><path class="l" d="M60.3,53.9a8.935,8.935,0,0,0,0-9.2L34.5,0H17.7L54.6,63.8Z"/><path class="f" d="M60.3,44.6,34.5,0H0L28.5,49.2,0,98.5H34.5L60.3,53.9A9.117,9.117,0,0,0,60.3,44.6Z"/><path class="f" d="M60.3,44.6,34.5,0H0L28.5,49.2,0,98.5H34.5L60.3,53.9A9.117,9.117,0,0,0,60.3,44.6Z"/><path class="f" d="M60.3,44.6,34.5,0H0L28.5,49.2,0,98.5H34.5L60.3,53.9A9.117,9.117,0,0,0,60.3,44.6Z"/><path class="m" d="M54.6,63.8l5.7-9.9a8.839,8.839,0,0,0,1.2-5,10.184,10.184,0,0,1-1.2,4.2l-6,10.3Z"/><path class="f" d="M60.3,44.6,34.5,0H0L28.5,49.2,0,98.5H34.5L60.3,53.9A9.117,9.117,0,0,0,60.3,44.6Z"/></svg>