<svg xmlns="http://www.w3.org/2000/svg" viewBox="0 0 476.16 61.86"><defs><style>.cls-1{fill:#fff;}.cls-2{fill:#ea4334;}.cls-2,.cls-3,.cls-4,.cls-5{fill-rule:evenodd;}.cls-3{fill:#4285f4;}.cls-4{fill:#fcbc05;}.cls-5{fill:#0d9d58;}.cls-6{fill:none;}.cls-7{fill:#676c72;}</style></defs><title>GDG_Algiers_Logo_Light</title><g id="Layer_2" data-name="Layer 2"><g id="Layer_14" data-name="Layer 14"><path class="cls-1" d="M153.28,32.21q0,7.17-4.25,11.43a16.51,16.51,0,0,1-12.57,5.06,17.62,17.62,0,0,1-17.78-17.87,17.28,17.28,0,0,1,5.16-12.72A17.17,17.17,0,0,1,136.46,13a18.82,18.82,0,0,1,7.12,1.34,14.32,14.32,0,0,1,5.5,3.77l-3.16,3.16a10.57,10.57,0,0,0-4.08-3,13.5,13.5,0,0,0-5.38-1.08A12.91,12.91,0,0,0,127,21a13.46,13.46,0,0,0-3.82,9.8A13.44,13.44,0,0,0,127,40.62a13.75,13.75,0,0,0,18,1,11.43,11.43,0,0,0,3.92-7.89H136.46V29.63h16.59A15.54,15.54,0,0,1,153.28,32.21Z"/><path class="cls-1" d="M158.64,47.94V13.71h10.47q7.83,0,12.59,4.74t4.76,12.38q0,7.7-4.76,12.4t-12.59,4.71Zm4.4-30V43.73h6.07q6,0,9.41-3.42c2.3-2.27,3.44-5.44,3.44-9.48s-1.14-7.17-3.44-9.47-5.43-3.44-9.41-3.44Z"/><path class="cls-1" d="M224.6,32.21q0,7.17-4.25,11.43a16.51,16.51,0,0,1-12.57,5.06A17.62,17.62,0,0,1,190,30.83a17.28,17.28,0,0,1,5.16-12.72A17.17,17.17,0,0,1,207.78,13a18.86,18.86,0,0,1,7.12,1.34,14.32,14.32,0,0,1,5.5,3.77l-3.16,3.16a10.53,10.53,0,0,0-4.09-3,13.42,13.42,0,0,0-5.37-1.08A12.89,12.89,0,0,0,198.31,21a13.46,13.46,0,0,0-3.82,9.8,13.44,13.44,0,0,0,3.82,9.79,13.75,13.75,0,0,0,18,1,11.47,11.47,0,0,0,3.92-7.89H207.78V29.63h16.58A14.58,14.58,0,0,1,224.6,32.21Z"/><path class="cls-1" d="M241.05,47.94h-4.88l12.91-34.23h5L267,47.94h-4.87l-3.3-9.27H244.39Zm10.42-28.83-5.6,15.44h11.38l-5.59-15.44Z"/><path class="cls-1" d="M274.6,13.71V47.94h-4.4V13.71Z"/><path class="cls-1" d="M290.09,59a13.25,13.25,0,0,1-3.68-.5,12.21,12.21,0,0,1-3.13-1.41A10.26,10.26,0,0,1,280.86,55a8.93,8.93,0,0,1-1.53-2.77l4.16-1.72a6.61,6.61,0,0,0,2.49,3.3A7,7,0,0,0,290.09,55a7.25,7.25,0,0,0,5.59-2.15,8.34,8.34,0,0,0,2-5.93V44.69h-.19a8.69,8.69,0,0,1-3.37,2.94,10.18,10.18,0,0,1-4.61,1.07,10.36,10.36,0,0,1-7.89-3.58,13,13,0,0,1-3.25-8.89,12.8,12.8,0,0,1,3.25-8.85,10.31,10.31,0,0,1,7.89-3.63,10.06,10.06,0,0,1,4.61,1.08,8.54,8.54,0,0,1,3.37,2.94h.19V24.52h4.21V46.93q0,5.64-3.21,8.85A11.64,11.64,0,0,1,290.09,59Zm.14-14.34a6.74,6.74,0,0,0,5.31-2.34,8.74,8.74,0,0,0,2.15-6.12,8.73,8.73,0,0,0-2.15-6.07,6.74,6.74,0,0,0-5.31-2.39,6.82,6.82,0,0,0-5.3,2.39,8.69,8.69,0,0,0-2.15,6.07,8.6,8.6,0,0,0,2.15,6.07A6.86,6.86,0,0,0,290.23,44.69Z"/><path class="cls-1" d="M312.94,16.44a3.11,3.11,0,1,1-5.31-2.2,3.11,3.11,0,0,1,5.31,2.2ZM312,24.52V47.94h-4.4V24.52Z"/><path class="cls-1" d="M328,48.7a11.23,11.23,0,0,1-8.51-3.53,12.5,12.5,0,0,1-3.34-8.94,12.73,12.73,0,0,1,3.25-8.92,11.69,11.69,0,0,1,16.61-.19q3.07,3.38,3.08,9.44l-.05.48h-18.4a7.6,7.6,0,0,0,2.3,5.54,7.29,7.29,0,0,0,5.25,2.11q4.22,0,6.6-4.21l3.92,1.91A11.7,11.7,0,0,1,334.38,47,12.08,12.08,0,0,1,328,48.7Zm-7-15.29h13.44a5.83,5.83,0,0,0-2-4,6.91,6.91,0,0,0-4.8-1.6,6.38,6.38,0,0,0-4.28,1.53A7.38,7.38,0,0,0,321,33.41Z"/><path class="cls-1" d="M347.54,47.94h-4.39V24.52h4.2v3.82h.19a6.43,6.43,0,0,1,2.75-3.18,7.69,7.69,0,0,1,4.09-1.31,8.29,8.29,0,0,1,3.25.57l-1.34,4.25a7.36,7.36,0,0,0-2.58-.33,5.7,5.7,0,0,0-4.33,2A6.75,6.75,0,0,0,347.54,35Z"/><path class="cls-1" d="M377.47,41.44a6.36,6.36,0,0,1-2.68,5.16,11.64,11.64,0,0,1-13,.26A10.11,10.11,0,0,1,358,42l3.92-1.67a7.31,7.31,0,0,0,2.51,3.27,6.1,6.1,0,0,0,3.61,1.17,6.4,6.4,0,0,0,3.51-.9A2.59,2.59,0,0,0,373,41.72c0-1.49-1.14-2.59-3.44-3.29l-4-1q-6.84-1.71-6.84-6.59a6.08,6.08,0,0,1,2.61-5.14,11.93,11.93,0,0,1,12.28-.46,8,8,0,0,1,3.51,4l-3.91,1.63A5,5,0,0,0,371,28.51a6.8,6.8,0,0,0-3.37-.84,5.67,5.67,0,0,0-3.08.86,2.49,2.49,0,0,0-1.36,2.1c0,1.34,1.25,2.3,3.77,2.87l3.54.91Q377.47,36.14,377.47,41.44Z"/><g id="Group"><path id="Rectangle-Copy" class="cls-2" d="M31.69,8,4.19,23.86A7.87,7.87,0,0,0,1.31,34.62h0A7.88,7.88,0,0,0,12.07,37.5l27.5-15.88a7.89,7.89,0,0,0,2.88-10.76h0A7.89,7.89,0,0,0,31.69,8Z"/><path id="Rectangle-Copy-2" class="cls-3" d="M39.32,39.86,11.82,24A7.88,7.88,0,0,0,1.06,26.87h0A7.87,7.87,0,0,0,3.94,37.63L31.44,53.5A7.87,7.87,0,0,0,42.2,50.62h0A7.89,7.89,0,0,0,39.32,39.86Z"/><path id="Rectangle" class="cls-4" d="M57.71,40.11l27.5-15.88A7.88,7.88,0,0,1,96,27.12h0a7.88,7.88,0,0,1-2.89,10.76L65.58,53.75a7.87,7.87,0,0,1-10.76-2.88h0A7.88,7.88,0,0,1,57.71,40.11Z"/><path class="cls-5" d="M65.83,8.23l27.5,15.88a7.88,7.88,0,0,1,2.89,10.76h0a7.88,7.88,0,0,1-10.76,2.88L58,21.87a7.88,7.88,0,0,1-2.89-10.76h0A7.89,7.89,0,0,1,65.83,8.23Z"/></g><path class="cls-6" d="M413,58.81l-.06.75h7.53a178.65,178.65,0,0,0,1.1-18.06A116.58,116.58,0,0,1,413,58.81Z"/><path class="cls-6" d="M425.41,40q-.62-3.48-.92-7.15c-.23.83-.47,1.67-.73,2.5Q424.51,37.63,425.41,40Z"/><path class="cls-6" d="M420.52,18.39c.05.64.08,1.29.1,1.94a67.54,67.54,0,0,0,1.68,9.84,67.52,67.52,0,0,0,1.85-11.78Z"/><path class="cls-6" d="M420.11,32.84a84.19,84.19,0,0,1-1.56,8.78q1.29-3.19,2.28-6.31C420.58,34.48,420.34,33.66,420.11,32.84Z"/><path class="cls-6" d="M393.9,59.56h15.27a86,86,0,0,0,8.28-28.17C413.43,42.57,405.56,52,393.9,59.56Z"/><path class="cls-6" d="M427,26.88c.16,11.66,2.61,21.92,7.35,30.91q.54.89,1.11,1.77h15.74C440,53,431.91,42,427,26.88Z"/><path class="cls-6" d="M423,41.56a177.35,177.35,0,0,0,1.11,18h7.33l-.09-1.31A112,112,0,0,1,423,41.56Z"/><path class="cls-6" d="M421.9,59.56h.83c-.15-1.31-.29-2.66-.41-4.06C422.19,56.9,422.05,58.25,421.9,59.56Z"/><path class="cls-7" d="M420.48,18.39c0,.64.08,1.29.14,1.94,0-.65-.05-1.3-.1-1.94Z"/><path class="cls-7" d="M435.34,59.56h.13q-.57-.89-1.11-1.77C434.68,58.39,435,59,435.34,59.56Z"/><path class="cls-7" d="M423,41.48l0,.08c0-.51,0-1.05,0-1.58C423,40.48,423,41,423,41.48Z"/><path class="cls-7" d="M421.62,40c0-.73,0-1.46,0-2.21l0-.09C421.61,38.46,421.61,39.22,421.62,40Z"/><path class="cls-7" d="M422.32,34.7h0a.7.7,0,0,0-.7.7v2.28l0,.09q0-1.17,0-2.37A.71.71,0,0,1,422.32,34.7Z"/><path class="cls-7" d="M423,40c0-.78,0-1.58,0-2.39l0,.09C423,38.46,423,39.22,423,40Z"/><path class="cls-7" d="M421.6,41.5l0-.08c0-.47,0-1,0-1.44C421.61,40.49,421.61,41,421.6,41.5Z"/><path class="cls-7" d="M422.33,34.7h0a.7.7,0,0,1,.68.7c0,.77,0,1.52,0,2.28l0-.09V35.4A.7.7,0,0,0,422.33,34.7Z"/><path class="cls-7" d="M431.38,58.25l.49.83-.51-1S431.37,58.2,431.38,58.25Z"/><path class="cls-1" d="M475,59.56H457.33c-10-4.43-17.74-12-23.23-22.76a1.36,1.36,0,0,0,0-.57,177.22,177.22,0,0,1-.92-32.77A1.38,1.38,0,0,0,431.91,2a1.42,1.42,0,0,0-1.47,1.31,192.06,192.06,0,0,0,.12,25.32,91.47,91.47,0,0,1-3.14-10.87,1.43,1.43,0,0,0-.08-.22c-.19,2.41-.3,4.76-.33,7.07,0-2.31.14-4.66.33-7.07a129.86,129.86,0,0,1,2.37-15.85A1.39,1.39,0,1,0,427,1.11q-1.23,5.82-1.91,11.31a1.36,1.36,0,0,0-.62.59,12.66,12.66,0,0,0-4.12,0,1.43,1.43,0,0,0-.42-.63A83,83,0,0,0,417.46,1a1.4,1.4,0,1,0-2.68.78A78,78,0,0,1,417.63,17c0,.11,0,.23,0,.34h0a1.42,1.42,0,0,0-.05.22A49.4,49.4,0,0,1,413.79,33a233.24,233.24,0,0,0,.75-29.7,1.4,1.4,0,0,0-2.79.08c.44,14.64-.11,26.85-1.63,36.31a1.77,1.77,0,0,0,0,.23h0q-7.33,11.42-21.57,19.6H373.43a1.15,1.15,0,1,0,0,2.3H475a1.15,1.15,0,1,0,0-2.3ZM424.49,32.82q.3,3.68.92,7.15-.9-2.34-1.65-4.65h0C424,34.49,424.26,33.65,424.49,32.82Zm-4-14.43h3.63a67.52,67.52,0,0,1-1.85,11.78,67.54,67.54,0,0,1-1.68-9.84h0c-.06-.65-.1-1.3-.14-1.94Zm1.11,19.68c0,.64,0,1.28,0,1.91,0-.66,0-1.32,0-2A.24.24,0,0,0,421.63,38.07Zm-1.52-5.23c.23.82.47,1.64.72,2.47h0q-1,3.12-2.28,6.31A84.19,84.19,0,0,0,420.11,32.84Zm-1.87-16.32h0a1.65,1.65,0,0,0-.37.33A1.65,1.65,0,0,1,418.24,16.52Zm-9.07,43H393.9c11.66-7.57,19.53-17,23.55-28.17A85.77,85.77,0,0,1,409.17,59.56Zm12.73,0c.15-1.31.29-2.66.42-4.06-.38-4.28-.6-9-.69-14.08l0,.08a178.65,178.65,0,0,1-1.1,18.06H413l.06-.75-.45.75h0l.45-.75A116.58,116.58,0,0,0,421.6,41.5c0-.49,0-1,0-1.51,0,.48,0,1,0,1.43.09,5.13.31,9.8.69,14.08h0c.12,1.4.26,2.75.41,4.06ZM423,41.48h0c0-.49,0-1,0-1.5,0-.66,0-1.33,0-2l0-.08c0,.71,0,1.41,0,2.09s0,1.07,0,1.58Zm8.88,17.6h0l-.49-.83.09,1.31h-7.33a177.35,177.35,0,0,1-1.11-18,112,112,0,0,0,8.35,16.69s0-.1,0-.15l.51,1,.31.48C432.08,59.4,432,59.24,431.88,59.08Zm3.59.48h-.13c-.34-.58-.66-1.17-1-1.77-4.74-9-7.19-19.25-7.35-30.91q-.37-1.17-.72-2.37.34,1.2.72,2.37h0C431.91,42,440,53,451.21,59.56Z"/></g></g></svg>