<?xml version="1.0" encoding="iso-8859-1"?>
<!-- Generator: Adobe Illustrator 19.0.0, SVG Export Plug-In . SVG Version: 6.00 Build 0)  -->
<svg version="1.1" id="Capa_1" xmlns="http://www.w3.org/2000/svg" xmlns:xlink="http://www.w3.org/1999/xlink" x="0px" y="0px"
	 viewBox="0 0 512.002 512.002" style="enable-background:new 0 0 512.002 512.002;" xml:space="preserve">
<g>
	<g>
		<path d="M510.375,289.772c-2.581-3.254-7.306-3.798-10.56-1.22l-14.741,11.69l-119.143-156.43l68.111-43.715
			c3.493-2.242,4.507-6.89,2.265-10.383c-2.241-3.493-6.889-4.507-10.382-2.265l-74.964,48.115
			c-3.636,2.334-4.542,7.435-1.92,10.877l13.643,17.913l-9.701,7.426l-38.515-12.725c-0.753-0.246-1.564-0.379-2.358-0.379h-88.172
			c-3.448,0-6.454,2.347-7.29,5.692l-4.962,19.846l-12.524-5.273c-1.196-0.504-2.504-0.688-3.789-0.538l-34.838,4.08l-11.837-6.872
			l11.259-19.5c2.046-3.546,0.792-8.22-2.75-10.265L11.273,61.589c-3.597-2.076-8.192-0.844-10.265,2.75
			c-2.075,3.594-0.844,8.19,2.75,10.265l114.369,66.031L19.421,311.6l-8.148-4.704c-3.597-2.077-8.192-0.844-10.265,2.75
			c-2.075,3.594-0.844,8.19,2.75,10.265l39.711,22.928c3.549,2.048,8.221,0.792,10.265-2.75l5.746-9.952l16.211,8.646
			c-5.288,10.251-4.767,23.047,2.444,33.013c6.165,8.519,15.823,13.048,25.613,13.048c3.267,0,6.548-0.511,9.72-1.541
			c0.02,6.71,2.153,13.16,6.209,18.547c6.159,8.181,15.677,12.516,25.296,12.516c3.214,0,6.44-0.485,9.555-1.472
			c0.084,6.272,2.021,12.578,5.969,18.034c4.942,6.83,12.248,11.327,20.571,12.662c1.692,0.272,3.385,0.406,5.066,0.406
			c3.263,0,6.48-0.509,9.558-1.497c0.089,6.435,2.136,12.676,5.987,17.997c4.942,6.829,12.248,11.327,20.571,12.662
			c1.692,0.271,3.385,0.406,5.066,0.405c6.589,0,12.993-2.061,18.434-5.999l17.532-12.686c3.793-2.744,6.854-6.211,9.063-10.17
			l30.843,16.811c4.7,2.562,9.854,3.864,15.062,3.864c2.993,0,6.006-0.431,8.957-1.3c8.087-2.382,14.763-7.769,18.797-15.172
			c3.145-5.77,4.384-12.226,3.652-18.622c1.887,0.347,3.786,0.519,5.677,0.519c11.188-0.001,22.045-5.956,27.766-16.452
			c3.219-5.907,4.34-12.399,3.632-18.624c1.892,0.349,3.797,0.521,5.694,0.521c11.189-0.001,22.046-5.956,27.766-16.452
			c3.143-5.766,4.382-12.218,3.653-18.61c1.875,0.348,3.775,0.527,5.685,0.527c2.994,0,6.006-0.431,8.957-1.3
			c8.087-2.382,14.763-7.769,18.798-15.172c4.035-7.402,4.947-15.932,2.565-24.02c-0.572-1.944-1.323-3.803-2.228-5.567
			l13.181-9.356l6.963,9.142c2.512,3.298,7.394,3.914,10.648,1.335l20.744-16.451C512.408,297.75,512.954,293.024,510.375,289.772z
			 M44.477,326.067l-12.04-6.952l98.706-170.965l12.04,6.952L44.477,326.067z M113.395,366.687
			c-7.383,5.345-17.74,3.685-23.084-3.701c-5.343-7.385-3.682-17.742,3.703-23.086l53.159-38.463c2.953-2.136,6.35-3.17,9.712-3.17
			c4.949,0,9.823,2.239,13.091,6.494c5.602,7.296,4.024,18.072-3.417,23.461L113.395,366.687z M154.576,396.255
			c-7.246,5.243-17.517,3.698-22.893-3.444c-5.57-7.397-3.425-18.326,3.948-23.661l39.734-28.749
			c1.446-0.964,2.783-1.979,4.403-2.666c2.305-0.979,4.829-1.423,7.33-1.284c4.786,0.266,9.267,2.673,12.183,6.469
			c5.602,7.295,4.025,18.072-3.417,23.461L154.576,396.255z M195.757,425.821c-3.577,2.59-7.948,3.631-12.309,2.93
			c-4.36-0.699-8.187-3.055-10.776-6.633c-5.341-7.382-3.684-17.731,3.692-23.077c0,0,28.312-20.486,28.315-20.488l1.104-0.799
			c7.299-5.28,17.315-3.82,22.803,3.324c5.603,7.298,4.023,18.077-3.422,23.464L195.757,425.821z M261.138,431.693
			c-0.649,4.459-3.018,8.368-6.668,11.009l-17.532,12.686c-7.304,5.286-17.807,3.594-23.085-3.702
			c-5.302-7.327-3.574-17.779,3.702-23.085l16.42-11.88l1.113-0.806c7.194-5.204,17.399-3.712,22.802,3.324
			C260.635,422.812,261.788,427.235,261.138,431.693z M444.087,338.052c-4.309,7.906-14.509,10.921-22.429,6.604l-86.881-47.356
			c-3.646-1.985-8.209-0.642-10.195,3.002c-1.986,3.644-0.643,8.208,3.001,10.195l72.806,39.683
			c8.005,4.363,10.966,14.424,6.605,22.428c-4.363,8.003-14.424,10.968-22.429,6.604l-73.872-40.265
			c-3.644-1.986-8.208-0.642-10.194,3.002c-1.986,3.644-0.643,8.208,3.002,10.195l59.807,32.599
			c7.995,4.367,10.952,14.421,6.593,22.421c-4.308,7.905-14.508,10.922-22.429,6.604l-62.614-34.129
			c-3.647-1.985-8.209-0.642-10.195,3.002s-0.643,8.208,3.001,10.195l48.538,26.456c7.907,4.309,10.921,14.509,6.604,22.429
			c-4.308,7.907-14.508,10.919-22.427,6.603l-34.046-18.557c0.12-7.09-2.127-13.957-6.523-19.681
			c-5.904-7.688-14.553-11.928-23.473-12.361c0.141-0.667,0.27-1.34,0.369-2.021c1.24-8.511-0.961-16.955-6.2-23.777
			c-5.905-7.687-14.554-11.927-23.474-12.36c0.141-0.667,0.27-1.34,0.369-2.022c1.24-8.512-0.961-16.955-6.2-23.777
			c-5.905-7.688-14.554-11.927-23.474-12.36c0.141-0.667,0.27-1.34,0.369-2.021c1.24-8.512-0.961-16.956-6.2-23.777
			c-10.476-13.642-29.601-16.428-43.533-6.345L85.92,327.205l-18.922-10.092l74.184-128.489l13.968,8.11
			c1.405,0.816,3.038,1.152,4.647,0.965l35.356-4.141l12.843,5.408l-7.381,29.526c-0.148,0.596-0.224,1.208-0.224,1.823v64.125
			c0,21.823,17.755,39.577,39.577,39.577c21.823,0,39.577-17.755,39.577-39.577v-61.97l1.366-2.185l156.57,85.339
			C445.387,319.933,448.404,330.13,444.087,338.052z M447.672,304.288c-0.959-0.668-1.955-1.294-2.996-1.861l-155.783-84.912
			l5.78-9.247c2.199-3.52,1.129-8.156-2.391-10.355c-3.516-2.198-8.156-1.13-10.355,2.39l-16.268,26.029
			c-0.745,1.194-1.142,2.574-1.142,3.983v64.125c0,13.535-11.011,24.548-24.548,24.548s-24.548-11.012-24.548-24.548v-63.2
			l14.383-57.535H310.9l41.139,13.591c2.338,0.773,4.97,0.328,6.924-1.168l12.826-9.818l89.898,118.031L447.672,304.288z"/>
	</g>
</g>
<g>
	<g>
		<path d="M510.81,41.896c-2.241-3.493-6.889-4.507-10.382-2.265l-42.102,27.022c-3.493,2.242-4.507,6.89-2.265,10.383
			c1.435,2.237,3.856,3.457,6.33,3.457c1.39,0,2.795-0.385,4.052-1.191l42.102-27.022C512.037,50.036,513.051,45.388,510.81,41.896z
			"/>
	</g>
</g>
<g>
</g>
<g>
</g>
<g>
</g>
<g>
</g>
<g>
</g>
<g>
</g>
<g>
</g>
<g>
</g>
<g>
</g>
<g>
</g>
<g>
</g>
<g>
</g>
<g>
</g>
<g>
</g>
<g>
</g>
</svg>
