<?xml version="1.0"?>
<svg xmlns="http://www.w3.org/2000/svg" xmlns:xlink="http://www.w3.org/1999/xlink" version="1.1" viewBox="0 0 224 224" width="48px" height="48px"><g fill="none" fill-rule="nonzero" stroke="none" stroke-width="1" stroke-linecap="butt" stroke-linejoin="miter" stroke-miterlimit="10" stroke-dasharray="" stroke-dashoffset="0" font-family="none" font-weight="none" font-size="none" text-anchor="none" style="mix-blend-mode: normal"><path d="M0,224v-224h224v224z" fill="none"/><g fill="#ffffff"><path d="M74.66667,28c-25.732,0 -46.66667,20.93467 -46.66667,46.66667v74.66667c0,25.732 20.93467,46.66667 46.66667,46.66667h74.66667c25.732,0 46.66667,-20.93467 46.66667,-46.66667v-74.66667c0,-25.732 -20.93467,-46.66667 -46.66667,-46.66667zM74.66667,46.66667h74.66667c15.43733,0 28,12.56267 28,28v74.66667c0,15.43733 -12.56267,28 -28,28h-74.66667c-15.43733,0 -28,-12.56267 -28,-28v-74.66667c0,-15.43733 12.56267,-28 28,-28zM158.66667,56c-5.15466,0 -9.33333,4.17868 -9.33333,9.33333c0,5.15466 4.17868,9.33333 9.33333,9.33333c5.15466,0 9.33333,-4.17868 9.33333,-9.33333c0,-5.15466 -4.17868,-9.33333 -9.33333,-9.33333zM112,65.33333c-25.732,0 -46.66667,20.93467 -46.66667,46.66667c0,25.732 20.93467,46.66667 46.66667,46.66667c25.732,0 46.66667,-20.93467 46.66667,-46.66667c0,-25.732 -20.93467,-46.66667 -46.66667,-46.66667zM112,84c15.43733,0 28,12.56267 28,28c0,15.43733 -12.56267,28 -28,28c-15.43733,0 -28,-12.56267 -28,-28c0,-15.43733 12.56267,-28 28,-28z"/></g></g></svg>
