<?xml version="1.0" encoding="utf-8"?>
<!-- Generator: Adobe Illustrator 23.0.0, SVG Export Plug-In . SVG Version: 6.00 Build 0)  -->
<svg version="1.1" id="Capa_1" xmlns="http://www.w3.org/2000/svg" xmlns:xlink="http://www.w3.org/1999/xlink" x="0px" y="0px"
	 viewBox="0 0 512 512" style="enable-background:new 0 0 512 512;" xml:space="preserve">
<g>
	<path d="M437,75C388.7,26.6,324.4,0,256,0S123.3,26.6,75,75C26.6,123.3,0,187.6,0,256s26.6,132.7,75,181c48.4,48.4,112.6,75,181,75
		s132.7-26.6,181-75c48.4-48.4,75-112.6,75-181S485.4,123.3,437,75z M415.8,415.8C373.1,458.5,316.4,482,256,482
		s-117.1-23.5-159.8-66.2S30,316.4,30,256S53.5,138.9,96.2,96.2S195.6,30,256,30s117.1,23.5,159.8,66.2S482,195.6,482,256
		S458.5,373.1,415.8,415.8z"/>
	<path d="M105.8,272.7c0,82.8,67.4,150.2,150.2,150.2s150.2-67.4,150.2-150.2v-15H105.8V272.7z M181.6,367
		c21.6-19.8,49.9-30.9,79.6-30.9c26,0,52.9,9.7,74.4,26.5c-21.2,18.8-49.1,30.2-79.6,30.2C227.9,392.9,202.1,383.2,181.6,367z
		 M375.2,287.7c-2.4,19.2-9.4,37.1-19.8,52.4c-26.9-21.5-61.1-33.9-94.2-33.9c-37.6,0-73.4,14.2-100.6,39.5
		c-12.6-16.5-21.1-36.3-23.8-57.9L375.2,287.7L375.2,287.7z"/>
	<g>
		<circle cx="160.5" cy="188" r="28"/>
		<circle cx="351.5" cy="188" r="28"/>
	</g>
</g>
</svg>
