<?xml version="1.0" encoding="iso-8859-1"?>
<!-- Generator: Adobe Illustrator 19.0.0, SVG Export Plug-In . SVG Version: 6.00 Build 0)  -->
<svg version="1.1" id="Capa_1" xmlns="http://www.w3.org/2000/svg" xmlns:xlink="http://www.w3.org/1999/xlink" x="0px" y="0px"
	 viewBox="0 0 512 512" style="enable-background:new 0 0 512 512;" xml:space="preserve">
<path style="fill:#AA6344;" d="M512,214.359V344.45c0,3.42-2.771,6.181-6.181,6.181H6.181c-3.41,0-6.181-2.761-6.181-6.181V214.359
	c0-1.999,0.948-3.771,2.421-4.904c1.04-0.804,2.339-1.277,3.76-1.277h499.638c1.422,0,2.72,0.474,3.76,1.277
	C511.052,210.588,512,212.36,512,214.359z"/>
<path style="fill:#864A2D;" d="M512,214.359v136.272H0V214.359c0-1.999,0.948-3.771,2.421-4.904c1.04-0.804,2.339-1.277,3.76-1.277
	h20.408l51.705,27.145v-27.145h355.412v27.145l51.705-27.145h20.408c1.422,0,2.72,0.474,3.76,1.277
	C511.052,210.588,512,212.36,512,214.359z"/>
<path style="fill:#E3E3E3;" d="M421.344,25.096V423.22H90.656V25.096c0-3.414,2.767-6.181,6.181-6.181h318.326
	C418.577,18.915,421.344,21.683,421.344,25.096z"/>
<path style="fill:#C8C8C8;" d="M421.344,241.816V423.22H90.656V241.816l98.877,51.911c14.752-20.851,39.044-34.511,66.467-34.511
	s51.715,13.66,66.467,34.511L421.344,241.816z"/>
<path style="fill:#E29C6D;" d="M512,214.359v272.545c0,3.41-2.771,6.181-6.181,6.181H6.181c-3.41,0-6.181-2.771-6.181-6.181V214.359
	c0-1.999,0.948-3.771,2.421-4.904l180.735,94.88L256,342.575l72.844-38.24l180.735-94.88C511.052,210.588,512,212.36,512,214.359z"
	/>
<path style="fill:#C97F4C;" d="M337.384,340.607c0,44.875-36.51,81.384-81.384,81.384s-81.384-36.51-81.384-81.384
	c0-13.032,3.08-25.353,8.54-36.273L256,342.575l72.844-38.24C334.304,315.255,337.384,327.576,337.384,340.607z"/>
<circle style="fill:#FC4747;" cx="256" cy="340.6" r="69.02"/>
<path style="fill:#BF0000;" d="M256,293.731c-25.846,0-46.873,21.027-46.873,46.873s21.027,46.873,46.873,46.873
	c4.267,0,7.726-3.459,7.726-7.726s-3.459-7.726-7.726-7.726c-17.325,0-31.421-14.095-31.421-31.421
	c0-17.325,14.095-31.421,31.421-31.421s31.421,14.095,31.421,31.421c0,5.555-1.439,10.905-4.139,15.609l-7.549-7.549v-20.811
	c0-4.267-3.459-7.726-7.726-7.726H256c-10.88,0-19.732,8.852-19.732,19.732S245.12,359.59,256,359.59h8.805l13.783,13.782
	c1.461,1.462,3.418,2.299,5.515,2.263c2.067-0.014,4.042-0.856,5.484-2.337c8.568-8.8,13.286-20.411,13.286-32.695
	C302.873,314.758,281.846,293.731,256,293.731z M251.721,339.859c0-2.36,1.92-4.279,4.279-4.279h4.279v8.558H256
	C253.64,344.138,251.721,342.219,251.721,339.859z"/>
<path style="fill:#159BFF;" d="M325.638,101.103H186.362c-3.414,0-6.181-2.767-6.181-6.181V70.848c0-3.414,2.767-6.181,6.181-6.181
	h139.276c3.414,0,6.181,2.767,6.181,6.181v24.075C331.819,98.336,329.052,101.103,325.638,101.103z"/>
<g>
	<path style="fill:#AAAAAA;" d="M362.866,154.384h-26.512c-4.267,0-7.726-3.459-7.726-7.726s3.459-7.726,7.726-7.726h26.512
		c4.267,0,7.726,3.459,7.726,7.726S367.133,154.384,362.866,154.384z"/>
	<path style="fill:#AAAAAA;" d="M309.569,154.384H149.134c-4.267,0-7.726-3.459-7.726-7.726s3.459-7.726,7.726-7.726h160.435
		c4.267,0,7.726,3.459,7.726,7.726C317.296,150.925,313.837,154.384,309.569,154.384z"/>
	<path style="fill:#AAAAAA;" d="M362.866,181.875H149.134c-4.267,0-7.726-3.459-7.726-7.726s3.459-7.726,7.726-7.726h213.731
		c4.267,0,7.726,3.459,7.726,7.726S367.133,181.875,362.866,181.875z"/>
	<path style="fill:#AAAAAA;" d="M362.866,209.367H209.485c-4.267,0-7.726-3.459-7.726-7.726s3.459-7.726,7.726-7.726h153.381
		c4.267,0,7.726,3.459,7.726,7.726S367.133,209.367,362.866,209.367z"/>
	<path style="fill:#AAAAAA;" d="M184.411,209.367h-35.277c-4.267,0-7.726-3.459-7.726-7.726s3.459-7.726,7.726-7.726h35.277
		c4.267,0,7.726,3.459,7.726,7.726S188.678,209.367,184.411,209.367z"/>
	<path style="fill:#AAAAAA;" d="M362.866,245.082H149.134c-4.267,0-7.726-3.459-7.726-7.726s3.459-7.726,7.726-7.726h213.731
		c4.267,0,7.726,3.459,7.726,7.726S367.133,245.082,362.866,245.082z"/>
</g>
<path style="fill:#AA6344;" d="M262.003,457.492h-12.005c-4.267,0-7.726-3.459-7.726-7.726s3.459-7.726,7.726-7.726h12.005
	c4.267,0,7.726,3.459,7.726,7.726S266.27,457.492,262.003,457.492z"/>
<g>
</g>
<g>
</g>
<g>
</g>
<g>
</g>
<g>
</g>
<g>
</g>
<g>
</g>
<g>
</g>
<g>
</g>
<g>
</g>
<g>
</g>
<g>
</g>
<g>
</g>
<g>
</g>
<g>
</g>
</svg>
