<?xml version="1.0" encoding="iso-8859-1"?>
<!-- Generator: Adobe Illustrator 19.0.0, SVG Export Plug-In . SVG Version: 6.00 Build 0)  -->
<svg xmlns="http://www.w3.org/2000/svg" xmlns:xlink="http://www.w3.org/1999/xlink" version="1.1" id="Layer_1" x="0px" y="0px" viewBox="0 0 512 512" style="enable-background:new 0 0 512 512;" xml:space="preserve" width="512" height="512">
<g id="XMLID_2403_">
	<g id="XMLID_2404_">
		<g id="XMLID_2405_">
			<rect id="XMLID_2406_" x="7.5" y="209.582" style="fill:#AA6344;" width="497" height="138.28"/>
			<polygon id="XMLID_2407_" style="fill:#864A2D;" points="504.5,209.582 504.5,347.862 7.5,347.862 7.5,209.582 33.31,209.582      83.5,235.933 83.5,209.582 428.5,209.582 428.5,235.933 478.69,209.582    "/>
			<rect id="XMLID_2410_" x="95.5" y="25.862" style="fill:#E3E3E3;" width="321" height="392.46"/>
			<path id="XMLID_2413_" style="fill:#C8C8C8;" d="M416.5,242.232v176.09h-321v-176.09l95.98,50.39     c14.32-20.24,37.9-33.5,64.52-33.5s50.2,13.26,64.52,33.5L416.5,242.232z"/>
			<polygon id="XMLID_2414_" style="fill:#E29C6D;" points="504.5,209.59 504.5,486.14 7.5,486.14 7.5,209.59 185.29,302.92      256,340.04 326.71,302.92    "/>
			<path id="XMLID_2415_" style="fill:#C97F4C;" d="M335,338.13c0,43.56-35.44,79-79,79s-79-35.44-79-79     c0-12.65,2.99-24.61,8.29-35.21L256,340.04l70.71-37.12C332.01,313.52,335,325.48,335,338.13z"/>
			<g id="XMLID_2416_">
				<circle id="XMLID_2704_" style="fill:#FC4747;" cx="256" cy="338.127" r="67"/>
			</g>
			<rect id="XMLID_2700_" x="182.402" y="70.273" style="fill:#159BFF;" width="147.196" height="35.369"/>
		</g>
	</g>
	<g id="XMLID_2417_">
		<path id="XMLID_2419_" d="M511.942,208.692c-0.445-3.714-3.702-6.605-7.442-6.605h-80.502v-93.999c0-4.142-3.358-7.5-7.5-7.5    s-7.5,3.358-7.5,7.5v143.163l-89.968,47.23c-13.206-20.92-36.514-34.855-63.03-34.855s-49.824,13.935-63.03,34.855l-89.968-47.23    v-86.497c0-4.142-3.358-7.5-7.5-7.5s-7.5,3.358-7.5,7.5v37.332H7.5c-4.074,0-7.5,3.421-7.5,7.5v276.55c0,4.142,3.358,7.5,7.5,7.5    h413.078c4.142,0,7.5-3.358,7.5-7.5s-3.358-7.5-7.5-7.5H15V221.995l171.276,89.915c-3.079,8.16-4.776,16.993-4.776,26.217    c0,41.08,33.42,74.5,74.5,74.5s74.5-33.42,74.5-74.5c0-9.225-1.697-18.057-4.776-26.217L497,221.995v256.643h-42.245    c-4.142,0-7.5,3.358-7.5,7.5s3.358,7.5,7.5,7.5H504.5c4.142,0,7.5-3.358,7.5-7.5v-276.55    C512,209.284,511.977,208.986,511.942,208.692z M88.002,243.378l-50.08-26.291h50.08V243.378z M256,397.627    c-32.809,0-59.5-26.691-59.5-59.5s26.691-59.5,59.5-59.5s59.5,26.691,59.5,59.5S288.809,397.627,256,397.627z M423.998,217.087    h50.08l-50.08,26.29V217.087z"/>
		<path id="XMLID_2424_" d="M95.502,138.078c4.142,0,7.5-3.358,7.5-7.5V33.362h305.995v40.549c0,4.142,3.358,7.5,7.5,7.5    s7.5-3.358,7.5-7.5V25.862c0-4.142-3.358-7.5-7.5-7.5H95.502c-4.142,0-7.5,3.358-7.5,7.5v104.716    C88.002,134.72,91.36,138.078,95.502,138.078z"/>
		<path id="XMLID_2425_" d="M256,292.627c-25.089,0-45.5,20.411-45.5,45.5s20.411,45.5,45.5,45.5c4.142,0,7.5-3.358,7.5-7.5    s-3.358-7.5-7.5-7.5c-16.818,0-30.5-13.682-30.5-30.5s13.682-30.5,30.5-30.5s30.5,13.682,30.5,30.5    c0,5.392-1.397,10.585-4.018,15.151l-7.328-7.328V325.75c0-4.142-3.358-7.5-7.5-7.5H256c-10.562,0-19.154,8.593-19.154,19.154    c0,10.561,8.592,19.153,19.154,19.153h8.547l13.379,13.378c1.418,1.419,3.318,2.232,5.354,2.197    c2.006-0.014,3.924-0.831,5.323-2.268c8.317-8.542,12.897-19.813,12.897-31.737C301.5,313.038,281.089,292.627,256,292.627z     M251.846,337.403c0-2.291,1.863-4.154,4.154-4.154h4.154v8.308H256C253.709,341.557,251.846,339.694,251.846,337.403z"/>
		<path id="XMLID_2428_" d="M329.598,113.143c4.142,0,7.5-3.358,7.5-7.5V70.273c0-4.142-3.358-7.5-7.5-7.5H182.402    c-4.142,0-7.5,3.358-7.5,7.5v35.369c0,4.142,3.358,7.5,7.5,7.5H329.598z M189.902,77.773h132.196v20.369H189.902V77.773z"/>
		<path id="XMLID_2431_" d="M359.735,142.362H334c-4.142,0-7.5,3.358-7.5,7.5s3.358,7.5,7.5,7.5h25.735c4.142,0,7.5-3.358,7.5-7.5    S363.877,142.362,359.735,142.362z"/>
		<path id="XMLID_2432_" d="M144.765,149.862c0,4.142,3.358,7.5,7.5,7.5H308c4.142,0,7.5-3.358,7.5-7.5s-3.358-7.5-7.5-7.5H152.265    C148.123,142.362,144.765,145.72,144.765,149.862z"/>
		<path id="XMLID_2433_" d="M359.735,169.048h-207.47c-4.142,0-7.5,3.358-7.5,7.5s3.358,7.5,7.5,7.5h207.47    c4.142,0,7.5-3.358,7.5-7.5S363.877,169.048,359.735,169.048z"/>
		<path id="XMLID_2434_" d="M359.735,195.734H210.848c-4.142,0-7.5,3.358-7.5,7.5s3.358,7.5,7.5,7.5h148.887    c4.142,0,7.5-3.358,7.5-7.5S363.877,195.734,359.735,195.734z"/>
		<path id="XMLID_2435_" d="M152.265,210.734h34.243c4.142,0,7.5-3.358,7.5-7.5s-3.358-7.5-7.5-7.5h-34.243    c-4.142,0-7.5,3.358-7.5,7.5S148.123,210.734,152.265,210.734z"/>
		<path id="XMLID_2436_" d="M152.265,245.403h207.47c4.142,0,7.5-3.358,7.5-7.5s-3.358-7.5-7.5-7.5h-207.47    c-4.142,0-7.5,3.358-7.5,7.5S148.123,245.403,152.265,245.403z"/>
		<path id="XMLID_2437_" d="M250.173,436.59c-4.142,0-7.5,3.358-7.5,7.5s3.358,7.5,7.5,7.5h11.653c4.142,0,7.5-3.358,7.5-7.5    s-3.358-7.5-7.5-7.5H250.173z"/>
	</g>
</g>















</svg>
