<?xml version="1.0" encoding="iso-8859-1"?>
<!-- Generator: Adobe Illustrator 19.0.0, SVG Export Plug-In . SVG Version: 6.00 Build 0)  -->
<svg version="1.1" id="Capa_1" xmlns="http://www.w3.org/2000/svg" xmlns:xlink="http://www.w3.org/1999/xlink" x="0px" y="0px"
	 viewBox="0 0 511.998 511.998" fill="#54d561" style="enable-background:new 0 0 511.998 511.998;" xml:space="preserve">
<g transform="translate(0 -1)">
	<g>
		<g>
			<path d="M167.974,351.473c21.086,29.73,42.138,56.32,56.09,73.446c2.031,2.492,3.934,4.804,5.777,7.031h-42.103
				c-4.713,0-8.533,3.82-8.533,8.533s3.82,8.533,8.533,8.533H324.27c4.713,0,8.533-3.82,8.533-8.533s-3.82-8.533-8.533-8.533
				h-42.103c1.843-2.227,3.746-4.54,5.786-7.031c13.943-17.067,34.987-43.716,56.081-73.446
				c20.929-28.905,39.767-59.267,56.371-90.854c17.425-34.219,26.266-62.626,26.266-84.437
				c0.058-45.321-17.926-88.801-49.98-120.841c-2.141-2.22-5.313-3.112-8.297-2.333c-2.984,0.779-5.316,3.107-6.099,6.09
				c-0.783,2.983,0.104,6.156,2.321,8.3c28.852,28.844,45.039,67.985,44.988,108.783c0,19.098-8.209,44.902-24.405,76.689
				c-16.229,30.855-34.64,60.513-55.091,88.747c-20.804,29.346-41.6,55.637-55.381,72.533c-4.582,5.615-8.704,10.581-12.22,14.78
				c-1.641,1.874-4.011,2.948-6.502,2.948c-2.491,0-4.861-1.075-6.502-2.948c-3.516-4.198-7.637-9.165-12.22-14.78
				c-13.781-16.887-34.577-43.179-55.381-72.533c-20.451-28.234-38.862-57.892-55.091-88.747
				c-16.213-31.787-24.405-57.591-24.405-76.689c-0.005-61.809,36.959-117.627,93.867-141.747
				c38.238-16.034,81.314-16.034,119.552,0c2.808,1.19,6.037,0.793,8.472-1.044c2.435-1.836,3.705-4.832,3.332-7.859
				c-0.373-3.027-2.332-5.625-5.14-6.815c-86.898-36.652-187.056,4.062-223.735,90.948c-8.895,21.046-13.457,43.669-13.414,66.517
				c0,21.811,8.841,50.219,26.266,84.48C128.208,292.234,147.047,322.582,167.974,351.473z"/>
			<path d="M256.003,99.151c4.713,0,8.533-3.82,8.533-8.533s-3.82-8.533-8.533-8.533c-40.71-0.001-75.752,28.757-83.695,68.685
				c-7.943,39.928,13.426,79.906,51.037,95.486c37.611,15.58,80.99,2.421,103.608-31.428
				c22.618-33.849,18.175-78.962-10.611-107.749c-2.143-2.218-5.315-3.108-8.299-2.327c-2.983,0.781-5.313,3.111-6.094,6.094
				c-0.781,2.984,0.109,6.156,2.327,8.299c23.03,23.029,26.585,59.118,8.492,86.198c-18.093,27.08-52.796,37.608-82.885,25.146
				c-30.089-12.462-47.185-44.444-40.833-76.387S223.435,99.152,256.003,99.151z"/>
			
			
		</g>
	</g>
</g>
<g>
</g>
<g>
</g>
<g>
</g>
<g>
</g>
<g>
</g>
<g>
</g>
<g>
</g>
<g>
</g>
<g>
</g>
<g>
</g>
<g>
</g>
<g>
</g>
<g>
</g>
<g>
</g>
<g>
</g>
</svg>
