<?xml version="1.0" encoding="utf-8"?>
<!-- Generator: Adobe Illustrator 22.1.0, SVG Export Plug-In . SVG Version: 6.00 Build 0)  -->
<svg version="1.1" id="Calque_1" xmlns="http://www.w3.org/2000/svg" xmlns:xlink="http://www.w3.org/1999/xlink" x="0px" y="0px"
	 viewBox="0 0 512 152.1" style="enable-background:new 0 0 512 152.1;" xml:space="preserve">
<style type="text/css">
	.st0{fill:#FAD2CF;}
	.st1{fill:#AECBFA;}
	.st2{fill:#A8DAB5;}
	.st3{fill:#FBBC04;}
	.st4{fill:#FDE293;}
	.st5{fill:#4285F4;}
	.st6{fill:#34A853;}
	.st7{fill:none;stroke:#0D652D;stroke-width:0.9375;stroke-miterlimit:10;}
	.st8{fill:#EA4335;}
	.st9{fill:none;stroke:#E37400;stroke-width:0.9375;stroke-miterlimit:10;}
	.st10{fill:none;stroke:#174EA6;stroke-width:0.9375;stroke-miterlimit:10;}
	.st11{fill:none;stroke:#A50E0E;stroke-width:0.9375;stroke-miterlimit:10;}
	.st12{fill:none;stroke:#A50E0E;stroke-width:0.9342;stroke-miterlimit:10;}
	.st13{display:none;}
	.st14{display:inline;fill:none;stroke:#202124;stroke-width:0.8598;stroke-miterlimit:10;}
	.st15{fill:#434449;}
</style>
<g>
	<g>
		<g>
			<rect x="247.3" class="st0" width="27.9" height="68.7"/>
		</g>
		<g>
			<rect x="466.6" class="st1" width="27.9" height="68.7"/>
		</g>
		<g>
			<rect class="st2" width="27.9" height="68.7"/>
		</g>
		<path class="st3" d="M103.7,68.7L103.7,68.7l0-68.7h0C90.1,0,79.1,11,79.1,24.6v19.6C79.1,57.7,90.1,68.7,103.7,68.7z"/>
		<g>
			<rect x="103.7" class="st4" width="31.2" height="68.7"/>
		</g>
		<g>
			<polygon class="st1" points="151.7,0 191.4,68.7 191.4,0 			"/>
		</g>
		<polygon class="st5" points="231.1,0 191.4,0 191.4,68.7 191.4,68.7 		"/>
		<path class="st6" d="M27.9,0c19,0,34.4,15.4,34.4,34.4S46.8,68.7,27.9,68.7V0z"/>
		<path class="st7" d="M27.9,55.6c11.7,0,21.2-9.5,21.2-21.2s-9.5-21.2-21.2-21.2H13.9v16.3"/>
		<path class="st3" d="M414.6,51.6c-14.2,0-25.8-11.5-25.8-25.8S400.4,0,414.6,0V51.6z"/>
		<rect x="275.1" class="st8" width="22.9" height="17.2"/>
		<rect x="449.1" class="st5" width="17.5" height="17.2"/>
		<rect x="494.5" class="st5" width="17.5" height="17.2"/>
		<rect x="275.1" y="34.4" class="st8" width="17.2" height="17.2"/>
		<rect x="414.6" class="st3" width="22.9" height="17.2"/>
		<g>
			<path class="st4" d="M414.6,17.2v34.4h-22.9v17.2h22.9c14.2,0,25.8-11.5,25.8-25.8C440.4,28.7,428.8,17.2,414.6,17.2z"/>
		</g>
		<path class="st9" d="M402.6,38.1c-3.2-3.1-5.2-7.5-5.2-12.3c0-9.5,7.7-17.2,17.2-17.2h12.9"/>
		<line class="st10" x1="457.9" y1="8.8" x2="503.2" y2="8.8"/>
		<path class="st6" d="M339,68.7L339,68.7L339,0h0c-13.6,0-24.6,11-24.6,24.6v19.6C314.4,57.7,325.5,68.7,339,68.7z"/>
		<g>
			<rect x="339" class="st2" width="31.2" height="68.7"/>
		</g>
		<line class="st7" x1="331.4" y1="24" x2="326.9" y2="24"/>
		<line class="st7" x1="370.2" y1="24" x2="339.7" y2="24"/>
		<line class="st7" x1="370.2" y1="44.7" x2="361.1" y2="44.7"/>
		<line class="st7" x1="352.8" y1="44.7" x2="345.8" y2="44.7"/>
		<circle class="st10" cx="191.4" cy="40.6" r="4.4"/>
		<circle class="st10" cx="206.7" cy="14.1" r="4.4"/>
		<line class="st10" x1="204.5" y1="17.9" x2="193.5" y2="36.8"/>
		<circle class="st10" cx="176.1" cy="14.1" r="4.4"/>
		<line class="st10" x1="178.3" y1="17.9" x2="189.2" y2="36.8"/>
		<rect x="10.4" y="30.8" transform="matrix(0.7071 0.7071 -0.7071 0.7071 28.3839 0.2163)" class="st7" width="7" height="7"/>
		
			<rect x="354" y="41.8" transform="matrix(0.7071 0.7071 -0.7071 0.7071 136.1514 -239.2791)" class="st7" width="5.9" height="5.9"/>
		
			<rect x="332.7" y="21.1" transform="matrix(0.7071 0.7071 -0.7071 0.7071 115.2869 -230.2643)" class="st7" width="5.9" height="5.9"/>
		<circle class="st10" cx="480.6" cy="23.3" r="4.2"/>
		<circle class="st10" cx="480.6" cy="39.2" r="4.2"/>
		<circle class="st10" cx="480.6" cy="55.2" r="4.2"/>
		<path class="st9" d="M406.5,60.1h8.1c9.5,0,17.2-7.7,17.2-17.2s-7.7-17.2-17.2-17.2"/>
		<polyline class="st11" points="278.9,42.9 261.2,42.9 261.2,60.6 		"/>
		<polyline class="st12" points="286.6,8.6 261.2,8.6 261.2,33.9 		"/>
		<line class="st9" x1="134.8" y1="24" x2="103.6" y2="24"/>
		<line class="st9" x1="134.8" y1="34.4" x2="103.6" y2="34.4"/>
		<line class="st9" x1="134.8" y1="44.7" x2="103.6" y2="44.7"/>
	</g>
	<g class="st13">
		<path class="st14" d="M345.9,99.1c9.5,0,17.2,7.7,17.2,17.2v17.2c0,9.5-7.7,17.2-17.2,17.2H333"/>
		<path class="st14" d="M229.1,99.1c9.5,0,17.2,7.7,17.2,17.2v17.2c0,9.5-7.7,17.2-17.2,17.2c-9.5,0-17.2-7.7-17.2-17.2v-17.2
			C211.9,106.8,219.6,99.1,229.1,99.1z"/>
		<line class="st14" x1="287.9" y1="99.3" x2="287.9" y2="150.7"/>
		<polyline class="st14" points="176.8,150.7 151.2,150.7 151.2,142.1 		"/>
		<path class="st14" d="M151.2,142.1c0-6.6,5.4-12,12-12c8.5,0,15.5-6.9,15.5-15.5s-6.9-15.5-15.5-15.5h-12"/>
		<path class="st14" d="M345.9,99.1c-9.5,0-17.2,7.7-17.2,17.2s7.7,17.2,17.2,17.2c9.5,0,17.2-7.7,17.2-17.2"/>
	</g>
	<g>
		<path class="st15" d="M19.8,91.8l17.1,45.5h-2.8l-6.1-16H9l-6.2,16H0l17.5-45.5H19.8z M27.1,118.9l-8.5-23.1L10,118.9H27.1z"/>
		<path class="st15" d="M60.9,90.5h2.4v46.8h-2.4V90.5z"/>
		<path class="st15" d="M118,138.7v5c0,1.5-0.4,2.8-1.2,3.9c-0.8,1.1-1.9,1.9-3.1,2.6c-1.3,0.7-2.7,1.1-4.3,1.4
			c-1.6,0.3-3.1,0.5-4.7,0.5h-2.4c-1.6,0-3.2-0.2-4.8-0.5c-1.5-0.3-2.9-0.8-4.1-1.5c-1.2-0.7-2.1-1.6-2.9-2.7
			c-0.7-1.1-1.1-2.5-1.1-4.1c0-2.5,0.6-4.4,1.8-5.6c1.2-1.2,3-2,5.4-2.4c-1.2-0.5-2.3-1.2-3.1-2.1c-0.8-0.9-1.2-2-1.2-3.5
			c0-1,0.3-1.9,0.9-2.7c0.6-0.8,1.4-1.3,2.5-1.6c-1.7-0.7-2.9-1.8-3.7-3.2c-0.8-1.4-1.2-3.1-1.2-5v-3c0-1.6,0.3-3.1,1-4.3
			c0.7-1.2,1.6-2.3,2.7-3.1c1.1-0.9,2.5-1.5,4-1.9c1.5-0.4,3.1-0.7,4.7-0.7c2.7,0,5.3,0.6,7.7,1.8l7.3-2.2l0.7,2.4l-5.9,1.8
			c0.7,0.9,1.3,1.9,1.8,2.9c0.5,1,0.7,2.1,0.7,3.2v3.2c0,1.6-0.3,3-1,4.3c-0.6,1.2-1.5,2.2-2.6,3.1c-1.1,0.8-2.3,1.5-3.8,1.9
			c-1.4,0.4-3,0.6-4.5,0.6c-0.9,0-1.8,0-2.7-0.1c-0.9-0.1-1.7-0.2-2.5-0.4c-1,0.2-1.8,0.6-2.5,1.1c-0.7,0.5-1.1,1.2-1.1,2.2
			c0,0.7,0.2,1.3,0.6,1.8s0.9,1,1.5,1.3c0.6,0.4,1.2,0.6,1.8,0.9c0.6,0.2,1.1,0.4,1.5,0.5L118,138.7z M108.7,149.4
			c1.2-0.2,2.2-0.5,3.2-0.9c0.9-0.4,1.7-1,2.4-1.8c0.7-0.7,1.1-1.7,1.2-2.9v-3.3l-14.7-3.7c-1,0-2,0.2-3.1,0.3c-1.1,0.2-2,0.5-2.9,1
			c-0.9,0.5-1.5,1.1-2.1,2c-0.5,0.8-0.8,1.9-0.8,3.3c0,1.2,0.3,2.2,0.9,3c0.6,0.8,1.4,1.4,2.4,1.9c1,0.5,2.1,0.9,3.3,1.1
			c1.2,0.2,2.5,0.3,3.7,0.3h2.9C106.3,149.6,107.5,149.5,108.7,149.4z M93.3,117.3c0,2.2,0.9,4,2.7,5.4c1.8,1.3,4.3,2,7.5,2
			c1.3,0,2.6-0.1,3.7-0.4c1.2-0.3,2.2-0.7,3.1-1.3c0.9-0.6,1.6-1.4,2.1-2.3c0.5-0.9,0.8-2.1,0.8-3.4V114c-0.1-1.3-0.5-2.4-1.1-3.3
			c-0.6-0.9-1.3-1.7-2.2-2.3c-0.9-0.6-1.9-1-3.1-1.4c-1.1-0.3-2.4-0.5-3.6-0.5c-1.2,0-2.4,0.2-3.6,0.5c-1.2,0.3-2.2,0.8-3.2,1.4
			c-0.9,0.6-1.7,1.4-2.2,2.3c-0.6,0.9-0.9,2-0.9,3.2V117.3z"/>
		<path class="st15" d="M142.2,92.5h3.1v3.8h-3.1V92.5z M142.6,105h2.4v32.3h-2.4V105z"/>
		<path class="st15" d="M185.1,135.5c1.3,0,2.5-0.1,3.6-0.3c1.1-0.2,2-0.5,2.8-0.8c0.8-0.3,1.5-0.6,2.1-1c0.5-0.3,1-0.6,1.3-0.9
			l1.4,1.8c-1.4,1.2-3.1,2.1-5.2,2.7c-2.1,0.6-4,0.9-5.9,0.9c-1.8,0-3.6-0.2-5.3-0.7c-1.7-0.4-3.2-1.1-4.5-2
			c-1.3-0.9-2.3-2.1-3.1-3.5c-0.8-1.4-1.2-3-1.2-4.9v-12.1c0-1.5,0.3-2.9,1-4.2c0.7-1.3,1.6-2.4,2.7-3.3c1.2-0.9,2.5-1.7,4.1-2.2
			c1.6-0.5,3.3-0.8,5.1-0.8c1.8,0,3.4,0.3,4.9,0.8c1.5,0.5,2.7,1.2,3.8,2.1c1.1,0.9,1.9,2,2.5,3.3c0.6,1.3,0.9,2.7,0.9,4.3v4
			l-22.5,3.2v4.8c0,1.5,0.3,2.8,1,3.9c0.6,1.1,1.5,2,2.6,2.7c1.1,0.7,2.3,1.2,3.7,1.5C182.1,135.4,183.6,135.5,185.1,135.5z
			 M184,106.8c-1.5,0-2.8,0.2-4.1,0.6c-1.3,0.4-2.4,1-3.3,1.7c-1,0.7-1.7,1.6-2.3,2.5c-0.6,1-0.8,2-0.8,3.2v4.8l20.1-2.8v-1.9
			c0-1.1-0.3-2.1-0.8-3.1c-0.5-1-1.2-1.8-2-2.6c-0.9-0.7-1.9-1.3-3-1.7C186.6,107,185.3,106.8,184,106.8z"/>
		<path class="st15" d="M232.1,104.4c1.2,0,2.3,0.1,3.4,0.4l-0.4,2.7c-0.5-0.1-1-0.2-1.6-0.2c-0.6-0.1-1.1-0.1-1.6-0.1
			c-1.4,0-2.6,0.4-3.7,1.1c-1.1,0.7-2,1.7-2.7,2.8c-0.7,1.1-1.3,2.4-1.6,3.9c-0.4,1.4-0.6,2.8-0.6,4.2v18.2h-2.4V105h2.4v7.4
			c0.3-1,0.7-2,1.3-3c0.5-1,1.2-1.9,1.9-2.6c0.7-0.7,1.5-1.4,2.5-1.8S231,104.4,232.1,104.4z"/>
		<path class="st15" d="M266.9,119.3c1.4,0.5,2.7,1,4,1.5c1.3,0.5,2.4,1.1,3.4,1.8c1,0.7,1.8,1.5,2.4,2.5c0.6,1,0.9,2.2,0.9,3.7
			c0,1.6-0.3,3-0.9,4.2c-0.6,1.1-1.4,2.1-2.5,2.8c-1.1,0.7-2.3,1.3-3.7,1.6c-1.4,0.4-2.9,0.5-4.5,0.5c-2.2,0-4.4-0.4-6.4-1.2
			c-2-0.8-3.8-2-5.3-3.5l1.1-2c1.3,1.4,2.9,2.4,4.8,3.2c1.9,0.7,3.9,1.1,5.8,1.1c1.3,0,2.5-0.1,3.5-0.3c1.1-0.2,2.1-0.5,2.9-1.1
			c0.8-0.5,1.5-1.2,1.9-2c0.5-0.9,0.7-1.9,0.7-3.2c0-1.2-0.3-2.2-0.8-2.9c-0.5-0.7-1.3-1.4-2.2-1.9c-0.9-0.5-1.9-1-3-1.3
			c-1.1-0.4-2.2-0.7-3.3-1.1c-1.3-0.5-2.6-1-3.8-1.4c-1.2-0.5-2.3-1-3.2-1.7c-0.9-0.7-1.7-1.5-2.2-2.4c-0.5-0.9-0.8-2.1-0.8-3.5
			c0-1.5,0.3-2.8,0.8-3.8c0.5-1.1,1.3-1.9,2.3-2.6c1-0.7,2.1-1.1,3.4-1.4c1.3-0.3,2.7-0.5,4.2-0.5c0.7,0,1.5,0.1,2.4,0.2
			c0.9,0.2,1.8,0.4,2.6,0.7c0.9,0.3,1.7,0.6,2.5,1c0.8,0.4,1.5,0.8,2.1,1.2l-1.1,2.6c-1.3-0.8-2.6-1.6-4.1-2.2c-1.4-0.6-2.9-1-4.5-1
			c-1.2,0-2.3,0.1-3.3,0.3c-1,0.2-1.9,0.5-2.6,0.9c-0.7,0.4-1.3,1-1.7,1.7c-0.4,0.7-0.6,1.7-0.6,2.9c0,1.1,0.3,2,0.8,2.7
			c0.5,0.7,1.2,1.3,2,1.8c0.8,0.5,1.8,0.9,2.8,1.2C264.8,118.6,265.9,119,266.9,119.3z"/>
		<path class="st15" d="M344.8,116.7c-3.9,2.2-6.9,4.7-8.9,7.5c-2,2.9-3,6.4-3,10.7h24.5v2.4h-26.9v-1.2c0-2.5,0.2-4.8,0.7-6.9
			c0.4-2,1.2-3.9,2.1-5.5c1-1.7,2.3-3.2,3.9-4.6c1.6-1.4,3.5-2.7,5.7-4c1.3-0.7,2.6-1.5,3.9-2.3c1.3-0.8,2.4-1.6,3.4-2.5
			c1-0.9,1.8-1.9,2.4-3c0.6-1.1,0.9-2.4,0.9-3.8c0-1.5-0.2-2.8-0.7-3.9c-0.5-1.1-1.2-2-2-2.6c-0.9-0.7-1.9-1.2-3-1.5
			c-1.2-0.3-2.5-0.5-3.9-0.5c-1.1,0-2.2,0.1-3.3,0.4c-1.1,0.3-2.1,0.7-3.1,1.2c-0.9,0.5-1.8,1-2.6,1.6c-0.8,0.6-1.5,1.2-2,1.8
			l-1.6-1.8c1.5-1.6,3.4-2.9,5.6-4c2.2-1.1,4.5-1.6,7-1.6c1.6,0,3.2,0.2,4.6,0.6c1.5,0.4,2.8,1.1,3.9,1.9c1.1,0.9,2,2,2.6,3.4
			c0.7,1.4,1,3,1,5c0,1.7-0.3,3.2-1,4.5c-0.7,1.3-1.5,2.5-2.6,3.6c-1.1,1.1-2.3,2-3.6,2.8C347.5,115.1,346.1,115.9,344.8,116.7z"/>
		<path class="st15" d="M398.1,91.8c2,0,4,0.3,5.9,0.9c1.9,0.6,3.6,1.4,5.1,2.6c1.5,1.1,2.7,2.5,3.6,4.2c0.9,1.6,1.4,3.6,1.4,5.8
			v19.4c0,2.2-0.5,4.1-1.4,5.8c-0.9,1.7-2.1,3.1-3.6,4.2c-1.5,1.1-3.2,2-5.1,2.5c-1.9,0.6-3.9,0.9-5.9,0.9c-2,0-4-0.3-5.9-0.9
			c-1.9-0.6-3.6-1.4-5.1-2.5c-1.5-1.1-2.7-2.5-3.6-4.2c-0.9-1.7-1.4-3.6-1.4-5.8v-19.4c0-2.2,0.5-4.1,1.4-5.8c0.9-1.6,2.1-3,3.6-4.2
			c1.5-1.1,3.2-2,5.1-2.6C394.1,92.1,396.1,91.8,398.1,91.8z M411.6,105.2c0-1.8-0.4-3.4-1.2-4.8c-0.8-1.4-1.8-2.5-3.1-3.4
			c-1.3-0.9-2.7-1.6-4.4-2c-1.6-0.4-3.3-0.7-4.9-0.7c-1.7,0-3.3,0.2-4.9,0.7c-1.6,0.5-3.1,1.1-4.4,2c-1.3,0.9-2.3,2-3.1,3.4
			c-0.8,1.4-1.2,3-1.2,4.8v19.4c0,1.8,0.4,3.4,1.2,4.8c0.8,1.4,1.8,2.5,3.1,3.4c1.3,0.9,2.7,1.6,4.4,2c1.6,0.4,3.3,0.7,4.9,0.7
			c1.7,0,3.3-0.2,4.9-0.7c1.6-0.4,3.1-1.1,4.4-2c1.3-0.9,2.3-2,3.1-3.4c0.8-1.4,1.2-3,1.2-4.8V105.2z"/>
		<path class="st15" d="M451.1,94.9h-10.9v-2.4h13.4v44.8h-2.4V94.9z"/>
		<path class="st15" d="M498.5,91.8c1.7,0,3.4,0.3,5,0.8c1.6,0.5,3,1.2,4.3,2.2c1.3,1,2.3,2.1,3.1,3.5c0.8,1.3,1.2,2.9,1.2,4.6V127
			c0,1.8-0.4,3.5-1.2,4.8c-0.8,1.4-1.8,2.5-3.1,3.5c-1.3,0.9-2.7,1.6-4.3,2c-1.6,0.4-3.3,0.7-5,0.7c-1.1,0-2.2-0.1-3.3-0.3
			c-1.1-0.2-2.3-0.4-3.4-0.8c-1.1-0.4-2.1-0.8-3.1-1.3c-1-0.5-1.8-1.2-2.5-1.9l1.8-1.9c0.5,0.4,1.1,0.8,1.7,1.3
			c0.6,0.4,1.4,0.8,2.2,1.2c0.9,0.4,1.8,0.7,2.9,0.9c1.1,0.2,2.3,0.4,3.7,0.4c1.4,0,2.7-0.2,4-0.5c1.3-0.3,2.5-0.8,3.6-1.5
			c1.1-0.7,1.9-1.6,2.5-2.7c0.6-1.1,1-2.4,1-3.9v-10c-1.4,1.6-3.1,2.8-5,3.5c-2,0.8-4,1.2-6,1.2c-1.7,0-3.4-0.2-5-0.7
			c-1.6-0.4-3.1-1.1-4.4-2c-1.3-0.9-2.3-2.1-3.1-3.5c-0.8-1.4-1.2-3-1.2-4.9v-7.7c0-1.7,0.4-3.2,1.2-4.6c0.8-1.3,1.8-2.5,3.1-3.5
			c1.3-1,2.8-1.7,4.4-2.2C495.1,92.1,496.8,91.8,498.5,91.8z M509.6,102.8c0-1.4-0.3-2.6-1-3.6c-0.6-1.1-1.5-1.9-2.5-2.7
			c-1.1-0.7-2.2-1.3-3.6-1.7c-1.3-0.4-2.7-0.6-4-0.6c-1.4,0-2.7,0.2-4.1,0.6c-1.3,0.4-2.5,0.9-3.6,1.6c-1.1,0.7-1.9,1.6-2.6,2.7
			c-0.7,1.1-1,2.3-1,3.7v7.7c0,1.5,0.3,2.9,1,4c0.7,1.1,1.5,2,2.6,2.7c1.1,0.7,2.3,1.2,3.6,1.5c1.3,0.3,2.7,0.5,4.1,0.5
			c1.4,0,2.7-0.2,4-0.6c1.3-0.4,2.5-1,3.6-1.7c1.1-0.7,1.9-1.6,2.5-2.7c0.6-1.1,1-2.3,1-3.7V102.8z"/>
	</g>
</g>
</svg>
