<svg version="1.1" xmlns="http://www.w3.org/2000/svg" xmlns:xlink="http://www.w3.org/1999/xlink" style="" xml:space="preserve" width="512" height="512"><rect id="backgroundrect" width="100%" height="100%" x="0" y="0" fill="none" stroke="none"/>




















<g class="currentLayer" style=""><title>Layer 1</title><g id="svg_1" class="" fill="#dadada" fill-opacity="1">
	<g id="svg_2" fill="#dadada" fill-opacity="1">
		<path d="M467.712,112.032c-3.11-4.565-9.33-5.744-13.895-2.634c-4.565,3.11-5.744,9.331-2.634,13.895    C477.886,162.488,492,208.377,492,256c0,130.131-105.869,236-236,236S20,386.131,20,256S125.869,20,256,20    c48.663,0,95.382,14.688,135.106,42.473c4.526,3.166,10.76,2.064,13.926-2.462c3.166-4.526,2.063-10.76-2.462-13.926    C359.468,15.936,308.785,0,256,0C187.62,0,123.333,26.628,74.981,74.981C26.628,123.333,0,187.62,0,256    s26.628,132.667,74.981,181.02C123.333,485.371,187.62,512,256,512s132.667-26.629,181.019-74.98    C485.372,388.667,512,324.38,512,256C512,204.344,496.685,154.561,467.712,112.032z" id="svg_3" fill="#dadada" fill-opacity="1"/>
	</g>
</g><g id="svg_4" class="" fill="#dadada" fill-opacity="1">
	<g id="svg_5" fill="#dadada" fill-opacity="1">
		<path d="M437.363,75.323l-0.342-0.343c-3.906-3.905-10.238-3.905-14.143,0c-3.905,3.906-3.905,10.238,0,14.143l0.342,0.343    c1.952,1.953,4.512,2.929,7.071,2.929s5.118-0.977,7.072-2.929C441.268,85.56,441.268,79.228,437.363,75.323z" id="svg_6" fill="#dadada" fill-opacity="1"/>
	</g>
</g><g id="svg_7" class="" fill="#dadada" fill-opacity="1">
	<g id="svg_8" fill="#dadada" fill-opacity="1">
		<path d="M199.965,257.022h-30.349c2.826-48.435,26.462-56.432,44.515-58.075c5.151-0.469,9.094-4.787,9.094-9.959v-55.989    c0-2.749-1.132-5.378-3.13-7.267c-1.998-1.889-4.689-2.868-7.431-2.717c-40.081,2.255-70.76,16.15-91.185,41.299    c-20.06,24.7-30.231,60.551-30.231,106.558v84.091c0,18.768,15.269,34.037,34.037,34.037h74.681    c18.768,0,34.037-15.269,34.036-34.038v-63.903C234.002,272.291,218.733,257.022,199.965,257.022z M214.003,354.963    c0,7.74-6.297,14.037-14.037,14.037h-74.681c-7.74,0-14.037-6.297-14.037-14.037v-84.091c0-41.297,8.666-72.906,25.756-93.949    c15.191-18.704,36.921-29.561,66.222-33.027v36.469c-26.389,5.441-53.889,25.735-53.889,86.658c0,5.522,4.477,10,10,10h40.629    c7.74,0,14.037,6.297,14.037,14.037V354.963z" id="svg_9" fill="#dadada" fill-opacity="1"/>
	</g>
</g><g id="svg_10" class="" fill="#dadada" fill-opacity="1">
	<g id="svg_11" fill="#dadada" fill-opacity="1">
		<path d="M386.714,257.023h-30.349c2.826-48.434,26.462-56.432,44.515-58.075c5.151-0.469,9.094-4.787,9.094-9.959V133    c0-2.749-1.132-5.378-3.13-7.267c-1.998-1.889-4.689-2.868-7.431-2.717c-40.082,2.255-70.761,16.15-91.186,41.299    c-20.059,24.7-30.23,60.551-30.23,106.558v3.461c0,5.522,4.477,10,10,10s10-4.478,10-10v-3.461    c0-41.297,8.665-72.906,25.755-93.949c15.191-18.704,36.92-29.561,66.222-33.027v36.468    c-26.389,5.442-53.889,25.735-53.889,86.658c0,5.522,4.477,10,10,10h40.629c7.74,0,14.037,6.297,14.037,14.037v63.903    c0,7.74-6.297,14.037-14.037,14.037h-74.681c-7.74,0-14.037-6.297-14.037-14.037V349.5c0-5.522-4.477-10-10-10s-10,4.478-10,10    v5.463c0,18.768,15.269,34.037,34.037,34.037h74.681c18.768,0,34.037-15.269,34.037-34.037V291.06    C420.751,272.292,405.482,257.023,386.714,257.023z" id="svg_12" fill="#dadada" fill-opacity="1"/>
	</g>
</g><g id="svg_13" class="" fill="#dadada" fill-opacity="1">
	<g id="svg_14" fill="#dadada" fill-opacity="1">
		<path d="M287.997,299.583c-5.523,0-10,4.478-10,10V310c0,5.522,4.477,10,10,10s10-4.478,10-10v-0.417    C297.997,304.061,293.52,299.583,287.997,299.583z" id="svg_15" fill="#dadada" fill-opacity="1"/>
	</g>
</g><g id="svg_16">
</g><g id="svg_17">
</g><g id="svg_18">
</g><g id="svg_19">
</g><g id="svg_20">
</g><g id="svg_21">
</g><g id="svg_22">
</g><g id="svg_23">
</g><g id="svg_24">
</g><g id="svg_25">
</g><g id="svg_26">
</g><g id="svg_27">
</g><g id="svg_28">
</g><g id="svg_29">
</g><g id="svg_30">
</g></g></svg>