<svg xmlns="http://www.w3.org/2000/svg" width="858.841" height="364.977" viewBox="0 0 858.841 364.977"><defs><style>.a,.b{fill:#f44336;}.a{opacity:0.78;}</style></defs><g transform="translate(-1795.318 63.475) rotate(-80.009)"><path class="a" d="M66.135,29.437c87.793-72.131,175.417,10.991,351.174,10.991S681.2-42.693,769.161,29.437s87.191,226.921,0,288.524-173.01-42.11-348.767-42.11S154.7,379.565,66.135,317.963-21.659,101.569,66.135,29.437Z" transform="matrix(-0.191, -0.982, 0.982, -0.191, 190.597, 2661.134)"/><path class="b" d="M66.135,22.308c87.793-72.131,163.539,53.74,339.3,53.74S681.2-49.823,769.161,22.308s87.191,226.921,0,288.524-173.01-42.11-348.767-42.11S154.7,372.436,66.135,310.834-21.659,94.44,66.135,22.308Z" transform="translate(159.367 2642.246) rotate(-99)"/></g></svg>