<svg xmlns="http://www.w3.org/2000/svg" xmlns:xlink="http://www.w3.org/1999/xlink" viewBox="0 0 607.672 643.839"><defs><style>.a,.b{fill:#f44336;}.a{opacity:0.78;}.c{opacity:0.17;fill:url(#a);}</style><linearGradient id="a" x1="0.5" x2="0.5" y2="1" gradientUnits="objectBoundingBox"><stop offset="0" stop-color="#d55454"/><stop offset="0.382" stop-color="#d55454"/><stop offset="1" stop-color="#df7676"/></linearGradient></defs><g transform="matrix(-0.966, 0.259, -0.259, -0.966, 1098.086, 2241.865)"><path class="a" d="M-135.187-60.174C-75.008-109.617-14.945-52.64,105.53-52.64s180.886-56.977,241.182-7.534,59.766,155.546,0,197.773S228.12,108.734,107.645,108.734-74.479,179.826-135.187,137.6-195.367-10.73-135.187-60.174Z" transform="translate(291.292 2159.397) rotate(-118)"/><path class="b" d="M-135.187-60.174c60.179-49.443,112.1,36.837,232.58,36.837s189.024-86.28,249.319-36.837,59.766,155.546,0,197.773S228.12,108.734,107.645,108.734-74.479,179.826-135.187,137.6-195.367-10.73-135.187-60.174Z" transform="translate(164.588 2162.542) rotate(-99)"/><path class="c" d="M-109.1-77.239c60.179-49.443,94.159,24.6,214.634,24.6s180.886-56.977,241.182-7.534,59.766,155.546,0,197.773-118.6-28.866-239.071-28.866S-74.479,179.826-135.187,137.6-169.283-27.8-109.1-77.239Z" transform="matrix(-0.53, -0.848, 0.848, -0.53, 330.086, 2133.745)"/></g></svg>