<?xml version="1.0"?>
<svg xmlns="http://www.w3.org/2000/svg" xmlns:xlink="http://www.w3.org/1999/xlink" version="1.1" viewBox="0 0 224 224" width="50px" height="50px"><g fill="none" fill-rule="nonzero" stroke="none" stroke-width="1" stroke-linecap="butt" stroke-linejoin="miter" stroke-miterlimit="10" stroke-dasharray="" stroke-dashoffset="0" font-family="none" font-weight="none" font-size="none" text-anchor="none" style="mix-blend-mode: normal"><path d="M0,224v-224h224v224z" fill="none"/><g fill="#ffffff"><g id="surface1"><path d="M224.28,46.76c-8.2775,3.675 -17.15,6.1425 -26.4775,7.2625c9.52,-5.705 16.835,-14.735 20.265,-25.48c-8.89,5.2675 -18.7775,9.1 -29.26,11.165c-8.4,-8.96 -20.37,-14.5425 -33.6175,-14.5425c-25.445,0 -46.0775,20.615 -46.0775,46.06c0,3.605 0.42,7.1225 1.2075,10.5c-38.29,-1.925 -72.2225,-20.265 -94.955,-48.1425c-3.9725,6.825 -6.23,14.735 -6.23,23.17c0,15.9775 8.12,30.0825 20.4925,38.36c-7.56,-0.245 -14.665,-2.3275 -20.8775,-5.775c0,0.1925 0,0.385 0,0.5775c0,22.33 15.89,40.9325 36.9425,45.185c-3.85,1.05 -7.9275,1.61 -12.1275,1.61c-2.975,0 -5.8625,-0.28 -8.68,-0.84c5.88,18.2875 22.89,31.64 43.0325,32.0075c-15.75,12.355 -35.6125,19.705 -57.2075,19.705c-3.7275,0 -7.385,-0.21 -10.9725,-0.6475c20.37,13.09 44.59,20.7025 70.6125,20.7025c84.735,0 131.075,-70.1925 131.075,-131.0575c0,-1.995 -0.0525,-4.0075 -0.1225,-5.9675c8.995,-6.4925 16.8,-14.6125 22.9775,-23.8525z"/></g></g></g></svg>
