<svg xmlns="http://www.w3.org/2000/svg" width="843.369" height="790.054" viewBox="0 0 843.369 790.054"><defs><style>.a{fill:#f1c40f;}.b{fill:#f1c40e;opacity:0.78;}</style></defs><g transform="translate(-2176.9 597.213) rotate(-48.009)"><path class="a" d="M61.351,27.308C142.786-39.6,224.072,37.5,387.114,37.5s244.8-77.109,326.4-10.2,80.883,210.505,0,267.653S553.019,255.9,389.976,255.9,143.5,352.107,61.351,294.962-20.1,94.222,61.351,27.308Z" transform="matrix(0.225, 0.974, -0.974, 0.225, 1900.43, 1422.099)"/><path class="b" d="M61.351,27.308C142.786-39.6,224.072,37.5,387.114,37.5s244.8-77.109,326.4-10.2,80.883,210.505,0,267.653S553.019,255.9,389.976,255.9,143.5,352.107,61.351,294.962-20.1,94.222,61.351,27.308Z" transform="matrix(-0.122, 0.992, -0.992, -0.122, 2124.383, 1467.535)"/></g></svg>